<svg width="1024" height="1024" viewBox="0 0 1024 1024" fill="none" xmlns="http://www.w3.org/2000/svg">
<path d="M691.627 1023H332.373C318.19 1023.02 304.292 1019.02 292.286 1011.47C280.28 1003.92 270.658 993.126 264.533 980.333C257.364 965.155 254.603 948.268 256.564 931.596C258.525 914.925 265.13 899.14 275.627 886.04L455.253 668.44C462.303 660.306 471.018 653.783 480.809 649.313C490.599 644.842 501.237 642.528 512 642.528C522.763 642.528 533.401 644.842 543.191 649.313C552.982 653.783 561.697 660.306 568.747 668.44L748.373 886.04C758.87 899.14 765.475 914.925 767.436 931.596C769.397 948.268 766.636 965.155 759.467 980.333C753.342 993.126 743.72 1003.92 731.714 1011.47C719.708 1019.02 705.81 1023.02 691.627 1023V1023Z" stroke="black" stroke-width="2" stroke-linecap="round" stroke-linejoin="round"/>
</svg>
