<svg width="1024" height="1024" viewBox="0 0 1024 1024" fill="none" xmlns="http://www.w3.org/2000/svg">
<path d="M332.373 642.528H691.627C705.81 642.508 719.708 646.504 731.714 654.055C743.72 661.606 753.342 672.402 759.467 685.195C766.636 700.373 769.397 717.26 767.436 733.932C765.475 750.603 758.87 766.388 748.373 779.488L568.747 997.088C561.697 1005.22 552.982 1011.74 543.191 1016.22C533.401 1020.69 522.763 1023 512 1023C501.237 1023 490.599 1020.69 480.809 1016.22C471.018 1011.74 462.303 1005.22 455.253 997.088L275.627 779.488C265.13 766.388 258.525 750.603 256.564 733.932C254.603 717.26 257.364 700.373 264.533 685.195C270.658 672.402 280.28 661.606 292.286 654.055C304.292 646.504 318.19 642.508 332.373 642.528V642.528Z" stroke="black" stroke-width="2" stroke-linecap="round" stroke-linejoin="round"/>
</svg>
