<svg width="1024" height="1024" viewBox="0 0 1024 1024" fill="none" xmlns="http://www.w3.org/2000/svg">
<path d="M186.789 516.023C187.03 519.455 187.682 522.819 188.711 526.079C189.466 527.452 190.256 528.55 191.045 529.958C192.372 532.655 194.057 535.16 196.056 537.405C197.36 538.607 198.802 539.705 200.312 540.631L299.328 687.285C305.927 696.04 315.402 702.188 326.085 704.648C336.769 707.109 347.978 705.725 357.742 700.739C362.462 698.91 366.71 696.043 370.173 692.35C373.635 688.658 376.223 684.234 377.745 679.407C379.268 674.579 379.686 669.471 378.968 664.461C378.25 659.45 376.415 654.665 373.598 650.459L306.295 550.585H799.419C809.682 550.585 819.525 546.508 826.782 539.251C834.039 531.993 838.116 522.151 838.116 511.888C838.116 501.625 834.039 491.782 826.782 484.525C819.525 477.268 809.682 473.191 799.419 473.191H306.295L373.564 373.317C376.368 369.112 378.194 364.332 378.907 359.329C379.621 354.325 379.203 349.226 377.685 344.405C376.167 339.584 373.587 335.166 370.136 331.473C366.685 327.781 362.45 324.91 357.742 323.071C347.974 318.105 336.771 316.732 326.092 319.192C315.414 321.651 305.94 327.787 299.328 336.525L201.101 482.046C200.46 482.528 199.924 483.135 199.522 483.83C196.199 486.663 193.338 489.998 191.045 493.715C188.514 498.131 187.056 503.08 186.789 508.164V508.782C186.636 508.953 186.52 509.154 186.449 509.373C186.378 509.592 186.354 509.823 186.378 510.051C186.378 510.669 186 511.218 186 511.836C186 512.454 186.378 513.037 186.378 513.621C186.352 513.866 186.375 514.113 186.445 514.349C186.516 514.584 186.633 514.804 186.789 514.994V516.023V516.023Z" stroke="black" stroke-width="2" stroke-linecap="round" stroke-linejoin="round"/>
</svg>
