<svg width="1024" height="1024" viewBox="0 0 1024 1024" fill="none" xmlns="http://www.w3.org/2000/svg">
<path d="M955.401 457.1L891.834 393.545C876.746 378.457 864.384 348.642 864.384 327.263V237.377C864.384 194.618 829.455 159.689 786.708 159.666H696.787C675.431 159.666 645.582 147.281 630.494 132.205L566.938 68.6492C536.739 38.4502 487.293 38.4502 457.094 68.6492L393.539 132.251C378.439 147.339 348.555 159.689 327.246 159.689H237.359C194.659 159.689 159.683 194.618 159.683 237.377V327.263C159.683 348.561 147.322 378.468 132.234 393.545L68.6667 457.1C38.4444 487.299 38.4444 536.745 68.6667 566.991L132.234 630.546C147.333 645.634 159.683 675.53 159.683 696.828V786.714C159.683 829.426 194.659 864.402 237.359 864.402H327.246C348.602 864.402 378.451 876.763 393.539 891.84L457.094 955.418C487.293 985.594 536.739 985.594 566.938 955.418L630.494 891.84C645.593 876.752 675.431 864.402 696.787 864.402H786.708C829.455 864.402 864.384 829.426 864.384 786.714V696.828C864.384 675.437 876.758 645.622 891.834 630.546L955.401 566.991C985.577 536.745 985.577 487.299 955.401 457.1V457.1ZM450.36 686.796L278.988 515.401L333.91 460.49L450.372 576.952L690.111 337.271L745.022 392.182L450.36 686.796Z" stroke="black" stroke-width="2" stroke-linecap="round" stroke-linejoin="round"/>
</svg>
