<svg width="1024" height="1024" viewBox="0 0 1024 1024" fill="none" xmlns="http://www.w3.org/2000/svg">
<path d="M407.333 189H622.667C741.592 189 838 285.408 838 404.333V619.667C838 738.592 741.592 835 622.667 835H407.333C288.408 835 192 738.592 192 619.667V404.333C192 285.408 288.408 189 407.333 189ZM407.333 296.667C347.871 296.667 299.667 344.871 299.667 404.333V619.667C299.667 679.129 347.871 727.333 407.333 727.333H622.667C682.129 727.333 730.333 679.129 730.333 619.667V404.333C730.333 344.871 682.129 296.667 622.667 296.667H407.333Z" stroke="black" stroke-width="2"/>
</svg>
