<svg width="1024" height="1024" viewBox="0 0 1024 1024" fill="none" xmlns="http://www.w3.org/2000/svg">
<path d="M798.891 1023C784.453 1023 770.109 1017.47 759.141 1006.5L184.453 431.906C162.516 409.969 162.516 374.344 184.453 352.312C206.391 330.375 242.016 330.375 264.047 352.312L838.641 926.906C860.578 948.844 860.578 984.469 838.641 1006.5C833.425 1011.73 827.229 1015.88 820.409 1018.71C813.588 1021.54 806.276 1023 798.891 1023V1023ZM224.203 1023C209.766 1023 195.422 1017.47 184.453 1006.5C162.516 984.562 162.516 948.938 184.453 926.906L759.047 352.312C780.984 330.375 816.609 330.375 838.641 352.312C860.578 374.25 860.578 409.875 838.641 431.906L264.047 1006.5C253.078 1017.47 238.641 1023 224.203 1023ZM798.891 1023C784.453 1023 770.109 1017.47 759.141 1006.5L184.453 431.906C162.516 409.969 162.516 374.344 184.453 352.312C206.391 330.375 242.016 330.375 264.047 352.312L838.641 926.906C860.578 948.844 860.578 984.469 838.641 1006.5C833.425 1011.73 827.229 1015.88 820.409 1018.71C813.588 1021.54 806.276 1023 798.891 1023V1023ZM224.203 1023C209.766 1023 195.422 1017.47 184.453 1006.5C162.516 984.562 162.516 948.938 184.453 926.906L759.047 352.312C780.984 330.375 816.609 330.375 838.641 352.312C860.578 374.25 860.578 409.875 838.641 431.906L264.047 1006.5C253.078 1017.47 238.641 1023 224.203 1023ZM798.891 1023C784.453 1023 770.109 1017.47 759.141 1006.5L184.453 431.906C162.516 409.969 162.516 374.344 184.453 352.312C206.391 330.375 242.016 330.375 264.047 352.312L838.641 926.906C860.578 948.844 860.578 984.469 838.641 1006.5C833.425 1011.73 827.229 1015.88 820.409 1018.71C813.588 1021.54 806.276 1023 798.891 1023V1023ZM224.203 1023C209.766 1023 195.422 1017.47 184.453 1006.5C162.516 984.562 162.516 948.938 184.453 926.906L759.047 352.312C780.984 330.375 816.609 330.375 838.641 352.312C860.578 374.25 860.578 409.875 838.641 431.906L264.047 1006.5C253.078 1017.47 238.641 1023 224.203 1023ZM798.891 1023C784.453 1023 770.109 1017.47 759.141 1006.5L184.453 431.906C162.516 409.969 162.516 374.344 184.453 352.312C206.391 330.375 242.016 330.375 264.047 352.312L838.641 926.906C860.578 948.844 860.578 984.469 838.641 1006.5C833.425 1011.73 827.229 1015.88 820.409 1018.71C813.588 1021.54 806.276 1023 798.891 1023V1023ZM224.203 1023C209.766 1023 195.422 1017.47 184.453 1006.5C162.516 984.562 162.516 948.938 184.453 926.906L759.047 352.312C780.984 330.375 816.609 330.375 838.641 352.312C860.578 374.25 860.578 409.875 838.641 431.906L264.047 1006.5C253.078 1017.47 238.641 1023 224.203 1023Z" stroke="black" stroke-width="2" stroke-linecap="round" stroke-linejoin="round"/>
</svg>
