<svg width="1024" height="1024" viewBox="0 0 1024 1024" fill="none" xmlns="http://www.w3.org/2000/svg">
<path d="M853.333 469.333C842.017 469.333 831.165 473.829 823.163 481.83C815.162 489.832 810.667 500.684 810.667 512V768C810.667 779.316 806.171 790.168 798.17 798.17C790.168 806.171 779.316 810.667 768 810.667H256C244.684 810.667 233.832 806.171 225.83 798.17C217.829 790.168 213.333 779.316 213.333 768V256C213.333 244.684 217.829 233.832 225.83 225.83C233.832 217.829 244.684 213.333 256 213.333H512C523.315 213.332 534.166 208.836 542.166 200.834C550.166 192.833 554.66 181.981 554.66 170.667C554.66 159.352 550.166 148.5 542.166 140.499C534.166 132.498 523.315 128.002 512 128H256C222.052 128 189.495 141.486 165.49 165.49C141.486 189.495 128 222.052 128 256V768C128 801.948 141.486 834.505 165.49 858.51C189.495 882.514 222.052 896 256 896H768C801.948 896 834.505 882.514 858.51 858.51C882.514 834.505 896 801.948 896 768V512C896 500.684 891.505 489.832 883.503 481.83C875.502 473.829 864.649 469.333 853.333 469.333ZM682.667 213.333H750.08L481.707 481.28C477.708 485.246 474.533 489.965 472.367 495.165C470.201 500.364 469.086 505.941 469.086 511.573C469.086 517.206 470.201 522.783 472.367 527.982C474.533 533.181 477.708 537.9 481.707 541.867C485.673 545.866 490.392 549.04 495.591 551.206C500.791 553.372 506.367 554.487 512 554.487C517.633 554.487 523.209 553.372 528.409 551.206C533.608 549.04 538.327 545.866 542.293 541.867L810.667 273.92V341.333C810.667 352.649 815.162 363.502 823.163 371.503C831.165 379.505 842.017 384 853.333 384C858.936 384 864.485 382.896 869.661 380.752C874.838 378.608 879.541 375.465 883.503 371.503C887.465 367.541 890.608 362.838 892.752 357.661C894.896 352.485 896 346.936 896 341.333V170.667C896 159.351 891.505 148.498 883.503 140.497C875.502 132.495 864.649 128 853.333 128H682.667C671.352 128.002 660.501 132.498 652.501 140.499C644.501 148.5 640.007 159.352 640.007 170.667C640.007 181.981 644.501 192.833 652.501 200.834C660.501 208.836 671.352 213.332 682.667 213.333Z" stroke="black" stroke-width="2" stroke-linecap="round" stroke-linejoin="round"/>
</svg>
