<svg width="1024" height="1024" viewBox="0 0 1024 1024" fill="none" xmlns="http://www.w3.org/2000/svg">
<path d="M512 14.2126C229.672 14.2126 1 242.885 1 525.213C1 751.33 147.274 942.316 350.396 1010.02C375.946 1014.5 385.527 999.165 385.527 985.751C385.527 973.615 384.889 933.374 384.889 890.578C256.5 914.211 223.285 859.279 213.065 830.535C207.316 815.844 182.405 770.493 160.688 758.356C142.802 748.775 117.252 725.141 160.049 724.503C200.29 723.864 229.034 761.55 238.615 776.88C284.605 854.169 358.061 832.451 387.444 819.038C391.915 785.823 405.329 763.466 420.02 750.691C306.322 737.916 187.515 693.843 187.515 498.385C187.515 442.814 207.316 396.824 239.893 361.054C234.783 348.279 216.897 295.901 245.002 225.639C245.002 225.639 287.799 212.225 385.527 278.016C426.407 266.519 469.843 260.77 513.278 260.77C556.713 260.77 600.148 266.519 641.028 278.016C738.756 211.586 781.553 225.639 781.553 225.639C809.658 295.901 791.773 348.279 786.663 361.054C819.239 396.824 839.04 442.175 839.04 498.385C839.04 694.481 719.594 737.916 605.896 750.691C624.42 766.66 640.389 797.32 640.389 845.226C640.389 913.573 639.75 968.505 639.75 985.751C639.75 999.165 649.331 1015.13 674.881 1010.02C776.324 975.778 864.473 910.582 926.922 823.612C989.37 736.643 1022.97 632.28 1023 525.213C1023 242.885 794.328 14.2126 512 14.2126Z" stroke="black" stroke-width="2" stroke-linecap="round" stroke-linejoin="round"/>
</svg>
