<svg width="1024" height="1024" viewBox="0 0 1024 1024" fill="none" xmlns="http://www.w3.org/2000/svg">
<path d="M837.326 507.814C837.086 504.382 836.434 501.019 835.404 497.758C834.649 496.385 833.86 495.287 833.071 493.88C831.744 491.183 830.059 488.677 828.06 486.432C826.753 485.217 825.327 484.136 823.804 483.206L724.788 336.553C718.189 327.798 708.714 321.65 698.031 319.189C687.347 316.729 676.138 318.113 666.374 323.099C661.654 324.928 657.406 327.795 653.943 331.487C650.481 335.18 647.893 339.603 646.37 344.431C644.848 349.258 644.43 354.366 645.148 359.377C645.866 364.388 647.701 369.173 650.517 373.379L717.821 473.253H224.697C214.434 473.253 204.591 477.33 197.334 484.587C190.077 491.844 186 501.687 186 511.95C186 522.213 190.077 532.056 197.334 539.313C204.591 546.57 214.434 550.647 224.697 550.647H717.821L650.552 650.521C647.747 654.725 645.922 659.505 645.208 664.509C644.495 669.512 644.913 674.612 646.431 679.432C647.949 684.253 650.529 688.672 653.98 692.364C657.431 696.056 661.666 698.928 666.374 700.767C676.142 705.732 687.345 707.105 698.023 704.646C708.702 702.186 718.176 696.051 724.788 687.313L823.015 541.792C823.655 541.309 824.192 540.702 824.593 540.007C827.923 537.159 830.771 533.83 833.071 530.123C835.602 525.707 837.06 520.757 837.326 515.674V515.056C837.67 514.713 837.773 514.232 837.738 513.786C837.738 513.168 838.116 512.619 838.116 512.001C838.116 511.384 837.738 510.8 837.738 510.217C837.764 509.972 837.741 509.725 837.67 509.489C837.6 509.253 837.483 509.034 837.326 508.844V507.814V507.814Z" stroke="black" stroke-width="2" stroke-linecap="round" stroke-linejoin="round"/>
</svg>
