<svg width="1024" height="1024" viewBox="0 0 1024 1024" fill="none" xmlns="http://www.w3.org/2000/svg">
<path fill-rule="evenodd" clip-rule="evenodd" d="M511.696 149C294.99 149 148 295.99 148 512.696C148 729.4 294.99 876.39 511.696 876.39C728.4 876.39 875.39 729.4 875.39 512.696C875.39 295.99 728.4 149 511.696 149ZM63 512.696C63 264.889 263.889 64 511.696 64C759.504 64 960.393 264.889 960.393 512.696C960.393 760.504 759.504 961.393 511.696 961.393C263.889 961.393 63 760.504 63 512.696ZM446.74 283.705C446.74 247.831 475.823 218.748 511.696 218.748C547.57 218.748 576.653 247.831 576.653 283.705C576.653 319.581 547.57 348.662 511.696 348.662C475.823 348.662 446.74 319.581 446.74 283.705ZM446.74 462.696C446.74 426.823 475.823 397.74 511.696 397.74C547.57 397.74 576.653 426.823 576.653 462.696V736.545C576.653 772.42 547.57 801.501 511.696 801.501C475.823 801.501 446.74 772.42 446.74 736.545V462.696Z" stroke="black" stroke-width="2" stroke-linecap="round" stroke-linejoin="round"/>
</svg>
