<svg width="1024" height="1024" viewBox="0 0 1024 1024" fill="none" xmlns="http://www.w3.org/2000/svg">
<path fill-rule="evenodd" clip-rule="evenodd" d="M115 636.333C115 588.653 153.653 550 201.333 550H798.667C846.347 550 885 588.653 885 636.333V935C885 982.681 846.347 1021.33 798.667 1021.33H201.333C153.653 1021.33 115 982.681 115 935V636.333Z" stroke="black" stroke-width="2" stroke-linecap="round" stroke-linejoin="round"/>
<path fill-rule="evenodd" clip-rule="evenodd" d="M512 246C455.686 246 441.5 254.5 416 280C390.5 305.5 383 317 383 379.333V550C378.5 550 308.552 550 308 550C307.448 550 300.5 550 297.667 550V379.333C297.667 322.489 320.248 267.972 360.443 227.777C400.639 187.581 455.155 165 512 165C568.845 165 623.361 187.581 663.556 227.777C703.752 267.972 726.333 322.489 726.333 379.333V550C724.5 550 720.052 550 719.5 550C718.948 550 646.33 550 640.33 550V379.333C640.33 323.019 634.33 309.83 604.5 280C578.5 254 560.5 246 512 246Z" stroke="black" stroke-width="2" stroke-linecap="round" stroke-linejoin="round"/>
</svg>
