<svg width="1024" height="1024" viewBox="0 0 1024 1024" fill="none" xmlns="http://www.w3.org/2000/svg">
<path d="M555 575.332C555 578.133 554.448 580.907 553.376 583.496C552.304 586.084 550.733 588.436 548.752 590.417C546.771 592.398 544.419 593.969 541.831 595.041C539.242 596.113 536.468 596.665 533.667 596.665H363C360.198 596.665 357.424 596.113 354.836 595.041C352.248 593.969 349.896 592.398 347.915 590.417C345.934 588.436 344.363 586.084 343.291 583.496C342.218 580.907 341.667 578.133 341.667 575.332V532.665C341.667 529.864 342.218 527.09 343.291 524.501C344.363 521.913 345.934 519.561 347.915 517.58C349.896 515.599 352.248 514.028 354.836 512.956C357.424 511.884 360.198 511.332 363 511.332H533.667C536.468 511.332 539.242 511.884 541.831 512.956C544.419 514.028 546.771 515.599 548.752 517.58C550.733 519.561 552.304 521.913 553.376 524.501C554.448 527.09 555 529.864 555 532.665V575.332ZM683 404.665C683 407.467 682.448 410.241 681.376 412.829C680.304 415.417 678.733 417.769 676.752 419.75C674.771 421.731 672.419 423.302 669.831 424.375C667.242 425.447 664.468 425.998 661.667 425.998H363C360.198 425.998 357.424 425.447 354.836 424.375C352.248 423.302 349.896 421.731 347.915 419.75C345.934 417.769 344.363 415.417 343.291 412.829C342.218 410.241 341.667 407.467 341.667 404.665V361.999C341.667 359.197 342.218 356.423 343.291 353.835C344.363 351.246 345.934 348.895 347.915 346.914C349.896 344.933 352.248 343.361 354.836 342.289C357.424 341.217 360.198 340.665 363 340.665H661.667C664.468 340.665 667.242 341.217 669.831 342.289C672.419 343.361 674.771 344.933 676.752 346.914C678.733 348.895 680.304 351.246 681.376 353.835C682.448 356.423 683 359.197 683 361.999V404.665ZM811 84.6652H213.667C202.351 84.6652 191.498 89.1604 183.497 97.162C175.495 105.164 171 116.016 171 127.332V821.092C171.157 832.389 175.577 843.209 183.373 851.385L264.013 931.599C265.918 933.648 268.231 935.276 270.803 936.379C273.375 937.481 276.149 938.033 278.947 937.999H291.32C294.118 938.033 296.892 937.481 299.464 936.379C302.036 935.276 304.348 933.648 306.253 931.599L384.333 852.665C388.272 848.646 393.64 846.345 399.267 846.265C404.884 846.39 410.235 848.684 414.2 852.665L491.427 929.892C493.332 931.941 495.644 933.57 498.216 934.672C500.788 935.774 503.562 936.326 506.36 936.292H518.733C521.531 936.326 524.305 935.774 526.877 934.672C529.449 933.57 531.762 931.941 533.667 929.892L611.32 852.665C615.259 848.646 620.626 846.345 626.253 846.265C631.572 846.602 636.582 848.88 640.333 852.665L717.56 929.892C719.465 931.941 721.778 933.57 724.349 934.672C726.921 935.774 729.695 936.326 732.493 936.292H744.867C747.665 936.326 750.439 935.774 753.01 934.672C755.582 933.57 757.895 931.941 759.8 929.892L841.293 852.665C849.176 844.718 853.619 833.992 853.667 822.799V127.332C853.667 116.016 849.171 105.164 841.17 97.162C833.168 89.1604 822.316 84.6652 811 84.6652V84.6652ZM768.333 804.025L740.173 832.185L708.6 801.039L701.773 794.212L687.267 779.705C679.32 771.823 668.593 767.379 657.4 767.332H597.667C592.051 767.299 586.485 768.376 581.287 770.499C576.088 772.622 571.36 775.751 567.373 779.705L512.333 832.612L459.427 779.705C451.48 771.823 440.753 767.379 429.56 767.332H367.693C356.5 767.379 345.774 771.823 337.827 779.705L285.347 832.185L256.333 803.172V169.999H768.333V804.025Z" stroke="black" stroke-width="2" stroke-linecap="round" stroke-linejoin="round"/>
</svg>
