<svg width="1024" height="1024" viewBox="0 0 1024 1024" fill="none" xmlns="http://www.w3.org/2000/svg">
<path d="M662.411 450.991C662.411 392.92 641.772 343.247 600.495 301.969C559.218 260.692 509.544 240.054 451.473 240.054C393.403 240.054 343.729 260.692 302.452 301.969C261.174 343.247 240.536 392.92 240.536 450.991C240.536 509.062 261.174 558.736 302.452 600.013C343.729 641.29 393.403 661.929 451.473 661.929C509.544 661.929 559.218 641.29 600.495 600.013C641.772 558.736 662.411 509.062 662.411 450.991ZM903.482 842.732C903.482 859.055 897.518 873.18 885.59 885.108C873.662 897.036 859.537 903 843.214 903C826.264 903 812.139 897.036 800.838 885.108L639.339 724.08C583.152 763.003 520.53 782.464 451.473 782.464C406.586 782.464 363.661 773.754 322.698 756.333C281.734 738.911 246.421 715.369 216.758 685.706C187.095 656.043 163.553 620.73 146.132 579.767C128.711 538.803 120 495.878 120 450.991C120 406.104 128.711 363.179 146.132 322.216C163.553 281.252 187.095 245.939 216.758 216.276C246.421 186.613 281.734 163.071 322.698 145.65C363.661 128.228 406.586 119.518 451.473 119.518C496.36 119.518 539.285 128.228 580.249 145.65C621.212 163.071 656.525 186.613 686.188 216.276C715.851 245.939 739.393 281.252 756.815 322.216C774.236 363.179 782.946 406.104 782.946 450.991C782.946 520.048 763.485 582.67 724.562 638.857L886.061 800.356C897.675 811.97 903.482 826.096 903.482 842.732V842.732Z" stroke="black" stroke-width="2" stroke-linecap="round" stroke-linejoin="round"/>
</svg>
