<svg width="1024" height="1024" viewBox="0 0 1024 1024" fill="none" xmlns="http://www.w3.org/2000/svg">
<path d="M996.476 409.057C913.729 414.648 795.679 496.437 735.935 523.274C689.45 544.2 649.354 562.251 614.371 562.251C578.269 562.251 572.837 536.373 580.345 479.344C582.103 466.565 599.035 352.828 512.135 357.78C472.039 360.176 409.42 397.396 241.37 559.056L307.664 393.402C356.226 272.157 222.68 151.391 100.477 229.186L12.7777 288.132C0.956655 295.64 -2.5577 311.454 4.95024 323.435L32.4261 366.566C39.934 378.546 55.7486 382.061 67.7293 374.393L160.38 312.253C189.773 293.563 225.396 323.754 212.616 355.543L55.7486 747.873C44.886 774.869 60.0617 818 103.192 818C116.451 818 129.55 812.888 139.294 802.984C206.706 735.572 386.417 562.251 476.672 490.207C473.158 535.734 473.317 584.296 509.579 624.072C534.02 650.909 569.163 664.487 614.211 664.487C671.08 664.487 722.836 641.164 777.628 616.564C830.344 592.922 935.774 516.565 998.713 511.453C1012.29 510.335 1022.99 499.791 1022.99 486.213V434.936C1023.31 420.399 1011.01 408.099 996.476 409.057V409.057Z" stroke="black" stroke-width="2" stroke-linecap="round" stroke-linejoin="round"/>
</svg>
