<svg width="1024" height="1024" viewBox="0 0 1024 1024" fill="none" xmlns="http://www.w3.org/2000/svg">
<path fill-rule="evenodd" clip-rule="evenodd" d="M121 636.333C121 588.653 159.653 550 207.333 550H804.667C852.347 550 891 588.653 891 636.333V935C891 982.681 852.347 1021.33 804.667 1021.33H207.333C159.653 1021.33 121 982.681 121 935V636.333Z" stroke="black" stroke-width="2" stroke-linecap="round" stroke-linejoin="round"/>
<path fill-rule="evenodd" clip-rule="evenodd" d="M518 246C461.686 246 447.5 254.5 422 280C396.5 305.5 389 317 389 379.333V550C384.5 550 314.552 550 314 550C313.448 550 306.5 550 303.667 550V379.333C303.667 322.489 326.248 267.972 366.443 227.777C406.639 187.581 461.155 165 518 165C574.845 165 629.361 187.581 669.556 227.777C709.752 267.972 716.5 279.5 727.5 340L696.5 343.5L667 347L657.5 348.5L653.5 349C653.5 318 632.5 297.5 612.5 279.5C585.169 254.902 566.5 246 518 246Z" stroke="black" stroke-width="2" stroke-linecap="round" stroke-linejoin="round"/>
</svg>
