<svg width="1024" height="1024" viewBox="0 0 1024 1024" fill="none" xmlns="http://www.w3.org/2000/svg">
<path d="M315.625 488.625C316.806 544.294 335.997 590.728 373.197 627.928C410.397 665.128 456.831 684.319 512.5 685.5C568.169 684.319 614.603 665.128 651.803 627.928C689.003 590.728 708.194 544.294 709.375 488.625C708.194 432.956 689.003 386.522 651.803 349.322C614.603 312.122 568.169 292.931 512.5 291.75C456.831 292.931 410.397 312.122 373.197 349.322C335.997 386.522 316.806 432.956 315.625 488.625ZM793.75 1023H203.125C194.913 1023 188.172 1020.37 182.903 1015.1C177.634 1009.83 175 1003.09 175 994.875V910.5C176.181 870.656 189.953 837.553 216.316 811.191C242.678 784.828 275.781 771.056 315.625 769.875H709.375C749.219 771.056 782.322 784.828 808.684 811.191C835.047 837.553 848.819 870.656 850 910.5V994.875C850 1003.09 847.366 1009.83 842.097 1015.1C836.828 1020.37 830.087 1023 821.875 1023H793.75Z" stroke="black" stroke-width="2" stroke-linecap="round" stroke-linejoin="round"/>
</svg>
