<svg width="1024" height="1024" viewBox="0 0 1024 1024" fill="none" xmlns="http://www.w3.org/2000/svg">
<path d="M128.75 341.833C56.3583 341.833 1 286.475 1 214.083C1 141.692 56.3583 86.3333 128.75 86.3333C154.3 86.3333 171.333 103.367 171.333 128.917C171.333 154.467 154.3 171.5 128.75 171.5C103.2 171.5 86.1667 188.533 86.1667 214.083C86.1667 239.633 103.2 256.667 128.75 256.667C154.3 256.667 171.333 273.7 171.333 299.25C171.333 324.8 154.3 341.833 128.75 341.833ZM128.75 938C56.3583 938 1 882.642 1 810.25C1 784.7 18.0333 767.667 43.5833 767.667C69.1333 767.667 86.1667 784.7 86.1667 810.25C86.1667 835.8 103.2 852.833 128.75 852.833C154.3 852.833 171.333 869.867 171.333 895.417C171.333 920.967 154.3 938 128.75 938ZM980.417 938H128.75C103.2 938 86.1667 920.967 86.1667 895.417C86.1667 869.867 103.2 852.833 128.75 852.833H937.833V341.833H128.75C103.2 341.833 86.1667 324.8 86.1667 299.25C86.1667 273.7 103.2 256.667 128.75 256.667H980.417C1005.97 256.667 1023 273.7 1023 299.25V895.417C1023 920.967 1005.97 938 980.417 938ZM895.25 341.833C869.7 341.833 852.667 324.8 852.667 299.25V171.5H128.75C103.2 171.5 86.1667 154.467 86.1667 128.917C86.1667 103.367 103.2 86.3333 128.75 86.3333H895.25C920.8 86.3333 937.833 103.367 937.833 128.917V299.25C937.833 324.8 920.8 341.833 895.25 341.833ZM43.5833 852.833C18.0333 852.833 1 835.8 1 810.25V214.083C1 188.533 18.0333 171.5 43.5833 171.5C69.1333 171.5 86.1667 188.533 86.1667 214.083V810.25C86.1667 835.8 69.1333 852.833 43.5833 852.833ZM682.333 597.333C682.333 574.746 691.306 553.083 707.278 537.111C723.25 521.14 744.912 512.167 767.5 512.167C790.088 512.167 811.75 521.14 827.722 537.111C843.694 553.083 852.667 574.746 852.667 597.333C852.667 619.921 843.694 641.583 827.722 657.555C811.75 673.527 790.088 682.5 767.5 682.5C744.912 682.5 723.25 673.527 707.278 657.555C691.306 641.583 682.333 619.921 682.333 597.333Z" stroke="black" stroke-width="2" stroke-linecap="round" stroke-linejoin="round"/>
</svg>
