<svg width="1024" height="1024" viewBox="0 0 1024 1024" fill="none" xmlns="http://www.w3.org/2000/svg">
<path d="M511.696 63.6071C264.441 63.6071 64 264.048 64 511.304C64 758.559 264.441 959 511.696 959C758.952 959 959.393 758.559 959.393 511.304C959.393 264.048 758.952 63.6071 511.696 63.6071ZM511.696 804.252C476.375 804.252 447.74 775.616 447.74 740.295C447.74 704.971 476.375 676.338 511.696 676.338C547.018 676.338 575.653 704.971 575.653 740.295C575.653 775.616 547.018 804.252 511.696 804.252ZM575.653 511.304C575.653 546.625 547.018 575.26 511.696 575.26C476.375 575.26 447.74 546.625 447.74 511.304V287.455C447.74 252.132 476.375 223.499 511.696 223.499C547.018 223.499 575.653 252.132 575.653 287.455V511.304Z" stroke="black" stroke-width="2" stroke-linecap="round" stroke-linejoin="round"/>
</svg>
