<svg width="1024" height="1024" viewBox="0 0 1024 1024" fill="none" xmlns="http://www.w3.org/2000/svg">
<path fill-rule="evenodd" clip-rule="evenodd" d="M511.696 875C294.99 875 148 728.01 148 511.304C148 294.6 294.99 147.61 511.696 147.61C728.4 147.61 875.39 294.6 875.39 511.304C875.39 728.01 728.4 875 511.696 875ZM63 511.304C63 759.111 263.889 960 511.696 960C759.504 960 960.393 759.111 960.393 511.304C960.393 263.496 759.504 62.6071 511.696 62.6071C263.889 62.6071 63 263.496 63 511.304ZM446.74 740.295C446.74 776.169 475.823 805.252 511.696 805.252C547.57 805.252 576.653 776.169 576.653 740.295C576.653 704.419 547.57 675.338 511.696 675.338C475.823 675.338 446.74 704.419 446.74 740.295ZM446.74 511.304C446.74 547.177 475.823 576.26 511.696 576.26C547.57 576.26 576.653 547.177 576.653 511.304V287.455C576.653 251.58 547.57 222.499 511.696 222.499C475.823 222.499 446.74 251.58 446.74 287.455V511.304Z" stroke="black" stroke-width="2" stroke-linecap="round" stroke-linejoin="round"/>
</svg>
