<?xml version="1.0" standalone="no"?>
<!DOCTYPE svg PUBLIC "-//W3C//DTD SVG 1.1//EN" "http://www.w3.org/Graphics/SVG/1.1/DTD/svg11.dtd" >
<svg xmlns="http://www.w3.org/2000/svg" xmlns:xlink="http://www.w3.org/1999/xlink" version="1.1">
<metadata>
Created by FontForge 20161116 at Wed Feb  9 16:20:38 2011
 By Jimmy Warting
Copyright 2011 Monotype Imaging Inc. All rights reserved.
</metadata>
<defs>
<font id="HarmoniaSansProCyr-Regular" horiz-adv-x="398" >
  <font-face 
    font-family="Harmonia Sans Pro Cyr"
    font-weight="400"
    font-stretch="normal"
    units-per-em="1000"
    panose-1="2 11 5 2 3 4 2 2 2 4"
    ascent="730"
    descent="-270"
    x-height="479"
    cap-height="682"
    bbox="-170 -257 1161 965"
    underline-thickness="50"
    underline-position="-100"
    stemh="63"
    stemv="72"
    unicode-range="U+0020-FB04"
  />
<missing-glyph horiz-adv-x="500" 
d="M12 0v665h475v-665h-475zM88 618l162 -243l161 243h-323zM60 575v-484c0 -1 161 242 161 242zM440 575l-162 -242l162 -243v485zM411 48l-161 242l-162 -242h323z" />
    <glyph glyph-name="napostrophe" unicode="&#x27;n" horiz-adv-x="617" 
d="M133 0v479h79v-60h2c44 57 99 76 151 76c87 0 189 -54 189 -216v-279h-79v274c0 97 -47 150 -122 150c-86 0 -141 -58 -141 -169v-255h-79zM-20 621v99h100v-49c0 -72 -21 -130 -48 -172h-50c24 37 32 79 34 122h-36z" />
    <glyph glyph-name="IJ" unicode="IJ" horiz-adv-x="576" 
d="M74 0v682h83v-682h-83zM431 175v507h82v-506c0 -141 -66 -196 -170 -196c-33 0 -75 9 -98 20v74c23 -11 65 -20 90 -20c64 0 96 30 96 121z" />
    <glyph glyph-name="fi" unicode="fi" horiz-adv-x="526" 
d="M28 413v66h69v86c0 102 52 160 151 160c20 0 41 -3 59 -8v-66c-18 6 -34 8 -54 8c-52 0 -76 -34 -76 -85v-95h110v-66h-110v-413h-80v413h-69zM378 0v479h79v-479h-79zM369 594v93h98v-93h-98z" />
    <glyph glyph-name="fl" unicode="fl" horiz-adv-x="531" 
d="M28 413v66h69v86c0 102 52 160 151 160c20 0 41 -3 59 -8v-66c-18 6 -34 8 -54 8c-52 0 -76 -34 -76 -85v-95h110v-66h-110v-413h-80v413h-69zM383 0v720h79v-720h-79z" />
    <glyph glyph-name="ij" unicode="ij" horiz-adv-x="434" 
d="M69 0v479h79v-479h-79zM60 594v93h98v-93h-98zM365 479v-540c0 -131 -61 -190 -157 -190c-39 0 -66 8 -86 15v66c14 -5 46 -15 79 -15c54 0 85 34 85 117v547h79zM277 594v93h98v-93h-98z" />
    <glyph glyph-name="f_f_l" unicode="ffl" horiz-adv-x="807" 
d="M659 0v720h79v-720h-79zM177 413v-413h-80v413h-69v66h69v86c0 102 52 160 151 160c20 0 41 -3 59 -8v-66c-18 6 -34 8 -54 8c-52 0 -76 -34 -76 -85v-95h201v86c0 102 52 160 151 160c20 0 41 -3 59 -8v-66c-18 6 -34 8 -54 8c-52 0 -76 -34 -76 -85v-95h110v-66h-110
v-413h-80v413h-201z" />
    <glyph glyph-name="f_f_i" unicode="ffi" horiz-adv-x="807" 
d="M659 0v479h79v-479h-79zM650 594v93h98v-93h-98zM177 413v-413h-80v413h-69v66h69v86c0 102 52 160 151 160c20 0 41 -3 59 -8v-66c-18 6 -34 8 -54 8c-52 0 -76 -34 -76 -85v-95h201v86c0 102 52 160 151 160c20 0 41 -3 59 -8v-66c-18 6 -34 8 -54 8
c-52 0 -76 -34 -76 -85v-95h110v-66h-110v-413h-80v413h-201z" />
    <glyph glyph-name="f_f" unicode="ff" horiz-adv-x="580" 
d="M177 413v-413h-80v413h-69v66h69v86c0 102 52 160 151 160c20 0 41 -3 59 -8v-66c-18 6 -34 8 -54 8c-52 0 -76 -34 -76 -85v-95h201v86c0 102 52 160 151 160c20 0 41 -3 59 -8v-66c-18 6 -34 8 -54 8c-52 0 -76 -34 -76 -85v-95h110v-66h-110v-413h-80v413h-201z" />
    <glyph glyph-name=".notdef" horiz-adv-x="500" 
d="M12 0v665h475v-665h-475zM88 618l162 -243l161 243h-323zM60 575v-484c0 -1 161 242 161 242zM440 575l-162 -242l162 -243v485zM411 48l-161 242l-162 -242h323z" />
    <glyph glyph-name="space" unicode=" " horiz-adv-x="250" 
 />
    <glyph glyph-name="exclam" unicode="!" horiz-adv-x="229" 
d="M71 0v88h88v-88h-88zM71 682h88l-8 -493h-72z" />
    <glyph glyph-name="quotedbl" unicode="&#x22;" horiz-adv-x="359" 
d="M60 721h79l-10 -217h-60zM220 721h79l-10 -217h-61z" />
    <glyph glyph-name="numbersign" unicode="#" horiz-adv-x="590" 
d="M448 476h128l-12 -52h-127l-37 -170h129l-10 -54h-130l-43 -200h-58l44 200h-134l-45 -200h-56l43 200h-126l11 54h126l38 170h-129l10 52h130l43 206h58l-45 -206h134l45 206h57zM380 424h-135l-38 -170h136z" />
    <glyph glyph-name="dollar" unicode="$" horiz-adv-x="562" 
d="M484 521h-87c-8 36 -35 64 -79 74v-198c135 -43 180 -107 180 -194c0 -82 -61 -167 -180 -181v-74h-67v73c-99 9 -174 61 -200 163h89c16 -53 50 -88 111 -97v251c-124 34 -171 85 -171 172c0 77 68 142 171 152v61h67v-62c94 -12 153 -69 166 -140zM417 198
c0 57 -23 93 -99 121v-231c66 12 99 62 99 110zM160 510c0 -48 22 -71 91 -93v180c-59 -9 -91 -42 -91 -87z" />
    <glyph glyph-name="percent" unicode="%" horiz-adv-x="753" 
d="M48 519c0 134 78 184 150 184c66 0 141 -43 141 -182c0 -153 -88 -189 -144 -189c-68 0 -147 43 -147 187zM269 519c0 80 -27 119 -75 119c-41 0 -76 -32 -76 -118c0 -88 31 -123 77 -123c39 0 74 33 74 122zM414 165c0 133 77 183 149 183c67 0 142 -43 142 -181
c0 -154 -88 -189 -145 -189c-68 0 -146 42 -146 187zM635 165c0 80 -27 118 -76 118c-40 0 -75 -31 -75 -117c0 -89 30 -123 76 -123c39 0 75 31 75 122zM566 682h77l-453 -682h-77z" />
    <glyph glyph-name="ampersand" unicode="&#x26;" horiz-adv-x="612" 
d="M489 326v12h76v-9c0 -81 -33 -165 -70 -214c38 -48 60 -63 85 -63c10 0 24 3 28 4v-66c-7 -2 -26 -5 -40 -5c-39 0 -71 16 -120 75c-44 -40 -102 -78 -194 -78c-145 0 -216 101 -216 205c0 97 65 159 156 205c-21 31 -62 92 -62 159c0 80 56 151 166 151
c86 0 163 -52 163 -147c0 -89 -77 -133 -165 -180l157 -208c25 47 36 101 36 159zM255 54c75 0 127 30 153 56l-176 230c-70 -37 -118 -84 -118 -153c0 -73 56 -133 141 -133zM208 546c0 -48 19 -75 50 -120c77 36 127 72 127 129c0 40 -29 78 -88 78c-63 0 -89 -45 -89 -87
z" />
    <glyph glyph-name="quotesingle" unicode="'" horiz-adv-x="199" 
d="M60 721h79l-10 -217h-60z" />
    <glyph glyph-name="parenleft" unicode="(" horiz-adv-x="320" 
d="M304 -215h-79c-110 136 -154 320 -154 478c0 161 44 342 154 480h79c-110 -138 -154 -319 -154 -480c0 -158 44 -342 154 -478z" />
    <glyph glyph-name="parenright" unicode=")" horiz-adv-x="320" 
d="M95 -215h-79c110 137 154 318 154 479c0 159 -44 342 -154 479h79c110 -137 154 -320 154 -479c0 -161 -44 -342 -154 -479z" />
    <glyph glyph-name="asterisk" unicode="*" 
d="M10 557l24 71l134 -51l-7 144h76l-7 -144l134 51l24 -71l-140 -38l90 -112l-60 -44l-79 121l-79 -121l-60 44l90 112z" />
    <glyph glyph-name="plus" unicode="+" horiz-adv-x="672" 
d="M593 227h-221v-227h-74v227h-220v74h220v229h74v-229h221v-74z" />
    <glyph glyph-name="comma" unicode="," horiz-adv-x="229" 
d="M60 0v110h110v-60c0 -93 -32 -151 -54 -185h-55c24 37 35 83 40 135h-41z" />
    <glyph glyph-name="hyphen" unicode="-" horiz-adv-x="471" 
d="M400 224h-322v80h322v-80z" />
    <glyph glyph-name="period" unicode="." horiz-adv-x="229" 
d="M60 0v110h110v-110h-110z" />
    <glyph glyph-name="slash" unicode="/" horiz-adv-x="359" 
d="M263 720h80l-284 -834h-79z" />
    <glyph glyph-name="zero" unicode="0" horiz-adv-x="562" 
d="M36 345c0 262 128 359 247 359c114 0 243 -83 243 -355c0 -302 -148 -371 -244 -371c-114 0 -246 81 -246 367zM441 345c0 192 -59 285 -160 285c-86 0 -159 -77 -159 -282c0 -213 65 -296 162 -296c81 0 157 77 157 293z" />
    <glyph glyph-name="one" unicode="1" horiz-adv-x="562" 
d="M242 0v606h-92v76h174v-682h-82z" />
    <glyph glyph-name="two" unicode="2" horiz-adv-x="562" 
d="M82 0v76l219 243c61 68 102 127 102 197c0 63 -40 114 -115 114c-63 0 -115 -45 -115 -120h-87c4 115 92 194 204 194c133 0 199 -87 199 -180c0 -97 -56 -170 -129 -251l-179 -197h320v-76h-419z" />
    <glyph glyph-name="three" unicode="3" horiz-adv-x="562" 
d="M179 533h-85c8 79 69 171 202 171c118 0 194 -76 194 -174c0 -84 -61 -137 -127 -155v-2c83 -12 152 -75 152 -183c0 -111 -73 -211 -220 -211c-137 0 -210 86 -220 187h88c11 -65 58 -113 137 -113c77 0 130 61 130 135c0 72 -43 140 -157 141h-38v76h33
c79 0 136 44 136 121c0 50 -32 104 -109 104c-79 0 -111 -50 -116 -97z" />
    <glyph glyph-name="four" unicode="4" horiz-adv-x="562" 
d="M522 164h-87v-164h-82v164h-314v71l318 447h78v-442h87v-76zM304 491l-177 -251h226v247c0 40 0 48 1 76h-3c-12 -22 -18 -31 -47 -72z" />
    <glyph glyph-name="five" unicode="5" horiz-adv-x="562" 
d="M200 606l-19 -181c29 8 62 11 90 11c143 0 242 -81 242 -220c0 -110 -77 -238 -234 -238c-138 0 -219 87 -229 188h88c10 -59 54 -113 144 -113c79 0 145 60 145 151c0 101 -59 156 -169 156c-45 0 -114 -12 -165 -27l33 349h340v-76h-266z" />
    <glyph glyph-name="six" unicode="6" horiz-adv-x="562" 
d="M32 223c0 77 30 135 72 193l193 266h92l-168 -227c18 8 49 12 77 12c133 0 231 -109 231 -244s-109 -245 -249 -245c-141 0 -248 103 -248 245zM118 222c0 -97 69 -170 162 -170c94 0 163 73 163 170c0 95 -64 172 -163 172c-97 0 -162 -72 -162 -172z" />
    <glyph glyph-name="seven" unicode="7" horiz-adv-x="562" 
d="M501 682v-70l-296 -612h-90l299 606h-332v76h419z" />
    <glyph glyph-name="eight" unicode="8" horiz-adv-x="562" 
d="M164 517c0 -70 56 -118 116 -118c71 0 118 48 118 118c0 68 -49 111 -117 111c-63 0 -117 -43 -117 -111zM142 188c0 -78 57 -135 140 -135c80 0 138 45 138 135c0 81 -57 137 -137 137c-82 0 -141 -57 -141 -137zM505 187c0 -111 -72 -208 -223 -208s-225 97 -225 203
c0 95 48 152 125 182v2c-68 28 -104 83 -104 156c0 98 81 182 204 182c122 0 202 -84 202 -182c0 -78 -42 -135 -101 -156v-2c81 -29 122 -93 122 -177z" />
    <glyph glyph-name="nine" unicode="9" horiz-adv-x="562" 
d="M530 459c0 -77 -30 -135 -72 -193l-193 -266h-92l168 227c-18 -8 -49 -12 -77 -12c-133 0 -231 109 -231 244s109 245 249 245c141 0 248 -103 248 -245zM444 460c0 97 -69 170 -162 170c-94 0 -163 -73 -163 -170c0 -95 64 -172 163 -172c97 0 162 72 162 172z" />
    <glyph glyph-name="colon" unicode=":" horiz-adv-x="229" 
d="M60 352v110h110v-110h-110zM60 0v110h110v-110h-110z" />
    <glyph glyph-name="semicolon" unicode=";" horiz-adv-x="229" 
d="M60 0v110h110v-60c0 -93 -32 -151 -54 -185h-55c24 37 35 83 40 135h-41zM60 352v110h110v-110h-110z" />
    <glyph glyph-name="less" unicode="&#x3c;" horiz-adv-x="672" 
d="M592 0l-513 234v63l513 233v-82l-410 -182v-2l410 -181v-83z" />
    <glyph glyph-name="equal" unicode="=" horiz-adv-x="672" 
d="M595 343h-519v73h519v-73zM595 114h-519v74h519v-74z" />
    <glyph glyph-name="greater" unicode="&#x3e;" horiz-adv-x="672" 
d="M592 233l-513 -233v83l410 180v3l-410 182v82l513 -234v-63z" />
    <glyph glyph-name="question" unicode="?" horiz-adv-x="435" 
d="M313 322c-42 -42 -58 -76 -58 -133h-73c0 73 9 115 56 169c56 64 95 94 95 158c0 63 -41 114 -116 114c-62 0 -114 -45 -114 -120h-87c3 115 91 194 204 194c133 0 199 -87 199 -180c0 -97 -61 -157 -106 -202zM174 0v88h88v-88h-88z" />
    <glyph glyph-name="at" unicode="@" horiz-adv-x="949" 
d="M879 356c0 -156 -84 -266 -190 -266c-65 0 -107 33 -113 87h-5c-29 -52 -91 -87 -141 -87c-95 0 -157 77 -157 189c0 127 81 245 201 245c51 0 96 -28 122 -74h1l11 63h67l-40 -259c-2 -13 -4 -31 -4 -47c0 -35 19 -61 64 -61c65 0 114 87 114 205
c0 183 -114 297 -326 297c-207 0 -344 -165 -344 -360c0 -193 130 -323 338 -323c82 0 158 15 202 36l22 -49c-55 -27 -136 -43 -232 -43c-235 0 -400 148 -400 380c0 230 169 415 418 415c286 0 392 -181 392 -348zM581 341c0 79 -36 127 -101 127
c-92 0 -137 -99 -137 -191c0 -77 36 -131 99 -131c85 0 139 103 139 195z" />
    <glyph glyph-name="A" unicode="A" horiz-adv-x="636" 
d="M7 0l278 682h74l270 -682h-91l-70 184h-302l-71 -184h-88zM268 449l-74 -191h246l-72 192c-14 37 -35 98 -47 138h-4c-13 -42 -34 -100 -49 -139z" />
    <glyph glyph-name="B" unicode="B" horiz-adv-x="540" 
d="M74 0v682h151c141 0 223 -68 223 -174c0 -79 -52 -124 -111 -145v-2c107 -11 160 -86 160 -173c0 -129 -101 -188 -227 -188h-196zM411 194c0 75 -53 121 -149 121h-105v-239h119c92 0 135 48 135 118zM363 501c0 74 -60 105 -138 105h-68v-215h74c82 0 132 45 132 110z
" />
    <glyph glyph-name="C" unicode="C" horiz-adv-x="764" 
d="M390 704c188 0 276 -110 313 -197h-94c-33 70 -108 123 -220 123c-136 0 -265 -100 -265 -288c0 -163 112 -290 270 -290c112 0 189 55 225 136h94c-59 -125 -156 -210 -323 -210c-210 0 -352 156 -352 365s153 361 352 361z" />
    <glyph glyph-name="D" unicode="D" horiz-adv-x="705" 
d="M74 682h221c246 0 372 -155 372 -341c0 -185 -134 -341 -374 -341h-219v682zM157 76h141c189 0 283 120 283 265c0 156 -101 265 -283 265h-141v-530z" />
    <glyph glyph-name="E" unicode="E" horiz-adv-x="523" 
d="M448 682v-76h-291v-215h280v-76h-280v-239h302v-76h-385v682h374z" />
    <glyph glyph-name="F" unicode="F" horiz-adv-x="495" 
d="M448 682v-76h-291v-226h280v-76h-280v-304h-83v682h374z" />
    <glyph glyph-name="G" unicode="G" horiz-adv-x="776" 
d="M358 364h380v-9c0 -216 -133 -377 -347 -377c-211 0 -353 172 -353 363c0 198 151 363 354 363c168 0 276 -85 322 -198h-92c-35 73 -117 124 -230 124c-167 0 -268 -131 -268 -285c0 -178 119 -293 274 -293c139 0 240 101 252 236h-292v76z" />
    <glyph glyph-name="H" unicode="H" horiz-adv-x="689" 
d="M532 0v315h-375v-315h-83v682h83v-291h375v291h83v-682h-83z" />
    <glyph glyph-name="I" unicode="I" horiz-adv-x="231" 
d="M74 0v682h83v-682h-83z" />
    <glyph glyph-name="J" unicode="J" horiz-adv-x="345" 
d="M200 175v507h82v-506c0 -141 -66 -196 -170 -196c-33 0 -75 9 -98 20v74c23 -11 65 -20 90 -20c64 0 96 30 96 121z" />
    <glyph glyph-name="K" unicode="K" horiz-adv-x="597" 
d="M498 0l-270 330c-24 -25 -47 -49 -71 -74v-256h-83v682h83v-320l307 320h110l-286 -291l320 -391h-110z" />
    <glyph glyph-name="L" unicode="L" horiz-adv-x="473" 
d="M74 0v682h83v-606h302v-76h-385z" />
    <glyph glyph-name="M" unicode="M" horiz-adv-x="815" 
d="M698 682l75 -682h-81l-39 398c-5 54 -12 133 -16 181h-3c-16 -53 -40 -127 -58 -182l-133 -397h-72l-133 408c-17 52 -41 118 -55 171h-4c-4 -55 -9 -116 -15 -170l-42 -409h-80l79 682h101l148 -439c12 -35 28 -88 37 -125h4c9 37 26 90 38 125l149 439h100z" />
    <glyph glyph-name="N" unicode="N" horiz-adv-x="670" 
d="M152 551h-2c1 -37 2 -107 2 -143v-408h-78v682h78l222 -328c79 -117 122 -183 144 -224h2c-2 39 -2 109 -2 145v407h78v-682h-78l-222 328c-92 136 -122 182 -144 223z" />
    <glyph glyph-name="O" unicode="O" horiz-adv-x="799" 
d="M124 341c0 -166 120 -289 275 -289c156 0 276 123 276 289c0 163 -112 289 -276 289c-155 0 -275 -122 -275 -289zM38 341c0 195 152 363 362 363c224 0 361 -172 361 -363c0 -200 -155 -363 -361 -363c-249 0 -362 194 -362 363z" />
    <glyph glyph-name="P" unicode="P" horiz-adv-x="540" 
d="M437 470c0 80 -47 136 -158 136h-122v-271h119c126 0 161 61 161 135zM74 0v682h198c146 0 250 -66 250 -210c0 -131 -78 -212 -257 -212h-108v-260h-83z" />
    <glyph glyph-name="Q" unicode="Q" horiz-adv-x="799" 
d="M663 -99l-97 117c-49 -26 -106 -40 -166 -40c-249 0 -362 194 -362 363c0 195 152 363 362 363c224 0 361 -172 361 -363c0 -111 -48 -210 -126 -277l92 -110zM124 341c0 -166 120 -289 275 -289c43 0 82 9 118 25l-92 111l64 53l97 -117c55 52 89 128 89 217
c0 163 -112 289 -276 289c-155 0 -275 -122 -275 -289z" />
    <glyph glyph-name="R" unicode="R" horiz-adv-x="565" 
d="M344 293l215 -293h-105l-206 285h-91v-285h-83v682h197c170 0 231 -106 231 -200c0 -97 -72 -172 -158 -189zM416 482c0 80 -48 124 -136 124h-123v-245h124c90 0 135 55 135 121z" />
    <glyph glyph-name="S" unicode="S" horiz-adv-x="545" 
d="M471 542h-89c-10 52 -50 90 -113 90c-70 0 -113 -44 -113 -103c0 -64 49 -97 129 -121c154 -46 203 -119 203 -224c0 -100 -73 -206 -214 -206c-114 0 -202 59 -231 186h91c18 -69 65 -114 141 -114c86 0 129 67 129 129c0 77 -48 121 -146 151c-125 38 -186 98 -186 199
c0 97 81 175 197 175c112 0 188 -72 202 -162z" />
    <glyph glyph-name="T" unicode="T" horiz-adv-x="469" 
d="M193 0v606h-179v76h441v-76h-179v-606h-83z" />
    <glyph glyph-name="U" unicode="U" horiz-adv-x="625" 
d="M313 -22c-123 0 -249 76 -249 294v410h83v-422c0 -121 61 -208 166 -208c119 0 166 87 166 208v422h82v-408c0 -218 -113 -296 -248 -296z" />
    <glyph glyph-name="V" unicode="V" horiz-adv-x="598" 
d="M593 682l-255 -682h-78l-255 682h90l161 -456c13 -38 31 -91 44 -131h2c13 42 31 92 45 132l163 455h83z" />
    <glyph glyph-name="W" unicode="W" horiz-adv-x="833" 
d="M557 0l-107 434c-15 62 -22 96 -27 145h-4c-7 -49 -12 -77 -28 -142l-106 -437h-83l-186 682h85l112 -440c17 -66 22 -91 30 -133h4c8 43 14 89 27 142l107 431h82l107 -438c14 -57 21 -94 27 -135h4c8 53 19 106 26 134l105 439h85l-171 -682h-89z" />
    <glyph glyph-name="X" unicode="X" horiz-adv-x="564" 
d="M115 682l121 -187c19 -29 33 -52 48 -78h3c16 29 30 52 48 80l119 185h91l-218 -326l228 -356h-97l-122 196c-19 30 -37 61 -56 91h-2l-57 -93l-120 -194h-92l227 352l-219 330h98z" />
    <glyph glyph-name="Y" unicode="Y" horiz-adv-x="532" 
d="M226 0v278l-214 404h93l130 -250c15 -29 26 -52 36 -79h2c12 28 23 47 38 78l124 251h86l-212 -403v-279h-83z" />
    <glyph glyph-name="Z" unicode="Z" horiz-adv-x="601" 
d="M58 606v76h485v-72l-403 -534h419v-76h-518v71l403 535h-386z" />
    <glyph glyph-name="bracketleft" unicode="[" horiz-adv-x="353" 
d="M281 728v-70h-106v-788h106v-70h-182v928h182z" />
    <glyph glyph-name="backslash" unicode="\" horiz-adv-x="404" 
d="M398 -114h-80l-313 834h79z" />
    <glyph glyph-name="bracketright" unicode="]" horiz-adv-x="353" 
d="M72 658v70h182v-928h-182v70h106v788h-106z" />
    <glyph glyph-name="asciicircum" unicode="^" horiz-adv-x="672" 
d="M608 326h-86l-185 298h-3l-184 -298h-86l236 378h72z" />
    <glyph glyph-name="underscore" unicode="_" horiz-adv-x="550" 
d="M0 -238v74h550v-74h-550z" />
    <glyph glyph-name="grave" unicode="`" horiz-adv-x="328" 
d="M43 695l58 55l132 -150l-44 -42z" />
    <glyph glyph-name="a" unicode="a" horiz-adv-x="607" 
d="M538 479v-479h-79v64h-2c-35 -42 -94 -81 -175 -81c-130 0 -246 101 -246 257c0 148 108 255 251 255c87 0 138 -46 171 -85h1v69h79zM118 240c0 -92 57 -187 175 -187c90 0 173 76 173 184c0 114 -77 189 -171 189c-120 0 -177 -94 -177 -186z" />
    <glyph glyph-name="b" unicode="b" horiz-adv-x="607" 
d="M69 0v720h79v-309h2c32 38 83 84 180 84c135 0 241 -110 241 -255c0 -156 -116 -257 -239 -257c-87 0 -147 39 -182 81h-2v-64h-79zM489 240c0 93 -58 186 -176 186c-96 0 -172 -75 -172 -189c0 -109 82 -184 174 -184c116 0 174 95 174 187z" />
    <glyph glyph-name="c" unicode="c" horiz-adv-x="543" 
d="M288 495c137 0 200 -84 216 -139h-88c-19 40 -61 70 -128 70c-91 0 -170 -62 -170 -186c0 -108 74 -187 175 -187c75 0 111 39 130 79h88c-25 -71 -89 -149 -219 -149c-148 0 -256 106 -256 258c0 140 98 254 252 254z" />
    <glyph glyph-name="d" unicode="d" horiz-adv-x="607" 
d="M538 720v-720h-79v64h-2c-35 -42 -94 -81 -179 -81c-130 0 -242 101 -242 257c0 145 103 255 242 255c90 0 138 -36 179 -84h2v309h79zM118 240c0 -92 59 -187 174 -187c93 0 174 75 174 184c0 114 -76 189 -172 189c-117 0 -176 -93 -176 -186z" />
    <glyph glyph-name="e" unicode="e" horiz-adv-x="547" 
d="M274 495c174 -1 237 -144 237 -249c0 -9 -1 -24 -2 -29h-391c0 -87 80 -164 170 -164c57 0 92 21 123 58h91c-32 -60 -99 -128 -212 -128c-152 0 -254 114 -254 263c0 132 93 249 238 249zM274 426c-91 0 -148 -70 -155 -143h309c-8 75 -67 143 -154 143z" />
    <glyph glyph-name="f" unicode="f" horiz-adv-x="299" 
d="M28 413v66h69v86c0 102 52 160 151 160c20 0 41 -3 59 -8v-66c-18 6 -34 8 -54 8c-52 0 -76 -34 -76 -85v-95h110v-66h-110v-413h-80v413h-69z" />
    <glyph glyph-name="g" unicode="g" horiz-adv-x="607" 
d="M538 479v-464c0 -173 -80 -272 -247 -272c-133 0 -216 74 -236 183h80c17 -64 61 -114 159 -114c107 0 165 70 165 193v61h-2c-35 -43 -94 -83 -175 -83c-131 0 -246 101 -246 257c0 148 105 255 245 255c91 0 146 -48 176 -85h2v69h79zM117 240c0 -92 60 -187 175 -187
c93 0 174 76 174 184c0 114 -76 189 -172 189c-117 0 -177 -94 -177 -186z" />
    <glyph glyph-name="h" unicode="h" horiz-adv-x="548" 
d="M69 0v720h79v-301h2c45 57 99 76 151 76c87 0 189 -53 189 -216v-279h-79v275c0 96 -47 149 -122 149c-86 0 -141 -57 -141 -168v-256h-79z" />
    <glyph glyph-name="i" unicode="i" horiz-adv-x="217" 
d="M69 0v479h79v-479h-79zM60 594v93h98v-93h-98z" />
    <glyph glyph-name="j" unicode="j" horiz-adv-x="217" 
d="M148 479v-540c0 -131 -61 -190 -157 -190c-39 0 -66 8 -86 15v66c14 -5 46 -15 79 -15c54 0 85 34 85 117v547h79zM60 594v93h98v-93h-98z" />
    <glyph glyph-name="k" unicode="k" horiz-adv-x="470" 
d="M381 0l-187 228l-46 -45v-183h-79v720h79v-443l200 202h98l-197 -196l231 -283h-99z" />
    <glyph glyph-name="l" unicode="l" horiz-adv-x="217" 
d="M69 0v720h79v-720h-79z" />
    <glyph glyph-name="m" unicode="m" horiz-adv-x="860" 
d="M69 0v479h79v-60h2c32 43 81 76 143 76c75 0 136 -43 156 -99c24 48 82 99 165 99c108 0 183 -75 183 -216v-279h-79v285c0 74 -34 139 -115 139c-67 0 -130 -48 -130 -158v-266h-80v285c0 79 -43 139 -114 139c-80 0 -131 -58 -131 -158v-266h-79z" />
    <glyph glyph-name="n" unicode="n" horiz-adv-x="553" 
d="M69 0v479h79v-60h2c44 57 99 76 151 76c87 0 189 -54 189 -216v-279h-79v274c0 97 -47 150 -122 150c-86 0 -141 -58 -141 -169v-255h-79z" />
    <glyph glyph-name="o" unicode="o" horiz-adv-x="584" 
d="M36 240c0 148 112 255 256 255c149 0 256 -110 256 -255c0 -141 -108 -257 -256 -257c-145 0 -256 112 -256 257zM118 240c0 -108 82 -185 174 -185c101 0 174 80 174 185c0 101 -69 184 -174 184c-102 0 -174 -78 -174 -184z" />
    <glyph glyph-name="p" unicode="p" horiz-adv-x="607" 
d="M69 -235v714h79v-68h2c32 38 83 84 180 84c153 0 241 -125 241 -255c0 -145 -104 -257 -244 -257c-82 0 -142 39 -177 81h-2v-299h-79zM489 240c0 93 -58 186 -176 186c-96 0 -172 -75 -172 -189c0 -109 82 -184 174 -184c116 0 174 95 174 187z" />
    <glyph glyph-name="q" unicode="q" horiz-adv-x="607" 
d="M538 479v-714h-79v299h-2c-35 -42 -94 -81 -175 -81c-130 0 -246 101 -246 257c0 145 106 255 252 255c87 0 137 -46 169 -84h2v68h79zM118 240c0 -92 59 -187 174 -187c93 0 174 75 174 184c0 114 -76 189 -172 189c-117 0 -176 -93 -176 -186z" />
    <glyph glyph-name="r" unicode="r" horiz-adv-x="342" 
d="M317 492v-73c-12 2 -25 5 -46 5c-69 0 -123 -49 -123 -170v-254h-79v479h79v-60h2c16 32 64 76 127 76c17 0 29 -1 40 -3z" />
    <glyph glyph-name="s" unicode="s" horiz-adv-x="425" 
d="M374 364h-80c-8 37 -39 64 -77 64c-49 0 -76 -29 -76 -64c0 -30 14 -55 101 -83c106 -34 139 -89 139 -153c0 -88 -64 -145 -162 -145c-106 0 -159 62 -174 145h80c9 -42 38 -77 97 -77c53 0 80 31 80 71c0 41 -18 68 -107 97c-90 29 -132 74 -132 146
c0 70 52 130 150 130s145 -60 161 -131z" />
    <glyph glyph-name="t" unicode="t" horiz-adv-x="320" 
d="M17 413v66h63v153h79v-153h128v-66h-128v-253c0 -78 24 -99 75 -99c20 0 40 3 58 8v-65c-21 -7 -46 -10 -74 -10c-116 0 -138 78 -138 169v250h-63z" />
    <glyph glyph-name="u" unicode="u" horiz-adv-x="540" 
d="M471 479v-479h-79v59h-2c-42 -57 -95 -76 -145 -76c-84 0 -182 54 -182 216v280h79v-274c0 -97 46 -150 116 -150c82 0 134 57 134 168v256h79z" />
    <glyph glyph-name="v" unicode="v" horiz-adv-x="432" 
d="M430 479l-177 -479h-75l-177 479h81l100 -279c14 -38 28 -85 33 -111h4c8 34 20 76 32 111l99 279h80z" />
    <glyph glyph-name="w" unicode="w" horiz-adv-x="690" 
d="M437 0l-70 283c-9 38 -15 69 -21 104h-4c-5 -35 -12 -77 -24 -124l-64 -263h-103l-126 479h80l75 -316c11 -48 14 -63 20 -95h4c6 31 14 63 23 100l75 311h86l78 -315c10 -41 15 -66 21 -96h3c5 37 13 75 18 95l77 316h79l-126 -479h-101z" />
    <glyph glyph-name="x" unicode="x" horiz-adv-x="485" 
d="M23 0l177 246l-166 233h92l85 -120c15 -22 23 -37 32 -50h2c11 16 22 31 33 47l83 123h91l-167 -231l178 -248h-93l-93 133c-12 17 -23 33 -35 50h-3l-36 -51l-90 -132h-90z" />
    <glyph glyph-name="y" unicode="y" horiz-adv-x="432" 
d="M430 479l-264 -714h-76l87 235l-176 479h81l101 -279c9 -23 27 -75 32 -101h2c11 34 21 66 33 101l100 279h80z" />
    <glyph glyph-name="z" unicode="z" horiz-adv-x="482" 
d="M53 413v66h376v-62l-288 -350h300v-67h-400v63l289 350h-277z" />
    <glyph glyph-name="braceleft" unicode="{" horiz-adv-x="380" 
d="M306 741v-58c-48 -2 -63 -34 -63 -83v-208c0 -52 -22 -104 -79 -129v-2c50 -20 79 -71 79 -141v-195c0 -49 15 -80 63 -82v-58c-89 1 -142 57 -142 158v209c0 45 -29 79 -83 85v51c54 6 83 40 83 84v210c0 101 53 157 142 159z" />
    <glyph glyph-name="bar" unicode="|" horiz-adv-x="380" 
d="M225 -210h-72v1000h72v-1000z" />
    <glyph glyph-name="braceright" unicode="}" horiz-adv-x="380" 
d="M74 683v58c89 -2 142 -58 142 -159v-210c0 -44 29 -78 83 -84v-51c-54 -6 -83 -40 -83 -85v-209c0 -101 -53 -157 -142 -158v58c48 2 63 33 63 82v195c0 70 29 121 79 141v2c-57 25 -79 77 -79 129v208c0 49 -15 81 -63 83z" />
    <glyph glyph-name="asciitilde" unicode="~" horiz-adv-x="672" 
d="M614 293c-43 -68 -89 -103 -162 -103c-42 0 -86 15 -125 37s-68 39 -107 39c-48 0 -77 -25 -110 -73l-52 37c41 67 92 104 160 104c49 0 94 -21 125 -38c33 -19 72 -39 109 -39c47 0 84 32 109 73z" />
    <glyph glyph-name="uni00A0" unicode="&#xa0;" horiz-adv-x="250" 
 />
    <glyph glyph-name="Agrave" unicode="&#xc0;" horiz-adv-x="636" 
d="M12 0l278 682h74l270 -682h-91l-70 184h-302l-71 -184h-88zM273 449l-74 -191h246l-72 192c-14 37 -35 98 -47 138h-4c-13 -42 -34 -100 -49 -139zM199 819l38 71l173 -100l-29 -54z" />
    <glyph glyph-name="Aacute" unicode="&#xc1;" horiz-adv-x="636" 
d="M12 0l278 682h74l270 -682h-91l-70 184h-302l-71 -184h-88zM273 449l-74 -191h246l-72 192c-14 37 -35 98 -47 138h-4c-13 -42 -34 -100 -49 -139zM413 890l38 -71l-182 -83l-29 54z" />
    <glyph glyph-name="Acircumflex" unicode="&#xc2;" horiz-adv-x="636" 
d="M12 0l278 682h74l270 -682h-91l-70 184h-302l-71 -184h-88zM273 449l-74 -191h246l-72 192c-14 37 -35 98 -47 138h-4c-13 -42 -34 -100 -49 -139zM325 885l140 -98l-27 -49l-113 58l-113 -58l-27 49z" />
    <glyph glyph-name="Atilde" unicode="&#xc3;" horiz-adv-x="636" 
d="M12 0l278 682h74l270 -682h-91l-70 184h-302l-71 -184h-88zM273 449l-74 -191h246l-72 192c-14 37 -35 98 -47 138h-4c-13 -42 -34 -100 -49 -139zM225 773h-60c3 62 27 116 93 116c32 0 51 -12 76 -33c22 -18 42 -30 60 -30s30 13 31 55h60c-3 -70 -29 -116 -95 -116
c-29 0 -56 11 -81 32c-27 22 -40 31 -53 31c-19 0 -29 -19 -31 -55z" />
    <glyph glyph-name="Adieresis" unicode="&#xc4;" horiz-adv-x="636" 
d="M12 0l278 682h74l270 -682h-91l-70 184h-302l-71 -184h-88zM273 449l-74 -191h246l-72 192c-14 37 -35 98 -47 138h-4c-13 -42 -34 -100 -49 -139zM192 776v88h92v-88h-92zM366 776v88h92v-88h-92z" />
    <glyph glyph-name="Amacron" unicode="&#x100;" horiz-adv-x="636" 
d="M7 0l278 682h74l270 -682h-91l-70 184h-302l-71 -184h-88zM268 449l-74 -191h246l-72 192c-14 37 -35 98 -47 138h-4c-13 -42 -34 -100 -49 -139zM465 784h-268v65h268v-65z" />
    <glyph glyph-name="Abreve" unicode="&#x102;" horiz-adv-x="636" 
d="M7 0l278 682h74l270 -682h-91l-70 184h-302l-71 -184h-88zM268 449l-74 -191h246l-72 192c-14 37 -35 98 -47 138h-4c-13 -42 -34 -100 -49 -139zM412 879h66c-4 -77 -65 -132 -156 -132c-102 0 -153 61 -156 132h66c2 -39 34 -65 90 -65c59 0 88 30 90 65z" />
    <glyph glyph-name="Aring" unicode="&#xc5;" horiz-adv-x="636" 
d="M12 0l278 682h74l270 -682h-91l-70 184h-302l-71 -184h-88zM273 449l-74 -191h246l-72 192c-14 37 -35 98 -47 138h-4c-13 -42 -34 -100 -49 -139zM258 838c0 -37 31 -68 68 -68s66 31 66 68s-29 66 -66 66s-68 -29 -68 -66zM203 838c0 67 54 121 123 121
c67 0 121 -54 121 -121c0 -68 -54 -123 -121 -123c-69 0 -123 55 -123 123z" />
    <glyph glyph-name="Aogonek" unicode="&#x104;" horiz-adv-x="636" 
d="M637 -143v-65c-16 -4 -31 -7 -51 -7c-83 0 -115 48 -115 105c0 47 26 85 70 110h-3l-70 184h-302l-71 -184h-88l278 682h74l270 -682h-3c-42 0 -81 -44 -81 -98c0 -34 21 -49 50 -49c13 0 26 1 42 4zM268 449l-74 -191h246l-72 192c-14 37 -35 99 -47 138h-4
c-13 -42 -34 -100 -49 -139z" />
    <glyph glyph-name="AE" unicode="&#xc6;" horiz-adv-x="863" 
d="M788 682v-76h-269v-215h258v-76h-258v-239h280v-76h-363v184h-251l-98 -184h-92l375 682h418zM413 606l-189 -348h212v348h-23z" />
    <glyph glyph-name="Cacute" unicode="&#x106;" horiz-adv-x="764" 
d="M390 704c188 0 276 -110 313 -197h-94c-33 70 -108 123 -220 123c-136 0 -265 -100 -265 -288c0 -163 112 -290 270 -290c112 0 189 55 225 136h94c-59 -125 -156 -210 -323 -210c-210 0 -352 156 -352 365s153 361 352 361zM477 890l38 -71l-182 -83l-29 54z" />
    <glyph glyph-name="Ccircumflex" unicode="&#x108;" horiz-adv-x="764" 
d="M390 704c188 0 276 -110 313 -197h-94c-33 70 -108 123 -220 123c-136 0 -265 -100 -265 -288c0 -163 112 -290 270 -290c112 0 189 55 225 136h94c-59 -125 -156 -210 -323 -210c-210 0 -352 156 -352 365s153 361 352 361zM389 885l140 -98l-27 -49l-113 58l-113 -58
l-27 49z" />
    <glyph glyph-name="Ccaron" unicode="&#x10c;" horiz-adv-x="764" 
d="M390 704c188 0 276 -110 313 -197h-94c-33 70 -108 123 -220 123c-136 0 -265 -100 -265 -288c0 -163 112 -290 270 -290c112 0 189 55 225 136h94c-59 -125 -156 -210 -323 -210c-210 0 -352 156 -352 365s153 361 352 361zM389 738l-140 98l27 49l113 -58l113 58
l27 -49z" />
    <glyph glyph-name="Cdotaccent" unicode="&#x10a;" horiz-adv-x="764" 
d="M390 704c188 0 276 -110 313 -197h-94c-33 70 -108 123 -220 123c-136 0 -265 -100 -265 -288c0 -163 112 -290 270 -290c112 0 189 55 225 136h94c-59 -125 -156 -210 -323 -210c-210 0 -352 156 -352 365s153 361 352 361zM342 776v89h94v-89h-94z" />
    <glyph glyph-name="Ccedilla" unicode="&#xc7;" horiz-adv-x="764" 
d="M390 704c188 0 276 -110 313 -197h-94c-33 70 -108 123 -220 123c-136 0 -265 -100 -265 -288c0 -163 112 -290 270 -290c112 0 189 55 225 136h94c-56 -118 -145 -200 -295 -209l-7 -18c48 -10 80 -46 80 -93c0 -60 -40 -103 -114 -103c-37 0 -71 6 -98 15l20 56
c14 -6 45 -11 67 -11c34 0 57 12 57 39c0 31 -29 47 -95 47l28 69c-191 15 -318 165 -318 363c0 209 153 361 352 361z" />
    <glyph glyph-name="Dcaron" unicode="&#x10e;" horiz-adv-x="705" 
d="M74 682h221c246 0 372 -155 372 -341c0 -185 -134 -341 -374 -341h-219v682zM157 76h141c189 0 283 120 283 265c0 156 -101 265 -283 265h-141v-530zM298 738l-140 98l27 49l113 -58l113 58l27 -49z" />
    <glyph glyph-name="Dcroat" unicode="&#x110;" horiz-adv-x="727" 
d="M15 316v76h81v290h221c246 0 372 -155 372 -341c0 -185 -134 -341 -374 -341h-219v316h-81zM179 76h141c189 0 283 120 283 265c0 156 -101 265 -283 265h-141v-214h198v-76h-198v-240z" />
    <glyph glyph-name="Eth" unicode="&#xd0;" horiz-adv-x="727" 
d="M15 316v76h81v290h221c246 0 372 -155 372 -341c0 -185 -134 -341 -374 -341h-219v316h-81zM179 76h141c189 0 283 120 283 265c0 156 -101 265 -283 265h-141v-214h198v-76h-198v-240z" />
    <glyph glyph-name="Egrave" unicode="&#xc8;" horiz-adv-x="523" 
d="M453 682v-76h-291v-215h280v-76h-280v-239h302v-76h-385v682h374zM140 819l38 71l173 -100l-29 -54z" />
    <glyph glyph-name="Eacute" unicode="&#xc9;" horiz-adv-x="523" 
d="M453 682v-76h-291v-215h280v-76h-280v-239h302v-76h-385v682h374zM354 890l38 -71l-182 -83l-29 54z" />
    <glyph glyph-name="Ecircumflex" unicode="&#xca;" horiz-adv-x="523" 
d="M453 682v-76h-291v-215h280v-76h-280v-239h302v-76h-385v682h374zM266 885l140 -98l-27 -49l-113 58l-113 -58l-27 49z" />
    <glyph glyph-name="Ecaron" unicode="&#x11a;" horiz-adv-x="523" 
d="M448 682v-76h-291v-215h280v-76h-280v-239h302v-76h-385v682h374zM261 738l-140 98l27 49l113 -58l113 58l27 -49z" />
    <glyph glyph-name="Edieresis" unicode="&#xcb;" horiz-adv-x="523" 
d="M453 682v-76h-291v-215h280v-76h-280v-239h302v-76h-385v682h374zM133 776v88h92v-88h-92zM307 776v88h92v-88h-92z" />
    <glyph glyph-name="Emacron" unicode="&#x112;" horiz-adv-x="523" 
d="M448 682v-76h-291v-215h280v-76h-280v-239h302v-76h-385v682h374zM406 784h-268v65h268v-65z" />
    <glyph glyph-name="Ebreve" unicode="&#x114;" horiz-adv-x="523" 
d="M448 682v-76h-291v-215h280v-76h-280v-239h302v-76h-385v682h374zM351 879h66c-4 -77 -65 -132 -156 -132c-102 0 -153 61 -156 132h66c2 -39 34 -65 90 -65c59 0 88 30 90 65z" />
    <glyph glyph-name="Edotaccent" unicode="&#x116;" horiz-adv-x="523" 
d="M448 682v-76h-291v-215h280v-76h-280v-239h302v-76h-385v682h374zM214 776v89h94v-89h-94z" />
    <glyph glyph-name="Eogonek" unicode="&#x118;" horiz-adv-x="523" 
d="M437 -143v-65c-16 -4 -31 -7 -51 -7c-83 0 -115 48 -115 105c0 37 23 84 70 110h-267v682h374v-76h-291v-215h280v-76h-280v-239h302v-76h-28c-43 0 -86 -41 -86 -98c0 -34 21 -49 50 -49c13 0 26 1 42 4z" />
    <glyph glyph-name="Gcircumflex" unicode="&#x11c;" horiz-adv-x="776" 
d="M358 364h380v-9c0 -216 -133 -377 -347 -377c-211 0 -353 172 -353 363c0 198 151 363 354 363c168 0 276 -85 322 -198h-92c-35 73 -117 124 -230 124c-167 0 -268 -131 -268 -285c0 -178 119 -293 274 -293c139 0 240 101 252 236h-292v76zM393 885l140 -98l-27 -49
l-113 58l-113 -58l-27 49z" />
    <glyph glyph-name="Gbreve" unicode="&#x11e;" horiz-adv-x="776" 
d="M358 364h380v-9c0 -216 -133 -377 -347 -377c-211 0 -353 172 -353 363c0 198 151 363 354 363c168 0 276 -85 322 -198h-92c-35 73 -117 124 -230 124c-167 0 -268 -131 -268 -285c0 -178 119 -293 274 -293c139 0 240 101 252 236h-292v76zM483 879h66
c-4 -77 -65 -132 -156 -132c-102 0 -153 61 -156 132h66c2 -39 34 -65 90 -65c59 0 88 30 90 65z" />
    <glyph glyph-name="Gdotaccent" unicode="&#x120;" horiz-adv-x="776" 
d="M358 364h380v-9c0 -216 -133 -377 -347 -377c-211 0 -353 172 -353 363c0 198 151 363 354 363c168 0 276 -85 322 -198h-92c-35 73 -117 124 -230 124c-167 0 -268 -131 -268 -285c0 -178 119 -293 274 -293c139 0 240 101 252 236h-292v76zM345 776v89h94v-89h-94z" />
    <glyph glyph-name="Gcommaaccent" unicode="&#x122;" horiz-adv-x="776" 
d="M358 364h380v-9c0 -216 -133 -377 -347 -377c-211 0 -353 172 -353 363c0 198 151 363 354 363c168 0 276 -85 322 -198h-92c-35 73 -117 124 -230 124c-167 0 -268 -131 -268 -285c0 -178 119 -293 274 -293c139 0 240 101 252 236h-292v76zM340 -151v83h92v-46
c0 -54 -17 -96 -29 -116h-49c14 20 23 54 24 79h-38z" />
    <glyph glyph-name="Hcircumflex" unicode="&#x124;" horiz-adv-x="689" 
d="M532 0v315h-375v-315h-83v682h83v-291h375v291h83v-682h-83zM344 885l140 -98l-27 -49l-113 58l-113 -58l-27 49z" />
    <glyph glyph-name="Hbar" unicode="&#x126;" horiz-adv-x="689" 
d="M679 522h-64v-522h-83v315h-375v-315h-83v522h-64v65h64v95h83v-95h375v95h83v-95h64v-65zM157 391h375v131h-375v-131z" />
    <glyph glyph-name="Igrave" unicode="&#xcc;" horiz-adv-x="231" 
d="M79 0v682h83v-682h-83zM-6 819l38 71l173 -100l-29 -54z" />
    <glyph glyph-name="Iacute" unicode="&#xcd;" horiz-adv-x="231" 
d="M79 0v682h83v-682h-83zM208 890l38 -71l-182 -83l-29 54z" />
    <glyph glyph-name="Icircumflex" unicode="&#xce;" horiz-adv-x="231" 
d="M79 0v682h83v-682h-83zM120 885l140 -98l-27 -49l-113 58l-113 -58l-27 49z" />
    <glyph glyph-name="Itilde" unicode="&#x128;" horiz-adv-x="231" 
d="M74 0v682h83v-682h-83zM15 773h-60c3 62 27 116 93 116c32 0 51 -12 76 -33c22 -18 42 -30 60 -30s30 13 31 55h60c-3 -70 -29 -116 -95 -116c-29 0 -56 11 -81 32c-27 22 -40 31 -53 31c-19 0 -29 -19 -31 -55z" />
    <glyph glyph-name="Idieresis" unicode="&#xcf;" horiz-adv-x="231" 
d="M79 0v682h83v-682h-83zM-13 776v88h92v-88h-92zM161 776v88h92v-88h-92z" />
    <glyph glyph-name="Imacron" unicode="&#x12a;" horiz-adv-x="231" 
d="M74 0v682h83v-682h-83zM260 784h-268v65h268v-65z" />
    <glyph glyph-name="Idotaccent" unicode="&#x130;" horiz-adv-x="231" 
d="M74 0v682h83v-682h-83zM68 776v89h94v-89h-94z" />
    <glyph glyph-name="Ibreve" unicode="&#x12c;" horiz-adv-x="231" 
d="M74 0v682h83v-682h-83zM205 879h66c-4 -77 -65 -132 -156 -132c-102 0 -153 61 -156 132h66c2 -39 34 -65 90 -65c59 0 88 30 90 65z" />
    <glyph glyph-name="Iogonek" unicode="&#x12e;" horiz-adv-x="231" 
d="M74 0v682h83v-682c-21 -5 -63 -38 -63 -98c0 -34 21 -49 50 -49c13 0 26 1 42 4v-65c-16 -4 -31 -7 -51 -7c-83 0 -115 48 -115 105c0 37 23 84 70 110h-16z" />
    <glyph glyph-name="Jcircumflex" unicode="&#x134;" horiz-adv-x="345" 
d="M200 175v507h82v-506c0 -141 -66 -196 -170 -196c-33 0 -75 9 -98 20v74c23 -11 65 -20 90 -20c64 0 96 30 96 121zM240 885l140 -98l-27 -49l-113 58l-113 -58l-27 49z" />
    <glyph glyph-name="Kcommaaccent" unicode="&#x136;" horiz-adv-x="597" 
d="M498 0l-270 330c-24 -25 -47 -49 -71 -74v-256h-83v682h83v-320l307 320h110l-286 -291l320 -391h-110zM260 -151v83h92v-46c0 -54 -17 -96 -29 -116h-49c14 20 23 54 24 79h-38z" />
    <glyph glyph-name="Lacute" unicode="&#x139;" horiz-adv-x="473" 
d="M74 0v682h83v-606h302v-76h-385zM203 890l38 -71l-182 -83l-29 54z" />
    <glyph glyph-name="Lcaron" unicode="&#x13d;" horiz-adv-x="473" 
d="M74 0v682h83v-606h302v-76h-385zM298 599v83h92v-46c0 -54 -17 -96 -29 -116h-49c14 20 23 54 24 79h-38z" />
    <glyph glyph-name="Lcommaaccent" unicode="&#x13b;" horiz-adv-x="473" 
d="M74 0v682h83v-606h302v-76h-385zM210 -151v83h92v-46c0 -54 -17 -96 -29 -116h-49c14 20 23 54 24 79h-38z" />
    <glyph glyph-name="Lslash" unicode="&#x141;" horiz-adv-x="473" 
d="M5 185v85l69 50v362h83v-306l121 89v-85l-121 -89v-215h302v-76h-385v235z" />
    <glyph glyph-name="Ldot" unicode="&#x13f;" horiz-adv-x="473" 
d="M74 0v682h83v-606h302v-76h-385zM302 313v89h94v-89h-94z" />
    <glyph glyph-name="Nacute" unicode="&#x143;" horiz-adv-x="670" 
d="M152 551h-2c1 -37 2 -107 2 -143v-408h-78v682h78l222 -328c79 -117 122 -183 144 -224h2c-2 39 -2 109 -2 145v407h78v-682h-78l-222 328c-92 136 -122 182 -144 223zM423 890l38 -71l-182 -83l-29 54z" />
    <glyph glyph-name="Ncaron" unicode="&#x147;" horiz-adv-x="670" 
d="M152 551h-2c1 -37 2 -107 2 -143v-408h-78v682h78l222 -328c79 -117 122 -183 144 -224h2c-2 39 -2 109 -2 145v407h78v-682h-78l-222 328c-92 136 -122 182 -144 223zM335 738l-140 98l27 49l113 -58l113 58l27 -49z" />
    <glyph glyph-name="Ntilde" unicode="&#xd1;" horiz-adv-x="670" 
d="M157 551h-2c1 -37 2 -107 2 -143v-408h-78v682h78l222 -328c79 -117 122 -183 144 -224h2c-2 39 -2 109 -2 145v407h78v-682h-78l-222 328c-92 136 -122 182 -144 223zM240 773h-60c3 62 27 116 93 116c32 0 51 -12 76 -33c22 -18 42 -30 60 -30s30 13 31 55h60
c-3 -70 -29 -116 -95 -116c-29 0 -56 11 -81 32c-27 22 -40 31 -53 31c-19 0 -29 -19 -31 -55z" />
    <glyph glyph-name="Ncommaaccent" unicode="&#x145;" horiz-adv-x="670" 
d="M152 551h-2c1 -37 2 -107 2 -143v-408h-78v682h78l222 -328c79 -117 122 -183 144 -224h2c-2 39 -2 109 -2 145v407h78v-682h-78l-222 328c-92 136 -122 182 -144 223zM282 -151v83h92v-46c0 -54 -17 -96 -29 -116h-49c14 20 23 54 24 79h-38z" />
    <glyph glyph-name="Eng" unicode="&#x14a;" horiz-adv-x="670" 
d="M152 551h-2c1 -37 2 -107 2 -143v-408h-78v682h78l222 -328c79 -117 122 -183 144 -224h2c-2 39 -2 109 -2 145v407h78v-713c0 -128 -60 -190 -156 -190c-39 0 -66 8 -86 15v66c14 -4 46 -15 79 -15c64 0 85 51 85 117v38l-222 328c-92 136 -122 182 -144 223z" />
    <glyph glyph-name="Ograve" unicode="&#xd2;" horiz-adv-x="799" 
d="M129 341c0 -166 120 -289 275 -289c156 0 276 123 276 289c0 163 -112 289 -276 289c-155 0 -275 -122 -275 -289zM43 341c0 195 152 363 362 363c224 0 361 -172 361 -363c0 -200 -155 -363 -361 -363c-249 0 -362 194 -362 363zM278 819l38 71l173 -100l-29 -54z" />
    <glyph glyph-name="Oacute" unicode="&#xd3;" horiz-adv-x="799" 
d="M129 341c0 -166 120 -289 275 -289c156 0 276 123 276 289c0 163 -112 289 -276 289c-155 0 -275 -122 -275 -289zM43 341c0 195 152 363 362 363c224 0 361 -172 361 -363c0 -200 -155 -363 -361 -363c-249 0 -362 194 -362 363zM492 890l38 -71l-182 -83l-29 54z" />
    <glyph glyph-name="Ocircumflex" unicode="&#xd4;" horiz-adv-x="799" 
d="M129 341c0 -166 120 -289 275 -289c156 0 276 123 276 289c0 163 -112 289 -276 289c-155 0 -275 -122 -275 -289zM43 341c0 195 152 363 362 363c224 0 361 -172 361 -363c0 -200 -155 -363 -361 -363c-249 0 -362 194 -362 363zM404 885l140 -98l-27 -49l-113 58
l-113 -58l-27 49z" />
    <glyph glyph-name="Otilde" unicode="&#xd5;" horiz-adv-x="799" 
d="M129 341c0 -166 120 -289 275 -289c156 0 276 123 276 289c0 163 -112 289 -276 289c-155 0 -275 -122 -275 -289zM43 341c0 195 152 363 362 363c224 0 361 -172 361 -363c0 -200 -155 -363 -361 -363c-249 0 -362 194 -362 363zM304 773h-60c3 62 27 116 93 116
c32 0 51 -12 76 -33c22 -18 42 -30 60 -30s30 13 31 55h60c-3 -70 -29 -116 -95 -116c-29 0 -56 11 -81 32c-27 22 -40 31 -53 31c-19 0 -29 -19 -31 -55z" />
    <glyph glyph-name="Odieresis" unicode="&#xd6;" horiz-adv-x="799" 
d="M129 341c0 -166 120 -289 275 -289c156 0 276 123 276 289c0 163 -112 289 -276 289c-155 0 -275 -122 -275 -289zM43 341c0 195 152 363 362 363c224 0 361 -172 361 -363c0 -200 -155 -363 -361 -363c-249 0 -362 194 -362 363zM271 776v88h92v-88h-92zM445 776v88h92
v-88h-92z" />
    <glyph glyph-name="Omacron" unicode="&#x14c;" horiz-adv-x="799" 
d="M124 341c0 -166 120 -289 275 -289c156 0 276 123 276 289c0 163 -112 289 -276 289c-155 0 -275 -122 -275 -289zM38 341c0 195 152 363 362 363c224 0 361 -172 361 -363c0 -200 -155 -363 -361 -363c-249 0 -362 194 -362 363zM544 784h-268v65h268v-65z" />
    <glyph glyph-name="Obreve" unicode="&#x14e;" horiz-adv-x="799" 
d="M124 341c0 -166 120 -289 275 -289c156 0 276 123 276 289c0 163 -112 289 -276 289c-155 0 -275 -122 -275 -289zM38 341c0 195 152 363 362 363c224 0 361 -172 361 -363c0 -200 -155 -363 -361 -363c-249 0 -362 194 -362 363zM489 879h66c-4 -77 -65 -132 -156 -132
c-102 0 -153 61 -156 132h66c2 -39 34 -65 90 -65c59 0 88 30 90 65z" />
    <glyph glyph-name="Ohungarumlaut" unicode="&#x150;" horiz-adv-x="799" 
d="M124 341c0 -166 120 -289 275 -289c156 0 276 123 276 289c0 163 -112 289 -276 289c-155 0 -275 -122 -275 -289zM38 341c0 195 152 363 362 363c224 0 361 -172 361 -363c0 -200 -155 -363 -361 -363c-249 0 -362 194 -362 363zM420 894l46 -66l-160 -101l-35 50z
M607 894l46 -66l-160 -101l-35 50z" />
    <glyph glyph-name="Oslash" unicode="&#xd8;" horiz-adv-x="799" 
d="M38 341c0 195 152 363 362 363c89 0 164 -28 222 -72l88 95l48 -45l-88 -95c59 -66 91 -154 91 -246c0 -200 -155 -363 -361 -363c-94 0 -168 27 -225 71l-89 -97l-49 44l90 98c-60 70 -89 161 -89 247zM124 341c0 -72 22 -136 60 -185l385 417c-46 36 -104 57 -170 57
c-155 0 -275 -122 -275 -289zM675 341c0 71 -22 136 -60 186l-384 -418c46 -36 104 -57 168 -57c156 0 276 123 276 289z" />
    <glyph glyph-name="OE" unicode="&#x152;" horiz-adv-x="1108" 
d="M1033 682v-76h-291v-215h280v-76h-280v-239h302v-76h-380v117c-62 -85 -151 -139 -264 -139c-249 0 -362 194 -362 363c0 195 152 363 362 363c120 0 205 -54 264 -136v114h369zM124 341c0 -166 120 -289 275 -289c152 0 270 123 270 289c0 163 -110 289 -270 289
c-155 0 -275 -122 -275 -289z" />
    <glyph glyph-name="Racute" unicode="&#x154;" horiz-adv-x="565" 
d="M344 293l215 -293h-105l-206 285h-91v-285h-83v682h197c170 0 231 -106 231 -200c0 -97 -72 -172 -158 -189zM416 482c0 80 -48 124 -136 124h-123v-245h124c90 0 135 55 135 121zM355 890l38 -71l-182 -83l-29 54z" />
    <glyph glyph-name="Rcaron" unicode="&#x158;" horiz-adv-x="565" 
d="M344 293l215 -293h-105l-206 285h-91v-285h-83v682h197c170 0 231 -106 231 -200c0 -97 -72 -172 -158 -189zM416 482c0 80 -48 124 -136 124h-123v-245h124c90 0 135 55 135 121zM252 738l-140 98l27 49l113 -58l113 58l27 -49z" />
    <glyph glyph-name="Rcommaaccent" unicode="&#x156;" horiz-adv-x="565" 
d="M344 293l215 -293h-105l-206 285h-91v-285h-83v682h197c170 0 231 -106 231 -200c0 -97 -72 -172 -158 -189zM416 482c0 80 -48 124 -136 124h-123v-245h124c90 0 135 55 135 121zM239 -151v83h92v-46c0 -54 -17 -96 -29 -116h-49c14 20 23 54 24 79h-38z" />
    <glyph glyph-name="Sacute" unicode="&#x15a;" horiz-adv-x="545" 
d="M471 542h-89c-10 52 -50 90 -113 90c-70 0 -113 -44 -113 -103c0 -64 49 -97 129 -121c154 -46 203 -119 203 -224c0 -100 -73 -206 -214 -206c-114 0 -202 59 -231 186h91c18 -69 65 -114 141 -114c86 0 129 67 129 129c0 77 -48 121 -146 151c-125 38 -186 98 -186 199
c0 97 81 175 197 175c112 0 188 -72 202 -162zM360 890l38 -71l-182 -83l-29 54z" />
    <glyph glyph-name="Scircumflex" unicode="&#x15c;" horiz-adv-x="545" 
d="M471 542h-89c-10 52 -50 90 -113 90c-70 0 -113 -44 -113 -103c0 -64 49 -97 129 -121c154 -46 203 -119 203 -224c0 -100 -73 -206 -214 -206c-114 0 -202 59 -231 186h91c18 -69 65 -114 141 -114c86 0 129 67 129 129c0 77 -48 121 -146 151c-125 38 -186 98 -186 199
c0 97 81 175 197 175c112 0 188 -72 202 -162zM268 885l140 -98l-27 -49l-113 58l-113 -58l-27 49z" />
    <glyph glyph-name="Scaron" unicode="&#x160;" horiz-adv-x="545" 
d="M476 542h-89c-10 52 -50 90 -113 90c-70 0 -113 -44 -113 -103c0 -64 49 -97 129 -121c154 -46 203 -119 203 -224c0 -100 -73 -206 -214 -206c-114 0 -202 59 -231 186h91c18 -69 65 -114 141 -114c86 0 129 67 129 129c0 77 -48 121 -146 151c-125 38 -186 98 -186 199
c0 97 81 175 197 175c112 0 188 -72 202 -162zM277 738l-140 98l27 49l113 -58l113 58l27 -49z" />
    <glyph glyph-name="Scedilla" unicode="&#x15e;" horiz-adv-x="545" 
d="M471 542h-89c-10 52 -50 90 -113 90c-70 0 -113 -44 -113 -103c0 -64 49 -97 129 -121c154 -46 203 -119 203 -224c0 -95 -66 -194 -192 -205l-7 -18c48 -10 80 -46 80 -93c0 -60 -40 -103 -114 -103c-37 0 -71 6 -98 15l20 56c14 -6 45 -11 67 -11c34 0 57 12 57 39
c0 31 -29 47 -95 47l29 70c-95 12 -167 71 -192 183h91c18 -69 65 -114 141 -114c86 0 129 67 129 129c0 77 -48 121 -146 151c-125 38 -186 98 -186 199c0 97 81 175 197 175c112 0 188 -72 202 -162z" />
    <glyph glyph-name="Scommaaccent" unicode="&#x218;" horiz-adv-x="545" 
d="M471 542h-89c-10 52 -50 90 -113 90c-70 0 -113 -44 -113 -103c0 -64 49 -97 129 -121c154 -46 203 -119 203 -224c0 -100 -73 -206 -214 -206c-114 0 -202 59 -231 186h91c18 -69 65 -114 141 -114c86 0 129 67 129 129c0 77 -48 121 -146 151c-125 38 -186 98 -186 199
c0 97 81 175 197 175c112 0 188 -72 202 -162zM224 -151v83h92v-46c0 -54 -17 -96 -29 -116h-49c14 20 23 54 24 79h-38z" />
    <glyph glyph-name="Tcaron" unicode="&#x164;" horiz-adv-x="469" 
d="M193 0v606h-179v76h441v-76h-179v-606h-83zM234 738l-140 98l27 49l113 -58l113 58l27 -49z" />
    <glyph glyph-name="uni0162" unicode="&#x162;" horiz-adv-x="469" 
d="M193 0v606h-179v76h441v-76h-179v-606h-83zM186 -151v83h92v-46c0 -54 -17 -96 -29 -116h-49c14 20 23 54 24 79h-38z" />
    <glyph glyph-name="uni021A" unicode="&#x21a;" horiz-adv-x="469" 
d="M193 0v606h-179v76h441v-76h-179v-606h-83zM186 -151v83h92v-46c0 -54 -17 -96 -29 -116h-49c14 20 23 54 24 79h-38z" />
    <glyph glyph-name="Tbar" unicode="&#x166;" horiz-adv-x="469" 
d="M401 313h-125v-313h-83v313h-125v76h125v217h-179v76h441v-76h-179v-217h125v-76z" />
    <glyph glyph-name="Thorn" unicode="&#xde;" horiz-adv-x="532" 
d="M74 0v682h83v-132h105c144 0 235 -67 235 -190c0 -128 -79 -202 -242 -202h-98v-158h-83zM412 358c0 75 -51 116 -143 116h-112v-241h109c103 0 146 48 146 125z" />
    <glyph glyph-name="Ugrave" unicode="&#xd9;" horiz-adv-x="625" 
d="M313 -22c-123 0 -249 76 -249 294v410h83v-422c0 -121 61 -208 166 -208c119 0 166 87 166 208v422h82v-408c0 -218 -113 -296 -248 -296zM187 819l38 71l173 -100l-29 -54z" />
    <glyph glyph-name="Uacute" unicode="&#xda;" horiz-adv-x="625" 
d="M313 -22c-123 0 -249 76 -249 294v410h83v-422c0 -121 61 -208 166 -208c119 0 166 87 166 208v422h82v-408c0 -218 -113 -296 -248 -296zM401 890l38 -71l-182 -83l-29 54z" />
    <glyph glyph-name="Ucircumflex" unicode="&#xdb;" horiz-adv-x="625" 
d="M313 -22c-123 0 -249 76 -249 294v410h83v-422c0 -121 61 -208 166 -208c119 0 166 87 166 208v422h82v-408c0 -218 -113 -296 -248 -296zM313 885l140 -98l-27 -49l-113 58l-113 -58l-27 49z" />
    <glyph glyph-name="Utilde" unicode="&#x168;" horiz-adv-x="625" 
d="M313 -22c-123 0 -249 76 -249 294v410h83v-422c0 -121 61 -208 166 -208c119 0 166 87 166 208v422h82v-408c0 -218 -113 -296 -248 -296zM213 773h-60c3 62 27 116 93 116c32 0 51 -12 76 -33c22 -18 42 -30 60 -30s30 13 31 55h60c-3 -70 -29 -116 -95 -116
c-29 0 -56 11 -81 32c-27 22 -40 31 -53 31c-19 0 -29 -19 -31 -55z" />
    <glyph glyph-name="Udieresis" unicode="&#xdc;" horiz-adv-x="625" 
d="M313 -22c-123 0 -249 76 -249 294v410h83v-422c0 -121 61 -208 166 -208c119 0 166 87 166 208v422h82v-408c0 -218 -113 -296 -248 -296zM180 776v88h92v-88h-92zM354 776v88h92v-88h-92z" />
    <glyph glyph-name="Umacron" unicode="&#x16a;" horiz-adv-x="625" 
d="M313 -22c-123 0 -249 76 -249 294v410h83v-422c0 -121 61 -208 166 -208c119 0 166 87 166 208v422h82v-408c0 -218 -113 -296 -248 -296zM458 784h-268v65h268v-65z" />
    <glyph glyph-name="Ubreve" unicode="&#x16c;" horiz-adv-x="625" 
d="M313 -22c-123 0 -249 76 -249 294v410h83v-422c0 -121 61 -208 166 -208c119 0 166 87 166 208v422h82v-408c0 -218 -113 -296 -248 -296zM403 879h66c-4 -77 -65 -132 -156 -132c-102 0 -153 61 -156 132h66c2 -39 34 -65 90 -65c59 0 88 30 90 65z" />
    <glyph glyph-name="Uring" unicode="&#x16e;" horiz-adv-x="625" 
d="M313 -22c-123 0 -249 76 -249 294v410h83v-422c0 -121 61 -208 166 -208c119 0 166 87 166 208v422h82v-408c0 -218 -113 -296 -248 -296zM246 838c0 -37 31 -68 68 -68s66 31 66 68s-29 66 -66 66s-68 -29 -68 -66zM191 838c0 67 54 121 123 121c67 0 121 -54 121 -121
c0 -68 -54 -123 -121 -123c-69 0 -123 55 -123 123z" />
    <glyph glyph-name="Uhungarumlaut" unicode="&#x170;" horiz-adv-x="625" 
d="M313 -22c-123 0 -249 76 -249 294v410h83v-422c0 -121 61 -208 166 -208c119 0 166 87 166 208v422h82v-408c0 -218 -113 -296 -248 -296zM324 894l46 -66l-160 -101l-35 50zM511 894l46 -66l-160 -101l-35 50z" />
    <glyph glyph-name="Uogonek" unicode="&#x172;" horiz-adv-x="625" 
d="M313 -22c-123 0 -249 76 -249 294v410h83v-422c0 -121 61 -208 166 -208c119 0 166 87 166 208v422h82v-408c0 -134 -43 -216 -107 -258c-34 -23 -50 -31 -66 -50s-23 -45 -23 -64c0 -34 21 -49 50 -49c13 0 26 1 42 4v-65c-16 -4 -31 -7 -51 -7c-83 0 -115 48 -115 105
c0 29 13 63 40 89c-6 -1 -12 -1 -18 -1z" />
    <glyph glyph-name="Wcircumflex" unicode="&#x174;" horiz-adv-x="833" 
d="M557 0l-107 434c-15 62 -22 96 -27 145h-4c-7 -49 -12 -77 -28 -142l-106 -437h-83l-186 682h85l112 -440c17 -66 22 -91 30 -133h4c8 43 14 89 27 142l107 431h82l107 -438c14 -57 21 -94 27 -135h4c8 53 19 106 26 134l105 439h85l-171 -682h-89zM421 885l140 -98
l-27 -49l-113 58l-113 -58l-27 49z" />
    <glyph glyph-name="Wacute" unicode="&#x1e82;" horiz-adv-x="833" 
d="M557 0l-107 434c-15 62 -22 96 -27 145h-4c-7 -49 -12 -77 -28 -142l-106 -437h-83l-186 682h85l112 -440c17 -66 22 -91 30 -133h4c8 43 14 89 27 142l107 431h82l107 -438c14 -57 21 -94 27 -135h4c8 53 19 106 26 134l105 439h85l-171 -682h-89zM509 890l38 -71
l-182 -83l-29 54z" />
    <glyph glyph-name="Wdieresis" unicode="&#x1e84;" horiz-adv-x="833" 
d="M557 0l-107 434c-15 62 -22 96 -27 145h-4c-7 -49 -12 -77 -28 -142l-106 -437h-83l-186 682h85l112 -440c17 -66 22 -91 30 -133h4c8 43 14 89 27 142l107 431h82l107 -438c14 -57 21 -94 27 -135h4c8 53 19 106 26 134l105 439h85l-171 -682h-89zM288 776v88h92v-88
h-92zM462 776v88h92v-88h-92z" />
    <glyph glyph-name="Wgrave" unicode="&#x1e80;" horiz-adv-x="833" 
d="M557 0l-107 434c-15 62 -22 96 -27 145h-4c-7 -49 -12 -77 -28 -142l-106 -437h-83l-186 682h85l112 -440c17 -66 22 -91 30 -133h4c8 43 14 89 27 142l107 431h82l107 -438c14 -57 21 -94 27 -135h4c8 53 19 106 26 134l105 439h85l-171 -682h-89zM295 819l38 71
l173 -100l-29 -54z" />
    <glyph glyph-name="Yacute" unicode="&#xdd;" horiz-adv-x="532" 
d="M231 0v278l-214 404h93l130 -250c15 -29 26 -52 36 -79h2c12 28 23 47 38 78l124 251h86l-212 -403v-279h-83zM362 890l38 -71l-182 -83l-29 54z" />
    <glyph glyph-name="Ycircumflex" unicode="&#x176;" horiz-adv-x="532" 
d="M226 0v278l-214 404h93l130 -250c15 -29 26 -52 36 -79h2c12 28 23 47 38 78l124 251h86l-212 -403v-279h-83zM269 885l140 -98l-27 -49l-113 58l-113 -58l-27 49z" />
    <glyph glyph-name="Ydieresis" unicode="&#x178;" horiz-adv-x="532" 
d="M231 0v278l-214 404h93l130 -250c15 -29 26 -52 36 -79h2c12 28 23 47 38 78l124 251h86l-212 -403v-279h-83zM141 776v88h92v-88h-92zM315 776v88h92v-88h-92z" />
    <glyph glyph-name="Ygrave" unicode="&#x1ef2;" horiz-adv-x="532" 
d="M226 0v278l-214 404h93l130 -250c15 -29 26 -52 36 -79h2c12 28 23 47 38 78l124 251h86l-212 -403v-279h-83zM143 819l38 71l173 -100l-29 -54z" />
    <glyph glyph-name="Zacute" unicode="&#x179;" horiz-adv-x="601" 
d="M58 606v76h485v-72l-403 -534h419v-76h-518v71l403 535h-386zM385 890l38 -71l-182 -83l-29 54z" />
    <glyph glyph-name="Zcaron" unicode="&#x17d;" horiz-adv-x="601" 
d="M63 606v76h485v-72l-403 -534h419v-76h-518v71l403 535h-386zM302 738l-140 98l27 49l113 -58l113 58l27 -49z" />
    <glyph glyph-name="Zdotaccent" unicode="&#x17b;" horiz-adv-x="601" 
d="M58 606v76h485v-72l-403 -534h419v-76h-518v71l403 535h-386zM250 776v89h94v-89h-94z" />
    <glyph glyph-name="agrave" unicode="&#xe0;" horiz-adv-x="607" 
d="M543 479v-479h-79v64h-2c-35 -42 -94 -81 -175 -81c-130 0 -246 101 -246 257c0 148 108 255 251 255c87 0 138 -46 171 -85h1v69h79zM123 240c0 -92 57 -187 175 -187c90 0 173 76 173 184c0 114 -77 189 -171 189c-120 0 -177 -94 -177 -186zM171 695l58 55l132 -150
l-44 -42z" />
    <glyph glyph-name="aacute" unicode="&#xe1;" horiz-adv-x="607" 
d="M543 479v-479h-79v64h-2c-35 -42 -94 -81 -175 -81c-130 0 -246 101 -246 257c0 148 108 255 251 255c87 0 138 -46 171 -85h1v69h79zM123 240c0 -92 57 -187 175 -187c90 0 173 76 173 184c0 114 -77 189 -171 189c-120 0 -177 -94 -177 -186zM223 600l132 150l58 -55
l-146 -137z" />
    <glyph glyph-name="acircumflex" unicode="&#xe2;" horiz-adv-x="607" 
d="M543 479v-479h-79v64h-2c-35 -42 -94 -81 -175 -81c-130 0 -246 101 -246 257c0 148 108 255 251 255c87 0 138 -46 171 -85h1v69h79zM123 240c0 -92 57 -187 175 -187c90 0 173 76 173 184c0 114 -77 189 -171 189c-120 0 -177 -94 -177 -186zM292 730l140 -127l-41 -45
l-99 81l-99 -81l-41 45z" />
    <glyph glyph-name="atilde" unicode="&#xe3;" horiz-adv-x="607" 
d="M543 479v-479h-79v64h-2c-35 -42 -94 -81 -175 -81c-130 0 -246 101 -246 257c0 148 108 255 251 255c87 0 138 -46 171 -85h1v69h79zM123 240c0 -92 57 -187 175 -187c90 0 173 76 173 184c0 114 -77 189 -171 189c-120 0 -177 -94 -177 -186zM202 593h-60
c3 62 27 116 93 116c32 0 51 -12 76 -33c22 -18 42 -30 60 -30s30 13 31 55h60c-3 -70 -29 -116 -95 -116c-29 0 -56 11 -81 32c-27 22 -40 31 -53 31c-19 0 -29 -19 -31 -55z" />
    <glyph glyph-name="adieresis" unicode="&#xe4;" horiz-adv-x="607" 
d="M543 479v-479h-79v64h-2c-35 -42 -94 -81 -175 -81c-130 0 -246 101 -246 257c0 148 108 255 251 255c87 0 138 -46 171 -85h1v69h79zM123 240c0 -92 57 -187 175 -187c90 0 173 76 173 184c0 114 -77 189 -171 189c-120 0 -177 -94 -177 -186zM159 596v88h92v-88h-92z
M333 596v88h92v-88h-92z" />
    <glyph glyph-name="amacron" unicode="&#x101;" horiz-adv-x="607" 
d="M538 479v-479h-79v64h-2c-35 -42 -94 -81 -175 -81c-130 0 -246 101 -246 257c0 148 108 255 251 255c87 0 138 -46 171 -85h1v69h79zM118 240c0 -92 57 -187 175 -187c90 0 173 76 173 184c0 114 -77 189 -171 189c-120 0 -177 -94 -177 -186zM421 604h-268v65h268v-65z
" />
    <glyph glyph-name="abreve" unicode="&#x103;" horiz-adv-x="607" 
d="M538 479v-479h-79v64h-2c-35 -42 -94 -81 -175 -81c-130 0 -246 101 -246 257c0 148 108 255 251 255c87 0 138 -46 171 -85h1v69h79zM118 240c0 -92 57 -187 175 -187c90 0 173 76 173 184c0 114 -77 189 -171 189c-120 0 -177 -94 -177 -186zM377 714h66
c-4 -84 -71 -147 -156 -147c-87 0 -152 63 -156 147h66c3 -49 39 -80 90 -80c50 0 87 31 90 80z" />
    <glyph glyph-name="aring" unicode="&#xe5;" horiz-adv-x="607" 
d="M543 479v-479h-79v64h-2c-35 -42 -94 -81 -175 -81c-130 0 -246 101 -246 257c0 148 108 255 251 255c87 0 138 -46 171 -85h1v69h79zM123 240c0 -92 57 -187 175 -187c90 0 173 76 173 184c0 114 -77 189 -171 189c-120 0 -177 -94 -177 -186zM225 653
c0 -37 31 -68 68 -68s66 31 66 68s-29 66 -66 66s-68 -29 -68 -66zM170 653c0 67 54 121 123 121c67 0 121 -54 121 -121c0 -68 -54 -123 -121 -123c-69 0 -123 55 -123 123z" />
    <glyph glyph-name="aogonek" unicode="&#x105;" horiz-adv-x="607" 
d="M559 -143v-65c-16 -4 -31 -7 -51 -7c-83 0 -115 48 -115 105c0 37 23 84 70 110h-4v64h-2c-35 -42 -94 -81 -175 -81c-13 0 -25 1 -38 3c-114 18 -208 114 -208 254c0 133 87 233 209 252c14 2 28 3 42 3c87 0 138 -46 171 -85h1v69h79v-479c-24 -1 -71 -34 -71 -98
c0 -34 21 -49 50 -49c13 0 26 1 42 4zM118 240c0 -92 57 -187 175 -187c90 0 173 76 173 184c0 114 -77 189 -171 189c-120 0 -177 -94 -177 -186z" />
    <glyph glyph-name="ae" unicode="&#xe6;" horiz-adv-x="842" 
d="M582 495c167 0 224 -141 224 -249c0 -6 -1 -18 -2 -23h-362c1 -98 59 -170 152 -170c55 0 84 21 107 58h91c-36 -75 -101 -128 -195 -128c-97 0 -163 41 -199 116c-31 -54 -89 -116 -194 -116c-125 0 -164 75 -164 147c0 103 89 155 245 155h81v32c0 64 -41 109 -112 109
c-73 0 -106 -28 -112 -70h-83c5 69 67 139 192 139c86 0 140 -33 164 -86c37 52 93 86 167 86zM582 426c-88 0 -132 -68 -139 -141h280c-8 80 -57 141 -141 141zM366 223h-81c-121 0 -163 -37 -163 -91c0 -59 44 -79 89 -79c103 0 149 91 155 170z" />
    <glyph glyph-name="cacute" unicode="&#x107;" horiz-adv-x="543" 
d="M288 495c137 0 200 -84 216 -139h-88c-19 40 -61 70 -128 70c-91 0 -170 -62 -170 -186c0 -108 74 -187 175 -187c75 0 111 39 130 79h88c-25 -71 -89 -149 -219 -149c-148 0 -256 106 -256 258c0 140 98 254 252 254zM198 600l132 150l58 -55l-146 -137z" />
    <glyph glyph-name="ccircumflex" unicode="&#x109;" horiz-adv-x="543" 
d="M288 495c137 0 200 -84 216 -139h-88c-19 40 -61 70 -128 70c-91 0 -170 -62 -170 -186c0 -108 74 -187 175 -187c75 0 111 39 130 79h88c-25 -71 -89 -149 -219 -149c-148 0 -256 106 -256 258c0 140 98 254 252 254zM287 730l140 -127l-41 -45l-99 81l-99 -81l-41 45z
" />
    <glyph glyph-name="ccaron" unicode="&#x10d;" horiz-adv-x="543" 
d="M288 495c137 0 200 -84 216 -139h-88c-19 40 -61 70 -128 70c-91 0 -170 -62 -170 -186c0 -108 74 -187 175 -187c75 0 111 39 130 79h88c-25 -71 -89 -149 -219 -149c-148 0 -256 106 -256 258c0 140 98 254 252 254zM287 558l-140 127l41 45l99 -81l99 81l41 -45z" />
    <glyph glyph-name="cdotaccent" unicode="&#x10b;" horiz-adv-x="543" 
d="M288 495c137 0 200 -84 216 -139h-88c-19 40 -61 70 -128 70c-91 0 -170 -62 -170 -186c0 -108 74 -187 175 -187c75 0 111 39 130 79h88c-25 -71 -89 -149 -219 -149c-148 0 -256 106 -256 258c0 140 98 254 252 254zM240 596v89h94v-89h-94z" />
    <glyph glyph-name="ccedilla" unicode="&#xe7;" horiz-adv-x="543" 
d="M288 495c137 0 200 -84 216 -139h-88c-19 40 -61 70 -128 70c-91 0 -170 -62 -170 -186c0 -108 74 -187 175 -187c75 0 111 39 130 79h88c-24 -68 -83 -141 -201 -148l-9 -23c48 -10 80 -46 80 -93c0 -60 -40 -103 -114 -103c-37 0 -71 6 -98 15l20 56
c14 -6 45 -11 67 -11c34 0 57 12 57 39c0 31 -29 47 -95 47l31 76c-118 17 -213 111 -213 254c0 140 98 254 252 254z" />
    <glyph glyph-name="dcaron" unicode="&#x10f;" horiz-adv-x="696" 
d="M538 720v-720h-79v64h-2c-35 -42 -94 -81 -179 -81c-130 0 -242 101 -242 257c0 145 103 255 242 255c90 0 138 -36 179 -84h2v309h79zM118 240c0 -92 59 -187 174 -187c93 0 174 75 174 184c0 114 -76 189 -172 189c-117 0 -176 -93 -176 -186zM604 637v83h92v-46
c0 -54 -17 -96 -29 -116h-49c14 20 23 54 24 79h-38z" />
    <glyph glyph-name="dcroat" unicode="&#x111;" horiz-adv-x="607" 
d="M607 574h-69v-574h-79v64h-2c-35 -42 -94 -81 -179 -81c-130 0 -242 101 -242 257c0 145 103 255 242 255c90 0 138 -36 179 -84h2v163h-204v65h204v81h79v-81h69v-65zM118 240c0 -92 59 -187 174 -187c93 0 174 75 174 184c0 114 -76 189 -172 189
c-117 0 -176 -93 -176 -186z" />
    <glyph glyph-name="eth" unicode="&#xf0;" horiz-adv-x="584" 
d="M197 521l-37 54l93 61c-36 32 -72 61 -105 84h106c16 -10 39 -27 63 -47l82 54l36 -54l-67 -45c105 -93 180 -231 180 -383c0 -141 -108 -262 -256 -262c-145 0 -256 112 -256 257c0 148 112 255 256 255c43 0 89 -12 123 -34l2 2c-29 40 -74 88 -115 128zM118 240
c0 -108 82 -185 174 -185c101 0 174 80 174 185c0 101 -69 184 -174 184c-102 0 -174 -78 -174 -184z" />
    <glyph glyph-name="egrave" unicode="&#xe8;" horiz-adv-x="547" 
d="M279 495c174 -1 237 -144 237 -249c0 -9 -1 -24 -2 -29h-391c0 -87 80 -164 170 -164c57 0 92 21 123 58h91c-32 -60 -99 -128 -212 -128c-152 0 -254 114 -254 263c0 132 93 249 238 249zM279 426c-91 0 -148 -70 -155 -143h309c-8 75 -67 143 -154 143zM157 695l58 55
l132 -150l-44 -42z" />
    <glyph glyph-name="eacute" unicode="&#xe9;" horiz-adv-x="547" 
d="M279 495c174 -1 237 -144 237 -249c0 -9 -1 -24 -2 -29h-391c0 -87 80 -164 170 -164c57 0 92 21 123 58h91c-32 -60 -99 -128 -212 -128c-152 0 -254 114 -254 263c0 132 93 249 238 249zM279 426c-91 0 -148 -70 -155 -143h309c-8 75 -67 143 -154 143zM209 600
l132 150l58 -55l-146 -137z" />
    <glyph glyph-name="ecircumflex" unicode="&#xea;" horiz-adv-x="547" 
d="M279 495c174 -1 237 -144 237 -249c0 -9 -1 -24 -2 -29h-391c0 -87 80 -164 170 -164c57 0 92 21 123 58h91c-32 -60 -99 -128 -212 -128c-152 0 -254 114 -254 263c0 132 93 249 238 249zM279 426c-91 0 -148 -70 -155 -143h309c-8 75 -67 143 -154 143zM278 730
l140 -127l-41 -45l-99 81l-99 -81l-41 45z" />
    <glyph glyph-name="ecaron" unicode="&#x11b;" horiz-adv-x="547" 
d="M274 495c174 -1 237 -144 237 -249c0 -9 -1 -24 -2 -29h-391c0 -87 80 -164 170 -164c57 0 92 21 123 58h91c-32 -60 -99 -128 -212 -128c-152 0 -254 114 -254 263c0 132 93 249 238 249zM274 426c-91 0 -148 -70 -155 -143h309c-8 75 -67 143 -154 143zM273 558
l-140 127l41 45l99 -81l99 81l41 -45z" />
    <glyph glyph-name="edieresis" unicode="&#xeb;" horiz-adv-x="547" 
d="M279 495c174 -1 237 -144 237 -249c0 -9 -1 -24 -2 -29h-391c0 -87 80 -164 170 -164c57 0 92 21 123 58h91c-32 -60 -99 -128 -212 -128c-152 0 -254 114 -254 263c0 132 93 249 238 249zM279 426c-91 0 -148 -70 -155 -143h309c-8 75 -67 143 -154 143zM145 596v88h92
v-88h-92zM319 596v88h92v-88h-92z" />
    <glyph glyph-name="emacron" unicode="&#x113;" horiz-adv-x="547" 
d="M274 495c174 -1 237 -144 237 -249c0 -9 -1 -24 -2 -29h-391c0 -87 80 -164 170 -164c57 0 92 21 123 58h91c-32 -60 -99 -128 -212 -128c-152 0 -254 114 -254 263c0 132 93 249 238 249zM274 426c-91 0 -148 -70 -155 -143h309c-8 75 -67 143 -154 143zM407 604h-268
v65h268v-65z" />
    <glyph glyph-name="ebreve" unicode="&#x115;" horiz-adv-x="547" 
d="M274 495c174 -1 237 -144 237 -249c0 -9 -1 -24 -2 -29h-391c0 -87 80 -164 170 -164c57 0 92 21 123 58h91c-32 -60 -99 -128 -212 -128c-152 0 -254 114 -254 263c0 132 93 249 238 249zM274 426c-91 0 -148 -70 -155 -143h309c-8 75 -67 143 -154 143zM363 714h66
c-4 -84 -71 -147 -156 -147c-87 0 -152 63 -156 147h66c3 -49 39 -80 90 -80c50 0 87 31 90 80z" />
    <glyph glyph-name="edotaccent" unicode="&#x117;" horiz-adv-x="547" 
d="M274 495c174 -1 237 -144 237 -249c0 -9 -1 -24 -2 -29h-391c0 -87 80 -164 170 -164c57 0 92 21 123 58h91c-32 -60 -99 -128 -212 -128c-152 0 -254 114 -254 263c0 132 93 249 238 249zM274 426c-91 0 -148 -70 -155 -143h309c-8 75 -67 143 -154 143zM226 596v89h94
v-89h-94z" />
    <glyph glyph-name="eogonek" unicode="&#x119;" horiz-adv-x="547" 
d="M432 -143v-65c-16 -4 -31 -7 -51 -7c-83 0 -115 48 -115 105c0 31 15 68 47 94c-8 0 -15 -1 -23 -1c-152 0 -254 114 -254 263c0 132 93 249 238 249c174 -1 237 -144 237 -249c0 -9 -1 -24 -2 -29h-391c0 -87 80 -164 170 -164c57 0 92 21 123 58h91
c-16 -29 -40 -63 -89 -97c-51 -35 -73 -71 -73 -112c0 -34 21 -49 50 -49c13 0 26 1 42 4zM274 426c-91 0 -148 -70 -155 -143h309c-8 75 -67 143 -154 143z" />
    <glyph glyph-name="gcircumflex" unicode="&#x11d;" horiz-adv-x="607" 
d="M538 479v-464c0 -173 -80 -272 -247 -272c-133 0 -216 74 -236 183h80c17 -64 61 -114 159 -114c107 0 165 70 165 193v61h-2c-35 -43 -94 -83 -175 -83c-131 0 -246 101 -246 257c0 148 105 255 245 255c91 0 146 -48 176 -85h2v69h79zM117 240c0 -92 60 -187 175 -187
c93 0 174 76 174 184c0 114 -76 189 -172 189c-117 0 -177 -94 -177 -186zM285 730l140 -127l-41 -45l-99 81l-99 -81l-41 45z" />
    <glyph glyph-name="gbreve" unicode="&#x11f;" horiz-adv-x="607" 
d="M538 479v-464c0 -173 -80 -272 -247 -272c-133 0 -216 74 -236 183h80c17 -64 61 -114 159 -114c107 0 165 70 165 193v61h-2c-35 -43 -94 -83 -175 -83c-131 0 -246 101 -246 257c0 148 105 255 245 255c91 0 146 -48 176 -85h2v69h79zM117 240c0 -92 60 -187 175 -187
c93 0 174 76 174 184c0 114 -76 189 -172 189c-117 0 -177 -94 -177 -186zM375 714h66c-4 -84 -71 -147 -156 -147c-87 0 -152 63 -156 147h66c3 -49 39 -80 90 -80c50 0 87 31 90 80z" />
    <glyph glyph-name="gdotaccent" unicode="&#x121;" horiz-adv-x="607" 
d="M538 479v-464c0 -173 -80 -272 -247 -272c-133 0 -216 74 -236 183h80c17 -64 61 -114 159 -114c107 0 165 70 165 193v61h-2c-35 -43 -94 -83 -175 -83c-131 0 -246 101 -246 257c0 148 105 255 245 255c91 0 146 -48 176 -85h2v69h79zM117 240c0 -92 60 -187 175 -187
c93 0 174 76 174 184c0 114 -76 189 -172 189c-117 0 -177 -94 -177 -186zM238 596v89h94v-89h-94z" />
    <glyph glyph-name="gcommaaccent" unicode="&#x123;" horiz-adv-x="607" 
d="M538 479v-464c0 -173 -80 -272 -247 -272c-133 0 -216 74 -236 183h80c17 -64 61 -114 159 -114c107 0 165 70 165 193v61h-2c-35 -43 -94 -83 -175 -83c-131 0 -246 101 -246 257c0 148 105 255 245 255c91 0 146 -48 176 -85h2v69h79zM117 240c0 -92 60 -187 175 -187
c93 0 174 76 174 184c0 114 -76 189 -172 189c-117 0 -177 -94 -177 -186zM342 634v-83h-92v46c0 54 17 96 29 116h49c-14 -20 -23 -54 -24 -79h38z" />
    <glyph glyph-name="hcircumflex" unicode="&#x125;" horiz-adv-x="548" 
d="M69 0v720h79v-301h2c45 57 99 76 151 76c87 0 189 -53 189 -216v-279h-79v275c0 96 -47 149 -122 149c-86 0 -141 -57 -141 -168v-256h-79zM108 945l140 -127l-41 -45l-99 81l-99 -81l-41 45z" />
    <glyph glyph-name="hbar" unicode="&#x127;" horiz-adv-x="548" 
d="M318 574h-170v-155h2c45 57 99 76 151 76c87 0 189 -53 189 -216v-279h-79v275c0 96 -47 149 -122 149c-86 0 -141 -57 -141 -168v-256h-79v574h-69v65h69v81h79v-81h170v-65z" />
    <glyph glyph-name="dotlessi" unicode="&#x131;" horiz-adv-x="217" 
d="M69 0v479h79v-479h-79z" />
    <glyph glyph-name="igrave" unicode="&#xec;" horiz-adv-x="217" 
d="M74 0v479h79v-479h-79zM-8 695l58 55l132 -150l-44 -42z" />
    <glyph glyph-name="iacute" unicode="&#xed;" horiz-adv-x="217" 
d="M74 0v479h79v-479h-79zM44 600l132 150l58 -55l-146 -137z" />
    <glyph glyph-name="icircumflex" unicode="&#xee;" horiz-adv-x="217" 
d="M74 0v479h79v-479h-79zM113 730l140 -127l-41 -45l-99 81l-99 -81l-41 45z" />
    <glyph glyph-name="itilde" unicode="&#x129;" horiz-adv-x="217" 
d="M69 0v479h79v-479h-79zM8 593h-60c3 62 27 116 93 116c32 0 51 -12 76 -33c22 -18 42 -30 60 -30s30 13 31 55h60c-3 -70 -29 -116 -95 -116c-29 0 -56 11 -81 32c-27 22 -40 31 -53 31c-19 0 -29 -19 -31 -55z" />
    <glyph glyph-name="idieresis" unicode="&#xef;" horiz-adv-x="217" 
d="M74 0v479h79v-479h-79zM-20 596v88h92v-88h-92zM154 596v88h92v-88h-92z" />
    <glyph glyph-name="imacron" unicode="&#x12b;" horiz-adv-x="217" 
d="M69 0v479h79v-479h-79zM242 604h-268v65h268v-65z" />
    <glyph glyph-name="ibreve" unicode="&#x12d;" horiz-adv-x="217" 
d="M69 0v479h79v-479h-79zM198 714h66c-4 -84 -71 -147 -156 -147c-87 0 -152 63 -156 147h66c3 -49 39 -80 90 -80c50 0 87 31 90 80z" />
    <glyph glyph-name="iogonek" unicode="&#x12f;" horiz-adv-x="217" 
d="M69 0v479h79v-479c-24 -3 -68 -41 -68 -98c0 -34 21 -49 50 -49c13 0 26 1 42 4v-65c-16 -4 -31 -7 -51 -7c-83 0 -115 48 -115 105c0 37 23 84 70 110h-7zM60 594v93h98v-93h-98z" />
    <glyph glyph-name="dotlessj" unicode="&#x237;" horiz-adv-x="217" 
d="M148 479v-540c0 -131 -61 -190 -157 -190c-39 0 -66 8 -86 15v66c14 -5 46 -15 79 -15c54 0 85 34 85 117v547h79z" />
    <glyph glyph-name="jcircumflex" unicode="&#x135;" horiz-adv-x="217" 
d="M148 479v-540c0 -128 -61 -190 -157 -190c-39 0 -66 8 -86 15v66c14 -4 46 -15 79 -15c64 0 85 51 85 117v547h79zM109 728l140 -127l-41 -45l-99 81l-99 -81l-41 45z" />
    <glyph glyph-name="kcommaaccent" unicode="&#x137;" horiz-adv-x="470" 
d="M381 0l-187 228l-46 -45v-183h-79v720h79v-443l200 202h98l-197 -196l231 -283h-99zM197 -151v83h92v-46c0 -54 -17 -96 -29 -116h-49c14 20 23 54 24 79h-38z" />
    <glyph glyph-name="kgreenlandic" unicode="&#x138;" horiz-adv-x="470" 
d="M381 0l-187 228l-46 -45v-183h-79v479h79v-202l200 202h98l-197 -196l231 -283h-99z" />
    <glyph glyph-name="lacute" unicode="&#x13a;" horiz-adv-x="217" 
d="M69 0v720h79v-720h-79zM39 815l132 150l58 -55l-146 -137z" />
    <glyph glyph-name="lcaron" unicode="&#x13e;" horiz-adv-x="307" 
d="M69 0v720h79v-720h-79zM215 637v83h92v-46c0 -54 -17 -96 -29 -116h-49c14 20 23 54 24 79h-38z" />
    <glyph glyph-name="lcommaaccent" unicode="&#x13c;" horiz-adv-x="217" 
d="M69 0v720h79v-720h-79zM60 -151v83h92v-46c0 -54 -17 -96 -29 -116h-49c14 20 23 54 24 79h-38z" />
    <glyph glyph-name="lslash" unicode="&#x142;" horiz-adv-x="241" 
d="M5 245v84l76 59v332h79v-276l76 59v-84l-76 -59v-360h-79v304z" />
    <glyph glyph-name="ldot" unicode="&#x140;" horiz-adv-x="315" 
d="M69 0v720h79v-720h-79zM219 313v89h94v-89h-94z" />
    <glyph glyph-name="nacute" unicode="&#x144;" horiz-adv-x="553" 
d="M69 0v479h79v-60h2c44 57 99 76 151 76c87 0 189 -54 189 -216v-279h-79v274c0 97 -47 150 -122 150c-86 0 -141 -58 -141 -169v-255h-79zM211 600l132 150l58 -55l-146 -137z" />
    <glyph glyph-name="ncaron" unicode="&#x148;" horiz-adv-x="553" 
d="M69 0v479h79v-60h2c44 57 99 76 151 76c87 0 189 -54 189 -216v-279h-79v274c0 97 -47 150 -122 150c-86 0 -141 -58 -141 -169v-255h-79zM285 558l-140 127l41 45l99 -81l99 81l41 -45z" />
    <glyph glyph-name="ntilde" unicode="&#xf1;" horiz-adv-x="553" 
d="M74 0v479h79v-60h2c44 57 99 76 151 76c87 0 189 -54 189 -216v-279h-79v274c0 97 -47 150 -122 150c-86 0 -141 -58 -141 -169v-255h-79zM195 593h-60c3 62 27 116 93 116c32 0 51 -12 76 -33c22 -18 42 -30 60 -30s30 13 31 55h60c-3 -70 -29 -116 -95 -116
c-29 0 -56 11 -81 32c-27 22 -40 31 -53 31c-19 0 -29 -19 -31 -55z" />
    <glyph glyph-name="ncommaaccent" unicode="&#x146;" horiz-adv-x="553" 
d="M69 0v479h79v-60h2c44 57 99 76 151 76c87 0 189 -54 189 -216v-279h-79v274c0 97 -47 150 -122 150c-86 0 -141 -58 -141 -169v-255h-79zM228 -151v83h92v-46c0 -54 -17 -96 -29 -116h-49c14 20 23 54 24 79h-38z" />
    <glyph glyph-name="eng" unicode="&#x14b;" horiz-adv-x="553" 
d="M69 0v479h79v-60h2c44 57 99 76 151 76c87 0 189 -54 189 -216v-340c0 -128 -56 -190 -152 -190c-31 0 -53 5 -81 15v64c22 -8 47 -13 74 -13c64 0 80 51 80 117v342c0 97 -47 150 -122 150c-86 0 -141 -58 -141 -169v-255h-79z" />
    <glyph glyph-name="ograve" unicode="&#xf2;" horiz-adv-x="584" 
d="M41 240c0 148 112 255 256 255c149 0 256 -110 256 -255c0 -141 -108 -257 -256 -257c-145 0 -256 112 -256 257zM123 240c0 -108 82 -185 174 -185c101 0 174 80 174 185c0 101 -69 184 -174 184c-102 0 -174 -78 -174 -184zM182 695l58 55l132 -150l-44 -42z" />
    <glyph glyph-name="oacute" unicode="&#xf3;" horiz-adv-x="584" 
d="M41 240c0 148 112 255 256 255c149 0 256 -110 256 -255c0 -141 -108 -257 -256 -257c-145 0 -256 112 -256 257zM123 240c0 -108 82 -185 174 -185c101 0 174 80 174 185c0 101 -69 184 -174 184c-102 0 -174 -78 -174 -184zM222 600l132 150l58 -55l-146 -137z" />
    <glyph glyph-name="ocircumflex" unicode="&#xf4;" horiz-adv-x="584" 
d="M41 240c0 148 112 255 256 255c149 0 256 -110 256 -255c0 -141 -108 -257 -256 -257c-145 0 -256 112 -256 257zM123 240c0 -108 82 -185 174 -185c101 0 174 80 174 185c0 101 -69 184 -174 184c-102 0 -174 -78 -174 -184zM297 730l140 -127l-41 -45l-99 81l-99 -81
l-41 45z" />
    <glyph glyph-name="otilde" unicode="&#xf5;" horiz-adv-x="584" 
d="M41 240c0 148 112 255 256 255c149 0 256 -110 256 -255c0 -141 -108 -257 -256 -257c-145 0 -256 112 -256 257zM123 240c0 -108 82 -185 174 -185c101 0 174 80 174 185c0 101 -69 184 -174 184c-102 0 -174 -78 -174 -184zM196 593h-60c3 62 27 116 93 116
c32 0 51 -12 76 -33c22 -18 42 -30 60 -30s30 13 31 55h60c-3 -70 -29 -116 -95 -116c-29 0 -56 11 -81 32c-27 22 -40 31 -53 31c-19 0 -29 -19 -31 -55z" />
    <glyph glyph-name="odieresis" unicode="&#xf6;" horiz-adv-x="584" 
d="M41 240c0 148 112 255 256 255c149 0 256 -110 256 -255c0 -141 -108 -257 -256 -257c-145 0 -256 112 -256 257zM123 240c0 -108 82 -185 174 -185c101 0 174 80 174 185c0 101 -69 184 -174 184c-102 0 -174 -78 -174 -184zM164 596v88h92v-88h-92zM338 596v88h92v-88
h-92z" />
    <glyph glyph-name="omacron" unicode="&#x14d;" horiz-adv-x="584" 
d="M36 240c0 148 112 255 256 255c149 0 256 -110 256 -255c0 -141 -108 -257 -256 -257c-145 0 -256 112 -256 257zM118 240c0 -108 82 -185 174 -185c101 0 174 80 174 185c0 101 -69 184 -174 184c-102 0 -174 -78 -174 -184zM426 604h-268v65h268v-65z" />
    <glyph glyph-name="obreve" unicode="&#x14f;" horiz-adv-x="584" 
d="M36 240c0 148 112 255 256 255c149 0 256 -110 256 -255c0 -141 -108 -257 -256 -257c-145 0 -256 112 -256 257zM118 240c0 -108 82 -185 174 -185c101 0 174 80 174 185c0 101 -69 184 -174 184c-102 0 -174 -78 -174 -184zM382 714h66c-4 -84 -71 -147 -156 -147
c-87 0 -152 63 -156 147h66c3 -49 39 -80 90 -80c50 0 87 31 90 80z" />
    <glyph glyph-name="ohungarumlaut" unicode="&#x151;" horiz-adv-x="584" 
d="M36 240c0 148 112 255 256 255c149 0 256 -110 256 -255c0 -141 -108 -257 -256 -257c-145 0 -256 112 -256 257zM118 240c0 -108 82 -185 174 -185c101 0 174 80 174 185c0 101 -69 184 -174 184c-102 0 -174 -78 -174 -184zM260 754l66 -45l-114 -151l-50 34zM420 754
l66 -45l-114 -151l-50 34z" />
    <glyph glyph-name="oslash" unicode="&#xf8;" horiz-adv-x="584" 
d="M36 240c0 148 112 255 256 255c55 0 105 -16 145 -42l62 70l47 -42l-61 -69c40 -45 63 -105 63 -172c0 -141 -108 -257 -256 -257c-55 0 -104 16 -145 43l-60 -69l-49 41l61 70c-39 45 -63 105 -63 172zM118 240c0 -43 13 -81 35 -112l235 268c-27 18 -59 28 -96 28
c-102 0 -174 -78 -174 -184zM466 240c0 41 -12 80 -33 111l-235 -267c27 -19 60 -29 94 -29c101 0 174 80 174 185z" />
    <glyph glyph-name="oe" unicode="&#x153;" horiz-adv-x="933" 
d="M36 240c0 148 108 255 246 255c91 0 161 -45 201 -115c35 68 99 115 187 115c167 -1 227 -144 227 -249c0 -9 -1 -24 -2 -29h-371c0 -87 65 -164 153 -164c54 0 86 21 115 58h91c-31 -60 -95 -128 -203 -128c-96 0 -162 46 -197 117c-40 -71 -111 -117 -201 -117
c-139 0 -246 112 -246 257zM118 240c0 -108 77 -185 164 -185c95 0 164 80 164 185c0 101 -65 184 -164 184c-96 0 -164 -78 -164 -184zM670 426c-85 0 -138 -70 -145 -143h289c-7 75 -63 143 -144 143z" />
    <glyph glyph-name="racute" unicode="&#x155;" horiz-adv-x="342" 
d="M317 492v-73c-12 2 -25 5 -46 5c-69 0 -123 -49 -123 -170v-254h-79v479h79v-60h2c16 32 64 76 127 76c17 0 29 -1 40 -3zM115 600l132 150l58 -55l-146 -137z" />
    <glyph glyph-name="rcaron" unicode="&#x159;" horiz-adv-x="342" 
d="M317 492v-73c-12 2 -25 5 -46 5c-69 0 -123 -49 -123 -170v-254h-79v479h79v-60h2c16 32 64 76 127 76c17 0 29 -1 40 -3zM194 558l-140 127l41 45l99 -81l99 81l41 -45z" />
    <glyph glyph-name="rcommaaccent" unicode="&#x157;" horiz-adv-x="342" 
d="M317 492v-73c-12 2 -25 5 -46 5c-69 0 -123 -49 -123 -170v-254h-79v479h79v-60h2c16 32 64 76 127 76c17 0 29 -1 40 -3zM59 -151v83h92v-46c0 -54 -17 -96 -29 -116h-49c14 20 23 54 24 79h-38z" />
    <glyph glyph-name="sacute" unicode="&#x15b;" horiz-adv-x="425" 
d="M374 364h-80c-8 37 -39 64 -77 64c-49 0 -76 -29 -76 -64c0 -30 14 -55 101 -83c106 -34 139 -89 139 -153c0 -88 -64 -145 -162 -145c-106 0 -159 62 -174 145h80c9 -42 38 -77 97 -77c53 0 80 31 80 71c0 41 -18 68 -107 97c-90 29 -132 74 -132 146
c0 70 52 130 150 130s145 -60 161 -131zM143 600l132 150l58 -55l-146 -137z" />
    <glyph glyph-name="scircumflex" unicode="&#x15d;" horiz-adv-x="425" 
d="M374 364h-80c-8 37 -39 64 -77 64c-49 0 -76 -29 -76 -64c0 -30 14 -55 101 -83c106 -34 139 -89 139 -153c0 -88 -64 -145 -162 -145c-106 0 -159 62 -174 145h80c9 -42 38 -77 97 -77c53 0 80 31 80 71c0 41 -18 68 -107 97c-90 29 -132 74 -132 146
c0 70 52 130 150 130s145 -60 161 -131zM217 730l140 -127l-41 -45l-99 81l-99 -81l-41 45z" />
    <glyph glyph-name="scaron" unicode="&#x161;" horiz-adv-x="425" 
d="M379 364h-80c-8 37 -39 64 -77 64c-49 0 -76 -29 -76 -64c0 -30 14 -55 101 -83c106 -34 139 -89 139 -153c0 -88 -64 -145 -162 -145c-106 0 -159 62 -174 145h80c9 -42 38 -77 97 -77c53 0 80 31 80 71c0 41 -18 68 -107 97c-90 29 -132 74 -132 146
c0 70 52 130 150 130s145 -60 161 -131zM217 558l-140 127l41 45l99 -81l99 81l41 -45z" />
    <glyph glyph-name="scedilla" unicode="&#x15f;" horiz-adv-x="425" 
d="M374 364h-80c-8 37 -39 64 -77 64c-49 0 -76 -29 -76 -60c0 -34 11 -54 101 -87c106 -39 139 -89 139 -156c0 -77 -51 -130 -138 -140l-9 -24c48 -10 80 -46 80 -93c0 -60 -40 -103 -114 -103c-37 0 -71 6 -98 15l20 56c14 -6 45 -11 67 -11c34 0 57 12 57 39
c0 31 -29 47 -95 47l31 75c-84 11 -124 68 -137 142h80c9 -42 34 -77 95 -77c49 0 82 26 82 71c0 38 -18 64 -107 97c-93 34 -132 77 -132 146c0 70 52 130 150 130s145 -60 161 -131z" />
    <glyph glyph-name="scommaaccent" unicode="&#x219;" horiz-adv-x="425" 
d="M374 364h-80c-8 37 -39 64 -77 64c-49 0 -76 -29 -76 -64c0 -30 14 -55 101 -83c106 -34 139 -89 139 -153c0 -88 -64 -145 -162 -145c-106 0 -159 62 -174 145h80c9 -42 38 -77 97 -77c53 0 80 31 80 71c0 41 -18 68 -107 97c-90 29 -132 74 -132 146
c0 70 52 130 150 130s145 -60 161 -131zM164 -151v83h92v-46c0 -54 -17 -96 -29 -116h-49c14 20 23 54 24 79h-38z" />
    <glyph glyph-name="germandbls" unicode="&#xdf;" horiz-adv-x="601" 
d="M465 569c0 -60 -23 -100 -80 -129c-47 -23 -59 -43 -59 -63c0 -29 13 -47 89 -81c106 -47 142 -91 142 -167c0 -83 -57 -146 -166 -146c-111 0 -158 68 -170 145h80c9 -46 37 -77 95 -77c54 0 82 31 82 73c0 43 -21 70 -103 106c-99 43 -128 84 -128 144
c0 44 20 81 70 108c59 32 69 50 69 86c0 30 -16 91 -110 91c-87 0 -128 -51 -128 -155v-504h-79v506c0 152 82 219 207 219c123 0 189 -74 189 -156z" />
    <glyph glyph-name="tcaron" unicode="&#x165;" horiz-adv-x="320" 
d="M17 413v66h63v153h79v-153h128v-66h-128v-253c0 -78 24 -99 75 -99c20 0 40 3 58 8v-65c-21 -7 -46 -10 -74 -10c-116 0 -138 78 -138 169v250h-63zM225 637v83h92v-46c0 -54 -17 -96 -29 -116h-49c14 20 23 54 24 79h-38z" />
    <glyph glyph-name="uni0163" unicode="&#x163;" horiz-adv-x="320" 
d="M17 413v66h63v153h79v-153h128v-66h-128v-253c0 -78 24 -99 75 -99c20 0 40 3 58 8v-65c-21 -7 -46 -10 -74 -10c-116 0 -138 78 -138 169v250h-63zM140 -144v83h92v-46c0 -54 -17 -96 -29 -116h-49c14 20 23 54 24 79h-38z" />
    <glyph glyph-name="uni021B" unicode="&#x21b;" horiz-adv-x="320" 
d="M17 413v66h63v153h79v-153h128v-66h-128v-253c0 -78 24 -99 75 -99c20 0 40 3 58 8v-65c-21 -7 -46 -10 -74 -10c-116 0 -138 78 -138 169v250h-63zM140 -144v83h92v-46c0 -54 -17 -96 -29 -116h-49c14 20 23 54 24 79h-38z" />
    <glyph glyph-name="tbar" unicode="&#x167;" horiz-adv-x="320" 
d="M269 216l-110 1c0 -123 7 -156 75 -156c20 0 40 3 58 8v-65c-21 -7 -46 -10 -74 -10c-116 0 -138 78 -138 169v54h-50v65h50v131h-63v66h63v153h79v-153h128v-66h-128v-131l110 -1v-65z" />
    <glyph glyph-name="thorn" unicode="&#xfe;" horiz-adv-x="607" 
d="M69 -235v955h79v-309h2c32 38 83 84 180 84c153 0 241 -125 241 -255c0 -145 -104 -257 -244 -257c-82 0 -142 39 -177 81h-2v-299h-79zM489 240c0 93 -58 186 -176 186c-96 0 -172 -75 -172 -189c0 -109 82 -184 174 -184c116 0 174 95 174 187z" />
    <glyph glyph-name="ugrave" unicode="&#xf9;" horiz-adv-x="540" 
d="M476 479v-479h-79v59h-2c-42 -57 -95 -76 -145 -76c-84 0 -182 54 -182 216v280h79v-274c0 -97 46 -150 116 -150c82 0 134 57 134 168v256h79zM154 695l58 55l132 -150l-44 -42z" />
    <glyph glyph-name="uacute" unicode="&#xfa;" horiz-adv-x="540" 
d="M476 479v-479h-79v59h-2c-42 -57 -95 -76 -145 -76c-84 0 -182 54 -182 216v280h79v-274c0 -97 46 -150 116 -150c82 0 134 57 134 168v256h79zM206 600l132 150l58 -55l-146 -137z" />
    <glyph glyph-name="ucircumflex" unicode="&#xfb;" horiz-adv-x="540" 
d="M476 479v-479h-79v59h-2c-42 -57 -95 -76 -145 -76c-84 0 -182 54 -182 216v280h79v-274c0 -97 46 -150 116 -150c82 0 134 57 134 168v256h79zM275 730l140 -127l-41 -45l-99 81l-99 -81l-41 45z" />
    <glyph glyph-name="utilde" unicode="&#x169;" horiz-adv-x="540" 
d="M471 479v-479h-79v59h-2c-42 -57 -95 -76 -145 -76c-84 0 -182 54 -182 216v280h79v-274c0 -97 46 -150 116 -150c82 0 134 57 134 168v256h79zM170 593h-60c3 62 27 116 93 116c32 0 51 -12 76 -33c22 -18 42 -30 60 -30s30 13 31 55h60c-3 -70 -29 -116 -95 -116
c-29 0 -56 11 -81 32c-27 22 -40 31 -53 31c-19 0 -29 -19 -31 -55z" />
    <glyph glyph-name="udieresis" unicode="&#xfc;" horiz-adv-x="540" 
d="M476 479v-479h-79v59h-2c-42 -57 -95 -76 -145 -76c-84 0 -182 54 -182 216v280h79v-274c0 -97 46 -150 116 -150c82 0 134 57 134 168v256h79zM142 596v88h92v-88h-92zM316 596v88h92v-88h-92z" />
    <glyph glyph-name="umacron" unicode="&#x16b;" horiz-adv-x="540" 
d="M471 479v-479h-79v59h-2c-42 -57 -95 -76 -145 -76c-84 0 -182 54 -182 216v280h79v-274c0 -97 46 -150 116 -150c82 0 134 57 134 168v256h79zM404 604h-268v65h268v-65z" />
    <glyph glyph-name="ubreve" unicode="&#x16d;" horiz-adv-x="540" 
d="M471 479v-479h-79v59h-2c-42 -57 -95 -76 -145 -76c-84 0 -182 54 -182 216v280h79v-274c0 -97 46 -150 116 -150c82 0 134 57 134 168v256h79zM360 714h66c-4 -84 -71 -147 -156 -147c-87 0 -152 63 -156 147h66c3 -49 39 -80 90 -80c50 0 87 31 90 80z" />
    <glyph glyph-name="uring" unicode="&#x16f;" horiz-adv-x="540" 
d="M471 479v-479h-79v59h-2c-42 -57 -95 -76 -145 -76c-84 0 -182 54 -182 216v280h79v-274c0 -97 46 -150 116 -150c82 0 134 57 134 168v256h79zM203 653c0 -37 31 -68 68 -68s66 31 66 68s-29 66 -66 66s-68 -29 -68 -66zM148 653c0 67 54 121 123 121
c67 0 121 -54 121 -121c0 -68 -54 -123 -121 -123c-69 0 -123 55 -123 123z" />
    <glyph glyph-name="uhungarumlaut" unicode="&#x171;" horiz-adv-x="540" 
d="M471 479v-479h-79v59h-2c-42 -57 -95 -76 -145 -76c-84 0 -182 54 -182 216v280h79v-274c0 -97 46 -150 116 -150c82 0 134 57 134 168v256h79zM238 754l66 -45l-114 -151l-50 34zM398 754l66 -45l-114 -151l-50 34z" />
    <glyph glyph-name="uogonek" unicode="&#x173;" horiz-adv-x="540" 
d="M493 -143v-65c-16 -4 -31 -7 -51 -7c-83 0 -115 48 -115 105c0 37 23 84 70 110h-5v59h-2c-42 -57 -95 -76 -145 -76c-84 0 -182 54 -182 216v280h79v-274c0 -97 46 -150 116 -150c82 0 134 57 134 168v256h79v-479c-26 -3 -70 -35 -70 -98c0 -34 21 -49 50 -49
c13 0 26 1 42 4z" />
    <glyph glyph-name="wcircumflex" unicode="&#x175;" horiz-adv-x="690" 
d="M437 0l-70 283c-9 38 -15 69 -21 104h-4c-5 -35 -12 -77 -24 -124l-64 -263h-103l-126 479h80l75 -316c11 -48 14 -63 20 -95h4c6 31 14 63 23 100l75 311h86l78 -315c10 -41 15 -66 21 -96h3c5 37 13 75 18 95l77 316h79l-126 -479h-101zM346 730l140 -127l-41 -45
l-99 81l-99 -81l-41 45z" />
    <glyph glyph-name="wacute" unicode="&#x1e83;" horiz-adv-x="690" 
d="M437 0l-70 283c-9 38 -15 69 -21 104h-4c-5 -35 -12 -77 -24 -124l-64 -263h-103l-126 479h80l75 -316c11 -48 14 -63 20 -95h4c6 31 14 63 23 100l75 311h86l78 -315c10 -41 15 -66 21 -96h3c5 37 13 75 18 95l77 316h79l-126 -479h-101zM277 600l132 150l58 -55
l-146 -137z" />
    <glyph glyph-name="wdieresis" unicode="&#x1e85;" horiz-adv-x="690" 
d="M437 0l-70 283c-9 38 -15 69 -21 104h-4c-5 -35 -12 -77 -24 -124l-64 -263h-103l-126 479h80l75 -316c11 -48 14 -63 20 -95h4c6 31 14 63 23 100l75 311h86l78 -315c10 -41 15 -66 21 -96h3c5 37 13 75 18 95l77 316h79l-126 -479h-101zM213 596v88h92v-88h-92z
M387 596v88h92v-88h-92z" />
    <glyph glyph-name="wgrave" unicode="&#x1e81;" horiz-adv-x="690" 
d="M437 0l-70 283c-9 38 -15 69 -21 104h-4c-5 -35 -12 -77 -24 -124l-64 -263h-103l-126 479h80l75 -316c11 -48 14 -63 20 -95h4c6 31 14 63 23 100l75 311h86l78 -315c10 -41 15 -66 21 -96h3c5 37 13 75 18 95l77 316h79l-126 -479h-101zM235 695l58 55l132 -150
l-44 -42z" />
    <glyph glyph-name="yacute" unicode="&#xfd;" horiz-adv-x="432" 
d="M435 479l-264 -714h-76l87 235l-176 479h81l101 -279c9 -23 27 -75 32 -101h2c11 34 21 66 33 101l100 279h80zM152 600l132 150l58 -55l-146 -137z" />
    <glyph glyph-name="ycircumflex" unicode="&#x177;" horiz-adv-x="432" 
d="M430 479l-264 -714h-76l87 235l-176 479h81l101 -279c9 -23 27 -75 32 -101h2c11 34 21 66 33 101l100 279h80zM216 730l140 -127l-41 -45l-99 81l-99 -81l-41 45z" />
    <glyph glyph-name="ydieresis" unicode="&#xff;" horiz-adv-x="432" 
d="M435 479l-264 -714h-76l87 235l-176 479h81l101 -279c9 -23 27 -75 32 -101h2c11 34 21 66 33 101l100 279h80zM88 596v88h92v-88h-92zM262 596v88h92v-88h-92z" />
    <glyph glyph-name="ygrave" unicode="&#x1ef3;" horiz-adv-x="432" 
d="M430 479l-264 -714h-76l87 235l-176 479h81l101 -279c9 -23 27 -75 32 -101h2c11 34 21 66 33 101l100 279h80zM105 695l58 55l132 -150l-44 -42z" />
    <glyph glyph-name="zacute" unicode="&#x17a;" horiz-adv-x="482" 
d="M53 413v66h376v-62l-288 -350h300v-67h-400v63l289 350h-277zM162 600l132 150l58 -55l-146 -137z" />
    <glyph glyph-name="zcaron" unicode="&#x17e;" horiz-adv-x="482" 
d="M58 413v66h376v-62l-288 -350h300v-67h-400v63l289 350h-277zM236 558l-140 127l41 45l99 -81l99 81l41 -45z" />
    <glyph glyph-name="zdotaccent" unicode="&#x17c;" horiz-adv-x="482" 
d="M53 413v66h376v-62l-288 -350h300v-67h-400v63l289 350h-277zM184 596v89h94v-89h-94z" />
    <glyph glyph-name="grave.cap" horiz-adv-x="328" 
d="M38 819l38 71l173 -100l-29 -54z" />
    <glyph glyph-name="acute" unicode="&#xb4;" horiz-adv-x="328" 
d="M95 600l132 150l58 -55l-146 -137z" />
    <glyph glyph-name="acute.cap" horiz-adv-x="328" 
d="M252 890l38 -71l-182 -83l-29 54z" />
    <glyph glyph-name="circumflex" unicode="&#x2c6;" horiz-adv-x="328" 
d="M164 730l140 -127l-41 -45l-99 81l-99 -81l-41 45z" />
    <glyph glyph-name="circumflex.cap" horiz-adv-x="328" 
d="M164 885l140 -98l-27 -49l-113 58l-113 -58l-27 49z" />
    <glyph glyph-name="caron" unicode="&#x2c7;" horiz-adv-x="328" 
d="M164 558l-140 127l41 45l99 -81l99 81l41 -45z" />
    <glyph glyph-name="caron.cap" horiz-adv-x="328" 
d="M164 738l-140 98l27 49l113 -58l113 58l27 -49z" />
    <glyph glyph-name="caron.alt" horiz-adv-x="211" 
d="M61 637v83h92v-46c0 -54 -17 -96 -29 -116h-49c14 20 23 54 24 79h-38z" />
    <glyph glyph-name="tilde" unicode="&#x2dc;" horiz-adv-x="328" 
d="M64 593h-60c3 62 27 116 93 116c32 0 51 -12 76 -33c22 -18 42 -30 60 -30s30 13 31 55h60c-3 -70 -29 -116 -95 -116c-29 0 -56 11 -81 32c-27 22 -40 31 -53 31c-19 0 -29 -19 -31 -55z" />
    <glyph glyph-name="tilde.cap" horiz-adv-x="328" 
d="M64 773h-60c3 62 27 116 93 116c32 0 51 -12 76 -33c22 -18 42 -30 60 -30s30 13 31 55h60c-3 -70 -29 -116 -95 -116c-29 0 -56 11 -81 32c-27 22 -40 31 -53 31c-19 0 -29 -19 -31 -55z" />
    <glyph glyph-name="dieresis" unicode="&#xa8;" horiz-adv-x="328" 
d="M31 596v88h92v-88h-92zM205 596v88h92v-88h-92z" />
    <glyph glyph-name="dieresis.cap" horiz-adv-x="328" 
d="M31 776v88h92v-88h-92zM205 776v88h92v-88h-92z" />
    <glyph glyph-name="macron" unicode="&#xaf;" horiz-adv-x="328" 
d="M298 604h-268v65h268v-65z" />
    <glyph glyph-name="macron.cap" horiz-adv-x="328" 
d="M298 784h-268v65h268v-65z" />
    <glyph glyph-name="uni02C9" unicode="&#x2c9;" horiz-adv-x="328" 
d="M298 604h-268v65h268v-65z" />
    <glyph glyph-name="breve" unicode="&#x2d8;" horiz-adv-x="328" 
d="M254 714h66c-4 -84 -71 -147 -156 -147c-87 0 -152 63 -156 147h66c3 -49 39 -80 90 -80c50 0 87 31 90 80z" />
    <glyph glyph-name="breve.cap" horiz-adv-x="328" 
d="M254 879h66c-4 -77 -65 -132 -156 -132c-102 0 -153 61 -156 132h66c2 -39 34 -65 90 -65c59 0 88 30 90 65z" />
    <glyph glyph-name="ring" unicode="&#x2da;" horiz-adv-x="328" 
d="M97 653c0 -37 31 -68 68 -68s66 31 66 68s-29 66 -66 66s-68 -29 -68 -66zM42 653c0 67 54 121 123 121c67 0 121 -54 121 -121c0 -68 -54 -123 -121 -123c-69 0 -123 55 -123 123z" />
    <glyph glyph-name="ring.cap" horiz-adv-x="328" 
d="M97 838c0 -37 31 -68 68 -68s66 31 66 68s-29 66 -66 66s-68 -29 -68 -66zM42 838c0 67 54 121 123 121c67 0 121 -54 121 -121c0 -68 -54 -123 -121 -123c-69 0 -123 55 -123 123z" />
    <glyph glyph-name="hungarumlaut" unicode="&#x2dd;" horiz-adv-x="328" 
d="M132 754l66 -45l-114 -151l-50 34zM292 754l66 -45l-114 -151l-50 34z" />
    <glyph glyph-name="hungarumlaut.cap" horiz-adv-x="328" 
d="M195 894l46 -66l-160 -101l-35 50zM382 894l46 -66l-160 -101l-35 50z" />
    <glyph glyph-name="dotaccent" unicode="&#x2d9;" horiz-adv-x="328" 
d="M117 596v89h94v-89h-94z" />
    <glyph glyph-name="dotaccent.cap" horiz-adv-x="328" 
d="M117 776v89h94v-89h-94z" />
    <glyph glyph-name="cedilla" unicode="&#xb8;" horiz-adv-x="328" 
d="M140 0h62l-16 -39c48 -10 80 -46 80 -93c0 -60 -40 -103 -114 -103c-37 0 -71 6 -98 15l20 56c14 -6 45 -11 67 -11c34 0 57 12 57 39c0 31 -29 47 -95 47z" />
    <glyph glyph-name="ogonek" unicode="&#x2db;" horiz-adv-x="328" 
d="M244 -143v-65c-16 -4 -31 -7 -51 -7c-83 0 -115 48 -115 105c0 37 23 84 70 110h60c-43 -35 -56 -70 -56 -98c0 -34 21 -49 50 -49c13 0 26 1 42 4z" />
    <glyph glyph-name="commaaccent" horiz-adv-x="328" 
d="M115 -151v83h92v-46c0 -54 -17 -96 -29 -116h-49c14 20 23 54 24 79h-38z" />
    <glyph glyph-name="commaaccent.alt" horiz-adv-x="328" 
d="M220 634v-83h-92v46c0 54 17 96 29 116h49c-14 -20 -23 -54 -24 -79h38z" />
    <glyph glyph-name="ellipsis" unicode="&#x2026;" horiz-adv-x="1010" 
d="M117 0v110h110v-110h-110zM450 0v110h110v-110h-110zM783 0v110h110v-110h-110z" />
    <glyph glyph-name="uni00AD" unicode="&#xad;" horiz-adv-x="471" 
d="M405 224h-322v80h322v-80z" />
    <glyph glyph-name="exclamdown" unicode="&#xa1;" horiz-adv-x="229" 
d="M159 682v-88h-88v88h88zM159 0h-88l8 493h72z" />
    <glyph glyph-name="questiondown" unicode="&#xbf;" horiz-adv-x="435" 
d="M122 360c42 42 58 76 58 133h73c0 -73 -9 -115 -56 -169c-56 -64 -95 -94 -95 -158c0 -63 41 -114 116 -114c62 0 114 45 114 120h87c-3 -115 -91 -194 -204 -194c-133 0 -199 87 -199 180c0 97 61 157 106 202zM261 682v-88h-88v88h88z" />
    <glyph glyph-name="quoteleft" unicode="&#x2018;" horiz-adv-x="229" 
d="M165 598v-99h-100v49c0 72 21 130 48 172h50c-24 -37 -32 -79 -34 -122h36z" />
    <glyph glyph-name="quoteright" unicode="&#x2019;" horiz-adv-x="229" 
d="M64 621v99h100v-49c0 -72 -21 -130 -48 -172h-50c24 37 32 79 34 122h-36z" />
    <glyph glyph-name="quotedblleft" unicode="&#x201c;" horiz-adv-x="385" 
d="M165 598v-99h-100v49c0 72 21 130 48 172h50c-24 -37 -32 -79 -34 -122h36zM321 598v-99h-100v49c0 72 21 130 48 172h50c-24 -37 -32 -79 -34 -122h36z" />
    <glyph glyph-name="quotedblright" unicode="&#x201d;" horiz-adv-x="385" 
d="M220 621v99h100v-49c0 -72 -21 -130 -48 -172h-50c24 37 32 79 34 122h-36zM64 621v99h100v-49c0 -72 -21 -130 -48 -172h-50c24 37 32 79 34 122h-36z" />
    <glyph glyph-name="quotesinglbase" unicode="&#x201a;" horiz-adv-x="229" 
d="M64 0v99h100v-49c0 -72 -21 -130 -48 -172h-50c24 37 32 79 34 122h-36z" />
    <glyph glyph-name="quotedblbase" unicode="&#x201e;" horiz-adv-x="385" 
d="M220 0v99h100v-49c0 -72 -21 -130 -48 -172h-50c24 37 32 79 34 122h-36zM64 0v99h100v-49c0 -72 -21 -130 -48 -172h-50c24 37 32 79 34 122h-36z" />
    <glyph glyph-name="guilsinglleft" unicode="&#x2039;" horiz-adv-x="294" 
d="M60 248l125 203l54 -29l-90 -174l90 -174l-54 -30z" />
    <glyph glyph-name="guilsinglright" unicode="&#x203a;" horiz-adv-x="294" 
d="M234 247l-125 -203l-54 29l90 174l-90 174l54 30z" />
    <glyph glyph-name="guillemotleft" unicode="&#xab;" horiz-adv-x="466" 
d="M232 248l125 203l54 -29l-90 -174l90 -174l-54 -30zM60 248l125 203l54 -29l-90 -174l90 -174l-54 -30z" />
    <glyph glyph-name="guillemotright" unicode="&#xbb;" horiz-adv-x="466" 
d="M234 247l-125 -203l-54 29l90 174l-90 174l54 30zM406 247l-125 -203l-54 29l90 174l-90 174l54 30z" />
    <glyph glyph-name="endash" unicode="&#x2013;" horiz-adv-x="560" 
d="M482 224h-404v80h404v-80z" />
    <glyph glyph-name="emdash" unicode="&#x2014;" horiz-adv-x="1110" 
d="M1032 224h-954v80h954v-80z" />
    <glyph glyph-name="bullet" unicode="&#x2022;" horiz-adv-x="388" 
d="M68 304c0 69 56 126 125 126s127 -57 127 -126c0 -70 -58 -126 -127 -126s-125 56 -125 126z" />
    <glyph glyph-name="periodcentered" unicode="&#xb7;" horiz-adv-x="229" 
d="M65 300v110h110v-110h-110z" />
    <glyph glyph-name="uni2219" unicode="&#x2219;" horiz-adv-x="229" 
d="M65 300v110h110v-110h-110z" />
    <glyph glyph-name="dagger" unicode="&#x2020;" horiz-adv-x="430" 
d="M385 450l-142 11l11 -89l-11 -372h-57l-11 372l11 89l-141 -11v79l141 -11l-11 164h79l-11 -164l142 11v-79z" />
    <glyph glyph-name="daggerdbl" unicode="&#x2021;" horiz-adv-x="430" 
d="M254 169l-11 -169h-57l-11 169l11 78l-141 -11v80l141 -11l-11 78l11 78l-141 -11v79l141 -11l-11 164h79l-11 -164l142 11v-79l-142 11l11 -78l-11 -78l142 11v-80l-142 11z" />
    <glyph glyph-name="section" unicode="&#xa7;" horiz-adv-x="430" 
d="M377 331c0 -51 -27 -93 -78 -117c40 -26 61 -68 61 -114c0 -71 -49 -141 -154 -141c-100 0 -150 56 -155 140h74c2 -44 23 -77 82 -77c51 0 78 35 78 73c0 39 -19 67 -86 94c-86 35 -144 79 -144 160c0 48 30 92 81 108c-40 28 -65 61 -65 116c0 71 53 131 150 131
c93 0 140 -59 143 -126h-71c-4 39 -33 61 -74 61c-59 0 -74 -37 -74 -63c0 -39 18 -61 111 -102c71 -31 121 -73 121 -143zM302 328c0 46 -35 67 -107 96c-34 -5 -66 -31 -66 -70c0 -48 26 -68 113 -108c40 16 60 48 60 82z" />
    <glyph glyph-name="paragraph" unicode="&#xb6;" horiz-adv-x="560" 
d="M483 621h-65v-621h-65v621h-80v-621h-64v369c-107 2 -173 68 -173 158c0 100 71 155 176 155h271v-61z" />
    <glyph glyph-name="brokenbar" unicode="&#xa6;" horiz-adv-x="380" 
d="M225 390h-72v300h72v-300zM225 -110h-72v300h72v-300z" />
    <glyph glyph-name="copyright" unicode="&#xa9;" horiz-adv-x="826" 
d="M415 550c106 0 159 -71 174 -133h-73c-12 44 -49 69 -101 69c-69 0 -123 -48 -123 -140c0 -79 48 -140 126 -140c51 0 90 29 102 77h73c-21 -80 -85 -140 -178 -140c-118 0 -193 87 -193 205c0 116 82 202 193 202zM50 341c0 200 163 363 363 363
c201 0 363 -163 363 -363s-162 -363 -363 -363c-200 0 -363 163 -363 363zM99 341c0 -173 141 -314 314 -314c174 0 314 141 314 314s-140 314 -314 314c-173 0 -314 -141 -314 -314z" />
    <glyph glyph-name="registered" unicode="&#xae;" horiz-adv-x="485" 
d="M37 498c0 113 93 206 206 206s205 -93 205 -206c0 -114 -92 -205 -205 -205s-206 91 -206 205zM76 498c0 -92 76 -166 167 -166c92 0 166 74 166 166c0 91 -74 166 -166 166c-91 0 -167 -75 -167 -166zM284 478l66 -90h-54l-61 85h-26v-85h-47v226h88c62 0 87 -35 87 -70
s-23 -59 -53 -66zM287 542c0 17 -8 35 -43 35h-35v-69h34c31 0 44 12 44 34z" />
    <glyph glyph-name="trademark" unicode="&#x2122;" horiz-adv-x="582" 
d="M474 682l17 -212h-51l-6 117c-1 22 -1 38 -1 49h-3c-3 -11 -4 -26 -11 -49l-38 -117h-44l-34 110c-9 29 -12 45 -14 56h-2c0 -11 0 -29 -1 -52l-7 -114h-51l19 212h68l35 -106c7 -21 9 -28 10 -35h1c3 10 5 18 11 36l34 105h68zM67 636v46h158v-46h-55v-166h-50v166h-53z
" />
    <glyph glyph-name="currency" unicode="&#xa4;" horiz-adv-x="618" 
d="M535 174l-43 -44l-67 67c-33 -25 -74 -39 -117 -39c-34 0 -79 10 -117 39l-67 -67l-42 44l68 65c-24 33 -39 73 -39 115s14 83 39 115c-23 22 -68 66 -68 66l42 44l67 -67c40 28 83 38 117 38c37 0 83 -12 116 -38l68 67l43 -44l-68 -66c27 -36 38 -78 38 -115
c0 -41 -13 -80 -38 -115c22 -22 45 -44 68 -65zM444 355c0 80 -67 135 -135 135c-79 0 -137 -63 -137 -135c0 -74 61 -137 136 -137s136 62 136 137z" />
    <glyph glyph-name="Euro" unicode="&#x20ac;" horiz-adv-x="562" 
d="M543 78v-77c-37 -13 -75 -23 -135 -23c-175 0 -269 112 -300 254h-87l20 66h55c-1 13 -1 30 -1 43c0 18 2 42 3 59h-66l20 67h59c39 145 148 237 297 237c44 0 87 -9 122 -22l-19 -70c-27 11 -66 19 -106 19c-83 0 -170 -50 -206 -164h274l-20 -67h-269
c-2 -17 -3 -40 -3 -58c0 -13 0 -31 1 -44h247l-20 -66h-213c30 -106 104 -180 219 -180c47 0 100 15 128 26z" />
    <glyph glyph-name="cent" unicode="&#xa2;" horiz-adv-x="562" 
d="M259 0v93c-118 19 -212 112 -212 255c0 127 83 232 212 251v83h67v-81c118 -10 174 -87 189 -138h-84c-16 34 -53 62 -105 70v-373c61 7 95 43 112 79h84c-24 -67 -90 -139 -196 -148v-91h-67zM129 347c0 -91 52 -163 130 -183v366c-72 -16 -130 -80 -130 -183z" />
    <glyph glyph-name="sterling" unicode="&#xa3;" horiz-adv-x="562" 
d="M415 389v-71h-199c5 -30 9 -62 9 -91c0 -65 -27 -101 -51 -121c31 0 83 -16 117 -27c36 -12 78 -26 109 -26c46 0 58 46 59 105h78c-2 -92 -34 -180 -129 -180c-49 0 -99 16 -144 31c-38 12 -74 24 -104 24c-36 0 -74 -12 -107 -31v72c62 26 97 87 97 139
c0 41 -4 75 -11 105h-86v71h67c-7 35 -14 74 -14 128c0 101 65 188 196 188c121 0 195 -83 200 -193h-83c-2 73 -54 121 -115 121c-74 0 -115 -52 -115 -124c0 -41 5 -83 12 -120h214z" />
    <glyph glyph-name="florin" unicode="&#x192;" horiz-adv-x="562" 
d="M143 -93l81 509h-85v66h95l10 64c19 112 69 158 151 158c21 0 40 -3 55 -6v-64c-14 3 -32 4 -46 4c-49 0 -71 -32 -79 -83l-12 -73h92v-66h-102l-82 -515c-20 -122 -76 -158 -151 -158c-21 0 -42 2 -56 6v65c14 -3 32 -5 46 -5c49 0 72 29 83 98z" />
    <glyph glyph-name="yen" unicode="&#xa5;" horiz-adv-x="562" 
d="M58 283v67h146l-176 332h89l126 -247c15 -29 29 -57 39 -84h2c11 28 22 52 37 83l124 248h89l-177 -332h147v-67h-182v-91h182v-67h-182v-125h-82v125h-182v67h182v91h-182z" />
    <glyph glyph-name="ordfeminine" unicode="&#xaa;" horiz-adv-x="376" 
d="M350 388v-56c-7 -4 -21 -7 -36 -7c-30 0 -57 18 -62 55c-24 -35 -66 -58 -112 -58c-62 0 -109 35 -109 102c0 69 62 127 219 140v3c0 54 -21 80 -64 80c-42 0 -69 -17 -77 -52h-65c12 68 70 109 142 109c80 0 131 -45 131 -144v-133c0 -33 7 -42 20 -42c4 0 8 1 13 3z
M250 485v23c-118 -11 -150 -49 -150 -81c0 -30 20 -47 55 -47c59 0 95 41 95 105z" />
    <glyph glyph-name="ordmasculine" unicode="&#xba;" horiz-adv-x="448" 
d="M32 515c0 113 84 189 192 189c115 0 192 -86 192 -189c0 -108 -77 -191 -192 -191c-109 0 -192 77 -192 191zM107 514c0 -69 49 -123 117 -123s117 52 117 123c0 69 -49 123 -117 123c-64 0 -117 -43 -117 -123z" />
    <glyph glyph-name="fraction" unicode="&#x2044;" horiz-adv-x="190" 
d="M283 682h77l-453 -682h-77z" />
    <glyph glyph-name="uni2215" unicode="&#x2215;" horiz-adv-x="190" 
d="M283 682h77l-453 -682h-77z" />
    <glyph glyph-name="onequarter" unicode="&#xbc;" horiz-adv-x="906" 
d="M170 250v372h-67v62h140v-434h-73zM651 682h77l-453 -682h-77zM876 85h-65v-85h-73v85h-203v56l209 293h67v-290h65v-59zM706 281l-98 -137h130v139c0 25 2 31 3 49h-3c-8 -16 -22 -37 -32 -51z" />
    <glyph glyph-name="onehalf" unicode="&#xbd;" horiz-adv-x="956" 
d="M170 250v372h-67v62h140v-434h-73zM651 682h77l-453 -682h-77zM617 0v52l143 152c37 41 68 75 68 117c0 38 -26 64 -69 64c-44 0 -68 -28 -71 -74h-73c4 77 53 136 147 136c89 0 143 -55 143 -123c0 -57 -34 -98 -95 -162l-93 -98h194v-64h-294z" />
    <glyph glyph-name="threequarters" unicode="&#xbe;" horiz-adv-x="936" 
d="M125 575h-72c4 67 54 122 144 122s141 -47 141 -112c0 -49 -34 -85 -78 -96v-2c55 -12 93 -52 93 -114c0 -71 -52 -137 -157 -137c-98 0 -148 53 -156 133h73c7 -48 35 -73 84 -73c52 0 82 35 82 82c0 41 -28 77 -95 77h-29v57h25c50 0 83 25 83 64c0 35 -22 62 -68 62
c-47 0 -67 -32 -70 -63zM681 682h77l-453 -682h-77zM906 85h-65v-85h-73v85h-203v56l209 293h67v-290h65v-59zM736 281l-98 -137h130v139c0 25 2 31 3 49h-3c-8 -16 -22 -37 -32 -51z" />
    <glyph glyph-name="perthousand" unicode="&#x2030;" horiz-adv-x="1083" 
d="M561 682h82l-448 -682h-82zM48 519c0 134 78 184 150 184c66 0 141 -43 141 -182c0 -153 -88 -189 -144 -189c-68 0 -147 43 -147 187zM269 519c0 81 -27 119 -75 119c-41 0 -76 -31 -76 -118c0 -88 31 -123 77 -123c39 0 74 33 74 122zM414 165c0 133 77 183 149 183
c67 0 142 -43 142 -181c0 -154 -88 -189 -145 -189c-68 0 -146 42 -146 187zM635 165c0 80 -27 118 -76 118c-40 0 -75 -31 -75 -117c0 -89 30 -123 76 -123c39 0 75 31 75 122zM744 165c0 133 77 183 149 183c67 0 142 -43 142 -181c0 -154 -88 -189 -145 -189
c-68 0 -146 42 -146 187zM965 165c0 80 -27 118 -76 118c-40 0 -75 -31 -75 -117c0 -89 30 -123 76 -123c40 0 75 31 75 122z" />
    <glyph glyph-name="minus" unicode="&#x2212;" horiz-adv-x="672" 
d="M593 227h-515v74h515v-74z" />
    <glyph glyph-name="plusminus" unicode="&#xb1;" horiz-adv-x="672" 
d="M593 0h-515v74h515v-74zM593 328h-221v-187h-74v187h-220v74h220v189h74v-189h221v-74z" />
    <glyph glyph-name="multiply" unicode="&#xd7;" horiz-adv-x="672" 
d="M581 59l-52 -52l-194 198l-195 -198l-52 52l195 196l-196 197l52 52l194 -196l195 194l52 -52l-194 -195z" />
    <glyph glyph-name="divide" unicode="&#xf7;" horiz-adv-x="672" 
d="M593 227h-515v74h515v-74zM390 455c0 -33 -26 -54 -54 -54c-29 0 -54 25 -54 53c0 30 23 55 54 55c32 0 54 -24 54 -54zM390 75c0 -33 -25 -56 -53 -56c-30 0 -55 26 -55 55s23 54 54 54c32 0 54 -24 54 -53z" />
    <glyph glyph-name="notequal" unicode="&#x2260;" horiz-adv-x="672" 
d="M447 552h84l-79 -139h143v-73h-178l-80 -149h258v-74h-297l-74 -131h-84l74 131h-138v74h177l80 149h-257v73h292z" />
    <glyph glyph-name="approxequal" unicode="&#x2248;" horiz-adv-x="672" 
d="M617 391c-42 -52 -90 -91 -166 -91c-42 0 -85 12 -125 34c-32 18 -69 37 -108 37c-48 0 -84 -39 -110 -72l-53 60c40 49 83 91 161 91c49 0 95 -18 126 -35c33 -18 72 -35 109 -35c48 0 84 34 111 70zM617 169c-42 -51 -90 -90 -166 -90c-42 0 -85 12 -125 34
c-32 18 -69 35 -108 35c-48 0 -84 -37 -110 -70l-53 59c40 50 83 91 161 91c49 0 95 -17 126 -34c33 -19 72 -36 109 -36c48 0 84 36 111 71z" />
    <glyph glyph-name="lessequal" unicode="&#x2264;" horiz-adv-x="672" 
d="M593 0h-515v74h515v-74zM593 136l-515 205v63l515 206v-82l-394 -154v-2l394 -153v-83z" />
    <glyph glyph-name="greaterequal" unicode="&#x2265;" horiz-adv-x="672" 
d="M594 0h-515v74h515v-74zM594 341l-515 -205v83l394 153v2l-394 154v82l515 -206v-63z" />
    <glyph glyph-name="logicalnot" unicode="&#xac;" horiz-adv-x="672" 
d="M595 111h-76v194h-443v72h519v-266z" />
    <glyph glyph-name="degree" unicode="&#xb0;" horiz-adv-x="361" 
d="M55 571c0 69 56 125 126 125c69 0 125 -56 125 -125s-56 -125 -125 -125c-70 0 -126 56 -126 125zM106 570c0 -42 33 -74 75 -74c41 0 74 32 74 74s-33 76 -74 76c-42 0 -75 -34 -75 -76z" />
    <glyph glyph-name="afii61289" unicode="&#x2113;" horiz-adv-x="562" 
d="M418 98l37 -42c-27 -28 -80 -70 -138 -70c-85 0 -123 73 -123 154v85l-57 -62l-37 36l94 103v223c0 120 51 179 126 179c74 0 100 -62 100 -108c0 -96 -48 -179 -113 -263c-10 -11 -26 -31 -34 -41v-151c0 -67 28 -90 63 -90c33 0 61 25 82 47zM362 586
c0 27 -10 54 -37 54c-31 0 -52 -29 -52 -109v-156c6 7 15 18 20 26c41 60 69 128 69 185z" />
    <glyph glyph-name="estimated" unicode="&#x212e;" horiz-adv-x="670" 
d="M631 298h-460v-205c45 -44 99 -67 163 -67c106 0 171 54 221 136c12 -8 24 -15 37 -23c-61 -91 -132 -151 -258 -151c-177 0 -290 140 -290 310c0 172 110 311 292 311c184 0 290 -139 295 -311zM500 336v167c-43 42 -102 68 -165 68c-64 0 -120 -22 -164 -66v-169h329z
" />
    <glyph glyph-name="infinity" unicode="&#x221e;" horiz-adv-x="838" 
d="M782 291c0 -93 -66 -170 -172 -170c-81 0 -150 49 -192 114h-3c-45 -65 -111 -114 -189 -114c-104 0 -173 69 -173 166c0 101 70 171 171 171c87 0 150 -53 191 -116h3c36 52 100 116 189 116c101 0 175 -67 175 -167zM709 290c0 55 -32 104 -106 104
c-63 0 -111 -44 -151 -105c39 -66 93 -106 152 -106c74 0 105 51 105 107zM382 289c-38 63 -97 105 -154 105c-70 0 -103 -49 -103 -107c0 -60 43 -104 103 -104c63 0 117 48 154 106z" />
    <glyph glyph-name="partialdiff" unicode="&#x2202;" horiz-adv-x="615" 
d="M559 472c0 -62 -8 -124 -25 -188c-40 -149 -136 -295 -287 -295c-112 0 -189 77 -189 194c0 198 141 309 268 309c74 0 123 -37 142 -75h2c4 20 5 40 5 65c0 108 -53 171 -146 171c-33 0 -72 -11 -102 -28l-21 60c27 17 81 36 137 36c131 0 216 -91 216 -249zM458 341
c-13 47 -53 88 -121 88c-101 0 -192 -108 -192 -250c0 -73 40 -122 104 -122c98 0 176 118 209 284z" />
    <glyph glyph-name="integral" unicode="&#x222b;" horiz-adv-x="522" 
d="M450 727l-19 -64c-10 5 -29 10 -48 10c-57 0 -85 -36 -85 -99v-629c0 -111 -59 -175 -160 -175c-24 0 -57 7 -75 14l18 64c12 -4 29 -9 49 -9c56 0 85 36 85 98v632c0 106 54 172 160 172c29 0 60 -6 75 -14z" />
    <glyph glyph-name="radical" unicode="&#x221a;" horiz-adv-x="565" 
d="M558 720c-69 -244 -139 -488 -208 -732h-68c-48 111 -97 222 -145 333c-19 -11 -38 -23 -57 -34c-9 16 -18 31 -27 47c40 25 81 51 121 76c47 -108 94 -215 141 -322c60 210 120 422 180 632h63z" />
    <glyph glyph-name="summation" unicode="&#x2211;" horiz-adv-x="672" 
d="M630 -235h-604v42l342 422l-319 406v47h555v-72h-438l299 -379l-318 -394h483v-72z" />
    <glyph glyph-name="product" unicode="&#x220f;" horiz-adv-x="767" 
d="M674 -235h-83v841h-415v-841h-83v917h581v-917z" />
    <glyph glyph-name="lozenge" unicode="&#x25ca;" horiz-adv-x="603" 
d="M317 682l219 -341l-219 -341h-44l-218 340l218 342h44zM295 80l169 261l-169 261l-168 -261z" />
    <glyph glyph-name="uniF8FF" unicode="&#xf8ff;" horiz-adv-x="500" 
d="M12 0v665h475v-665h-475zM88 618l162 -243l161 243h-323zM60 575v-484c0 -1 161 242 161 242zM440 575l-162 -242l162 -243v485zM411 48l-161 242l-162 -242h323z" />
    <glyph glyph-name="zero.denominator" 
d="M30 222c0 165 88 225 173 225c77 0 166 -52 166 -226c0 -191 -103 -236 -170 -236c-78 0 -169 52 -169 237zM293 219c0 114 -36 166 -94 166c-48 0 -93 -41 -93 -161c0 -129 40 -176 94 -176c47 0 93 43 93 171z" />
    <glyph glyph-name="one.denominator" 
d="M170 0v372h-67v62h140v-434h-73z" />
    <glyph glyph-name="two.denominator" 
d="M59 0v52l143 152c37 41 68 75 68 117c0 38 -26 64 -69 64c-44 0 -68 -28 -71 -74h-73c4 77 53 136 147 136c89 0 143 -55 143 -123c0 -57 -34 -98 -95 -162l-93 -98h194v-64h-294z" />
    <glyph glyph-name="three.denominator" 
d="M125 325h-72c4 67 54 122 144 122s141 -47 141 -112c0 -49 -34 -85 -78 -96v-2c55 -12 93 -52 93 -114c0 -71 -52 -137 -157 -137c-98 0 -148 53 -156 133h73c7 -48 35 -73 84 -73c52 0 82 35 82 82c0 41 -28 77 -95 77h-29v57h25c50 0 83 25 83 64c0 35 -22 62 -68 62
c-47 0 -67 -32 -70 -63z" />
    <glyph glyph-name="four.denominator" 
d="M368 85h-65v-85h-73v85h-203v56l209 293h67v-290h65v-59zM198 281l-98 -137h130v139c0 25 2 31 3 49h-3c-8 -16 -22 -37 -32 -51z" />
    <glyph glyph-name="five.denominator" 
d="M153 371l-10 -92c12 3 34 5 47 5c97 0 157 -59 157 -147c0 -76 -53 -151 -155 -151c-98 0 -146 58 -151 126h74c3 -36 30 -63 79 -63c43 0 75 33 75 84c0 56 -32 90 -99 90c-31 0 -66 -5 -101 -14l22 225h223v-63h-161z" />
    <glyph glyph-name="six.denominator" 
d="M30 143c0 55 22 101 59 146l123 145h78l-116 -139c12 5 30 6 44 6c89 -2 150 -70 150 -158c0 -85 -67 -157 -170 -157c-101 0 -168 67 -168 157zM103 143c0 -57 42 -96 96 -96c55 0 96 39 96 96c0 56 -39 99 -96 99s-96 -41 -96 -99z" />
    <glyph glyph-name="seven.denominator" 
d="M347 434v-56l-184 -378h-81l187 371h-211v63h289z" />
    <glyph glyph-name="eight.denominator" 
d="M125 325c0 -43 32 -70 74 -70c44 0 75 28 75 70c0 43 -32 67 -75 67s-74 -24 -74 -67zM115 124c0 -51 34 -82 85 -82c49 0 85 30 85 82c0 49 -35 82 -85 82c-49 0 -85 -31 -85 -82zM354 120c0 -74 -53 -134 -154 -134c-102 0 -156 57 -156 132c0 56 29 96 80 115v1
c-42 16 -67 52 -67 96c0 67 56 117 143 117c85 0 141 -48 141 -113c0 -47 -26 -84 -68 -98v-2c54 -19 81 -60 81 -114z" />
    <glyph glyph-name="nine.denominator" 
d="M369 290c0 -54 -25 -101 -60 -145l-123 -145h-78l116 139c-12 -5 -29 -7 -43 -7c-91 2 -151 70 -151 158c0 87 70 157 170 157s169 -64 169 -157zM296 291c0 58 -43 96 -96 96c-56 0 -96 -38 -96 -96c0 -57 39 -99 96 -99c56 0 96 38 96 99z" />
    <glyph glyph-name="zero.inferior" unicode="&#x2080;" 
d="M30 47c0 165 88 225 173 225c77 0 166 -52 166 -226c0 -191 -103 -236 -170 -236c-78 0 -169 52 -169 237zM293 44c0 114 -36 166 -94 166c-48 0 -93 -41 -93 -161c0 -129 40 -176 94 -176c47 0 93 43 93 171z" />
    <glyph glyph-name="one.inferior" unicode="&#x2081;" 
d="M170 -175v372h-67v62h140v-434h-73z" />
    <glyph glyph-name="two.inferior" unicode="&#x2082;" 
d="M59 -175v52l143 152c37 41 68 75 68 117c0 38 -26 64 -69 64c-44 0 -68 -28 -71 -74h-73c4 77 53 136 147 136c89 0 143 -55 143 -123c0 -57 -34 -98 -95 -162l-93 -98h194v-64h-294z" />
    <glyph glyph-name="three.inferior" unicode="&#x2083;" 
d="M125 150h-72c4 67 54 122 144 122s141 -47 141 -112c0 -49 -34 -85 -78 -96v-2c55 -12 93 -52 93 -114c0 -71 -52 -137 -157 -137c-98 0 -148 53 -156 133h73c7 -48 35 -73 84 -73c52 0 82 35 82 82c0 41 -28 77 -95 77h-29v57h25c50 0 83 25 83 64c0 35 -22 62 -68 62
c-47 0 -67 -32 -70 -63z" />
    <glyph glyph-name="four.inferior" unicode="&#x2084;" 
d="M368 -90h-65v-85h-73v85h-203v56l209 293h67v-290h65v-59zM198 106l-98 -137h130v139c0 25 2 31 3 49h-3c-8 -16 -22 -37 -32 -51z" />
    <glyph glyph-name="five.inferior" unicode="&#x2085;" 
d="M153 196l-10 -92c12 3 34 5 47 5c97 0 157 -59 157 -147c0 -76 -53 -151 -155 -151c-98 0 -146 58 -151 126h74c3 -36 30 -63 79 -63c43 0 75 33 75 84c0 56 -32 90 -99 90c-31 0 -66 -5 -101 -14l22 225h223v-63h-161z" />
    <glyph glyph-name="six.inferior" unicode="&#x2086;" 
d="M30 -32c0 55 22 101 59 146l123 145h78l-116 -139c12 5 30 6 44 6c89 -2 150 -70 150 -158c0 -85 -67 -157 -170 -157c-101 0 -168 67 -168 157zM103 -32c0 -57 42 -96 96 -96c55 0 96 39 96 96c0 56 -39 99 -96 99s-96 -41 -96 -99z" />
    <glyph glyph-name="seven.inferior" unicode="&#x2087;" 
d="M347 259v-56l-184 -378h-81l187 371h-211v63h289z" />
    <glyph glyph-name="eight.inferior" unicode="&#x2088;" 
d="M125 150c0 -43 32 -70 74 -70c44 0 75 28 75 70c0 43 -32 67 -75 67s-74 -24 -74 -67zM115 -51c0 -51 34 -82 85 -82c49 0 85 30 85 82c0 49 -35 82 -85 82c-49 0 -85 -31 -85 -82zM354 -55c0 -74 -53 -134 -154 -134c-102 0 -156 57 -156 132c0 56 29 96 80 115v1
c-42 16 -67 52 -67 96c0 67 56 117 143 117c85 0 141 -48 141 -113c0 -47 -26 -84 -68 -98v-2c54 -19 81 -60 81 -114z" />
    <glyph glyph-name="nine.inferior" unicode="&#x2089;" 
d="M369 115c0 -54 -25 -101 -60 -145l-123 -145h-78l116 139c-12 -5 -29 -7 -43 -7c-91 2 -151 70 -151 158c0 87 70 157 170 157s169 -64 169 -157zM296 116c0 58 -43 96 -96 96c-56 0 -96 -38 -96 -96c0 -57 39 -99 96 -99c56 0 96 38 96 99z" />
    <glyph glyph-name="zero.numerator" 
d="M30 472c0 165 88 225 173 225c77 0 166 -52 166 -226c0 -191 -103 -236 -170 -236c-78 0 -169 52 -169 237zM293 469c0 114 -36 166 -94 166c-48 0 -93 -41 -93 -161c0 -129 40 -176 94 -176c47 0 93 43 93 171z" />
    <glyph glyph-name="one.numerator" 
d="M170 250v372h-67v62h140v-434h-73z" />
    <glyph glyph-name="two.numerator" 
d="M59 250v52l143 152c37 41 68 75 68 117c0 38 -26 64 -69 64c-44 0 -68 -28 -71 -74h-73c4 77 53 136 147 136c89 0 143 -55 143 -123c0 -57 -34 -98 -95 -162l-93 -98h194v-64h-294z" />
    <glyph glyph-name="three.numerator" 
d="M125 575h-72c4 67 54 122 144 122s141 -47 141 -112c0 -49 -34 -85 -78 -96v-2c55 -12 93 -52 93 -114c0 -71 -52 -137 -157 -137c-98 0 -148 53 -156 133h73c7 -48 35 -73 84 -73c52 0 82 35 82 82c0 41 -28 77 -95 77h-29v57h25c50 0 83 25 83 64c0 35 -22 62 -68 62
c-47 0 -67 -32 -70 -63z" />
    <glyph glyph-name="four.numerator" 
d="M368 335h-65v-85h-73v85h-203v56l209 293h67v-290h65v-59zM198 532l-99 -138h131v140c0 25 2 31 3 49h-3c-8 -16 -22 -37 -32 -51z" />
    <glyph glyph-name="five.numerator" 
d="M153 621l-10 -92c12 3 34 5 47 5c97 0 157 -59 157 -147c0 -76 -53 -151 -155 -151c-98 0 -146 58 -151 126h74c3 -36 30 -63 79 -63c43 0 75 33 75 84c0 56 -32 90 -99 90c-31 0 -66 -5 -101 -14l22 225h223v-63h-161z" />
    <glyph glyph-name="six.numerator" 
d="M30 393c0 55 22 101 59 146l123 145h78l-116 -139c12 5 30 6 44 6c89 -2 150 -70 150 -158c0 -85 -67 -157 -170 -157c-101 0 -168 67 -168 157zM103 393c0 -57 42 -96 96 -96c55 0 96 39 96 96c0 56 -39 99 -96 99s-96 -41 -96 -99z" />
    <glyph glyph-name="seven.numerator" 
d="M347 684v-56l-184 -378h-81l187 371h-211v63h289z" />
    <glyph glyph-name="eight.numerator" 
d="M125 575c0 -43 32 -70 74 -70c44 0 75 28 75 70c0 43 -32 67 -75 67s-74 -24 -74 -67zM115 374c0 -51 34 -82 85 -82c49 0 85 30 85 82c0 49 -35 82 -85 82c-49 0 -85 -31 -85 -82zM354 370c0 -74 -53 -134 -154 -134c-102 0 -156 57 -156 132c0 56 29 96 80 115v1
c-42 16 -67 52 -67 96c0 67 56 117 143 117c85 0 141 -48 141 -113c0 -47 -26 -84 -68 -98v-2c54 -19 81 -60 81 -114z" />
    <glyph glyph-name="nine.numerator" 
d="M369 540c0 -54 -25 -101 -60 -145l-123 -145h-78l116 139c-12 -5 -29 -7 -43 -7c-91 2 -151 70 -151 158c0 87 70 157 170 157s169 -64 169 -157zM296 541c0 58 -43 96 -96 96c-56 0 -96 -38 -96 -96c0 -57 39 -99 96 -99c56 0 96 38 96 99z" />
    <glyph glyph-name="zero.superior" unicode="&#x2070;" 
d="M30 647c0 165 88 225 173 225c77 0 166 -52 166 -226c0 -191 -103 -236 -170 -236c-78 0 -169 52 -169 237zM293 644c0 114 -36 166 -94 166c-48 0 -93 -41 -93 -161c0 -129 40 -176 94 -176c47 0 93 43 93 171z" />
    <glyph glyph-name="onesuperior" unicode="&#xb9;" 
d="M170 425v372h-67v62h140v-434h-73z" />
    <glyph glyph-name="twosuperior" unicode="&#xb2;" 
d="M59 425v52l143 152c37 41 68 75 68 117c0 38 -26 64 -69 64c-44 0 -68 -28 -71 -74h-73c4 77 53 136 147 136c89 0 143 -55 143 -123c0 -57 -34 -98 -95 -162l-93 -98h194v-64h-294z" />
    <glyph glyph-name="threesuperior" unicode="&#xb3;" 
d="M125 750h-72c4 67 54 122 144 122s141 -47 141 -112c0 -49 -34 -85 -78 -96v-2c55 -12 93 -52 93 -114c0 -71 -52 -137 -157 -137c-98 0 -148 53 -156 133h73c7 -48 35 -73 84 -73c52 0 82 35 82 82c0 41 -28 77 -95 77h-29v57h25c50 0 83 25 83 64c0 35 -22 62 -68 62
c-47 0 -67 -32 -70 -63z" />
    <glyph glyph-name="four.superior" unicode="&#x2074;" 
d="M368 510h-65v-85h-73v85h-203v56l209 293h67v-290h65v-59zM198 707l-99 -138h131v140c0 25 2 31 3 49h-3c-8 -16 -22 -37 -32 -51z" />
    <glyph glyph-name="five.superior" unicode="&#x2075;" 
d="M153 796l-10 -92c12 3 34 5 47 5c97 0 157 -59 157 -147c0 -76 -53 -151 -155 -151c-98 0 -146 58 -151 126h74c3 -36 30 -63 79 -63c43 0 75 33 75 84c0 56 -32 90 -99 90c-31 0 -66 -5 -101 -14l22 225h223v-63h-161z" />
    <glyph glyph-name="six.superior" unicode="&#x2076;" 
d="M30 568c0 55 22 101 59 146l123 145h78l-116 -139c12 5 30 6 44 6c89 -2 150 -70 150 -158c0 -85 -67 -157 -170 -157c-101 0 -168 67 -168 157zM103 568c0 -57 42 -96 96 -96c55 0 96 39 96 96c0 56 -39 99 -96 99s-96 -41 -96 -99z" />
    <glyph glyph-name="seven.superior" unicode="&#x2077;" 
d="M347 859v-56l-184 -378h-81l187 371h-211v63h289z" />
    <glyph glyph-name="eight.superior" unicode="&#x2078;" 
d="M125 750c0 -43 32 -70 74 -70c44 0 75 28 75 70c0 43 -32 67 -75 67s-74 -24 -74 -67zM115 549c0 -51 34 -82 85 -82c49 0 85 30 85 82c0 49 -35 82 -85 82c-49 0 -85 -31 -85 -82zM354 545c0 -74 -53 -134 -154 -134c-102 0 -156 57 -156 132c0 56 29 96 80 115v1
c-42 16 -67 52 -67 96c0 67 56 117 143 117c85 0 141 -48 141 -113c0 -47 -26 -84 -68 -98v-2c54 -19 81 -60 81 -114z" />
    <glyph glyph-name="nine.superior" unicode="&#x2079;" 
d="M369 715c0 -54 -25 -101 -60 -145l-123 -145h-78l116 139c-12 -5 -29 -7 -43 -7c-91 2 -151 70 -151 158c0 87 70 157 170 157s169 -64 169 -157zM296 716c0 58 -43 96 -96 96c-56 0 -96 -38 -96 -96c0 -57 39 -99 96 -99c56 0 96 38 96 99z" />
    <glyph glyph-name="dollar.oldstyle" horiz-adv-x="519" 
d="M227 622h67v-62c85 -11 140 -65 145 -135h-79c-6 37 -31 61 -66 70v-167c105 -37 160 -88 160 -173c0 -75 -56 -141 -160 -153v-70h-67v69c-101 10 -159 66 -164 151h79c5 -48 31 -79 85 -88v209c-107 39 -148 82 -148 152s58 125 148 135v62zM374 150
c0 49 -27 75 -80 98v-185c52 10 80 45 80 87zM159 427c0 -33 12 -51 68 -75v145c-49 -8 -68 -37 -68 -70z" />
    <glyph glyph-name="zero.oldstyle" horiz-adv-x="628" 
d="M29 256c0 159 126 278 285 278c163 0 285 -122 285 -278s-123 -280 -285 -280c-160 0 -285 121 -285 280zM114 255c0 -120 93 -205 200 -205c117 0 200 87 200 205c0 113 -78 205 -200 205c-119 0 -200 -86 -200 -205z" />
    <glyph glyph-name="one.oldstyle" horiz-adv-x="368" 
d="M166 0v436h-129v76h211v-512h-82z" />
    <glyph glyph-name="two.oldstyle" horiz-adv-x="522" 
d="M53 0v64l180 125c104 72 132 108 132 169c0 57 -36 102 -104 102c-66 0 -110 -37 -114 -104h-84c8 107 79 178 199 178c121 0 189 -78 189 -167c0 -83 -32 -140 -151 -221l-102 -70h289v-76h-434z" />
    <glyph glyph-name="three.oldstyle" horiz-adv-x="548" 
d="M158 360h-85c5 101 83 173 188 173c114 0 189 -75 189 -170c0 -63 -37 -113 -91 -134v-3c90 -27 138 -104 138 -200c0 -127 -102 -223 -236 -223c-130 0 -221 86 -233 205h85c10 -79 74 -131 148 -131c84 0 150 61 150 151c0 91 -61 152 -161 152h-41v74h44
c67 0 111 42 111 103c0 56 -40 102 -103 102c-59 0 -99 -42 -103 -99z" />
    <glyph glyph-name="four.oldstyle" horiz-adv-x="591" 
d="M554 30h-97v-204h-82v204h-343v68l353 414h72v-406h97v-76zM322 335l-197 -229h250v229c0 40 1 46 2 73h-3c-13 -23 -35 -53 -52 -73z" />
    <glyph glyph-name="five.oldstyle" horiz-adv-x="564" 
d="M263 191c-66 0 -125 -13 -171 -26l37 347h349v-76h-275l-21 -181c17 4 53 12 99 12c154 0 243 -93 243 -232c0 -119 -86 -232 -231 -232c-149 0 -223 101 -233 213h86c7 -76 54 -137 147 -137c78 0 145 59 145 156c0 96 -61 156 -175 156z" />
    <glyph glyph-name="six.oldstyle" horiz-adv-x="571" 
d="M37 223c0 77 30 135 72 193l193 266h92l-168 -227c18 8 49 12 77 12c133 0 231 -109 231 -244s-109 -245 -249 -245c-141 0 -248 103 -248 245zM123 222c0 -97 69 -170 162 -170c94 0 163 73 163 170c0 95 -64 172 -163 172c-97 0 -162 -72 -162 -172z" />
    <glyph glyph-name="seven.oldstyle" horiz-adv-x="543" 
d="M489 512v-67l-312 -619h-90l314 610h-348v76h436z" />
    <glyph glyph-name="eight.oldstyle" horiz-adv-x="575" 
d="M98 529c0 101 80 175 189 175c112 0 190 -74 190 -175c0 -64 -35 -117 -87 -142v-2c79 -28 132 -101 132 -190c0 -126 -95 -219 -235 -219c-138 0 -234 91 -234 219c0 89 54 161 130 190v2c-51 25 -85 77 -85 142zM139 199c0 -92 72 -149 148 -149c84 0 148 60 148 149
c0 82 -60 148 -148 148s-148 -64 -148 -148zM182 525c0 -61 45 -104 105 -104c62 0 106 44 106 104c0 59 -44 105 -106 105c-61 0 -105 -44 -105 -105z" />
    <glyph glyph-name="nine.oldstyle" horiz-adv-x="571" 
d="M534 289c0 -77 -34 -151 -107 -243l-173 -220h-92l183 231c-18 -8 -49 -12 -77 -12c-133 0 -231 109 -231 244s109 245 249 245c141 0 248 -103 248 -245zM448 290c0 97 -69 170 -162 170c-94 0 -163 -73 -163 -170c0 -95 64 -172 163 -172c97 0 162 72 162 172z" />
    <glyph glyph-name="cent.oldstyle" horiz-adv-x="529" 
d="M307 -83h-64v109c-112 13 -197 98 -197 231c0 117 72 214 197 228v92h64v-92c101 -13 159 -85 177 -156h-82c-16 45 -49 75 -95 85v-317c52 10 87 47 101 94h81c-22 -78 -83 -152 -182 -165v-109zM128 256c0 -83 43 -145 115 -159v317c-68 -13 -115 -68 -115 -158z" />
    <glyph glyph-name="oneeighth" unicode="&#x215b;" horiz-adv-x="956" 
d="M170 250v372h-67v62h140v-434h-73zM651 682h77l-453 -682h-77zM683 325c0 -43 32 -70 74 -70c44 0 75 28 75 70c0 43 -32 67 -75 67s-74 -24 -74 -67zM673 124c0 -51 34 -82 85 -82c49 0 85 30 85 82c0 49 -35 82 -85 82c-49 0 -85 -31 -85 -82zM912 120
c0 -74 -53 -134 -154 -134c-102 0 -156 57 -156 132c0 56 29 96 80 115v1c-42 16 -67 52 -67 96c0 67 56 117 143 117c85 0 141 -48 141 -113c0 -47 -26 -84 -68 -98v-2c54 -19 81 -60 81 -114z" />
    <glyph glyph-name="threeeighths" unicode="&#x215c;" horiz-adv-x="986" 
d="M125 575h-72c4 67 54 122 144 122s141 -47 141 -112c0 -49 -34 -85 -78 -96v-2c55 -12 93 -52 93 -114c0 -71 -52 -137 -157 -137c-98 0 -148 53 -156 133h73c7 -48 35 -73 84 -73c52 0 82 35 82 82c0 41 -28 77 -95 77h-29v57h25c50 0 83 25 83 64c0 35 -22 62 -68 62
c-47 0 -67 -32 -70 -63zM681 682h77l-453 -682h-77zM713 325c0 -43 32 -70 74 -70c44 0 75 28 75 70c0 43 -32 67 -75 67s-74 -24 -74 -67zM703 124c0 -51 34 -82 85 -82c49 0 85 30 85 82c0 49 -35 82 -85 82c-49 0 -85 -31 -85 -82zM942 120c0 -74 -53 -134 -154 -134
c-102 0 -156 57 -156 132c0 56 29 96 80 115v1c-42 16 -67 52 -67 96c0 67 56 117 143 117c85 0 141 -48 141 -113c0 -47 -26 -84 -68 -98v-2c54 -19 81 -60 81 -114z" />
    <glyph glyph-name="fiveeighths" unicode="&#x215d;" horiz-adv-x="986" 
d="M153 621l-10 -92c12 3 34 5 47 5c97 0 157 -59 157 -147c0 -76 -53 -151 -155 -151c-98 0 -146 58 -151 126h74c3 -36 30 -63 79 -63c43 0 75 33 75 84c0 56 -32 90 -99 90c-31 0 -66 -5 -101 -14l22 225h223v-63h-161zM681 682h77l-453 -682h-77zM713 325
c0 -43 32 -70 74 -70c44 0 75 28 75 70c0 43 -32 67 -75 67s-74 -24 -74 -67zM703 124c0 -51 34 -82 85 -82c49 0 85 30 85 82c0 49 -35 82 -85 82c-49 0 -85 -31 -85 -82zM942 120c0 -74 -53 -134 -154 -134c-102 0 -156 57 -156 132c0 56 29 96 80 115v1
c-42 16 -67 52 -67 96c0 67 56 117 143 117c85 0 141 -48 141 -113c0 -47 -26 -84 -68 -98v-2c54 -19 81 -60 81 -114z" />
    <glyph glyph-name="seveneighths" unicode="&#x215e;" horiz-adv-x="926" 
d="M347 684v-56l-184 -378h-81l187 371h-211v63h289zM621 682h77l-453 -682h-77zM653 325c0 -43 32 -70 74 -70c44 0 75 28 75 70c0 43 -32 67 -75 67s-74 -24 -74 -67zM643 124c0 -51 34 -82 85 -82c49 0 85 30 85 82c0 49 -35 82 -85 82c-49 0 -85 -31 -85 -82zM882 120
c0 -74 -53 -134 -154 -134c-102 0 -156 57 -156 132c0 56 29 96 80 115v1c-42 16 -67 52 -67 96c0 67 56 117 143 117c85 0 141 -48 141 -113c0 -47 -26 -84 -68 -98v-2c54 -19 81 -60 81 -114z" />
    <glyph glyph-name="onethird" unicode="&#x2153;" horiz-adv-x="956" 
d="M170 250v372h-67v62h140v-434h-73zM651 682h77l-453 -682h-77zM683 325h-72c4 67 54 122 144 122s141 -47 141 -112c0 -49 -34 -85 -78 -96v-2c55 -12 93 -52 93 -114c0 -71 -52 -137 -157 -137c-98 0 -148 53 -156 133h73c7 -48 35 -73 84 -73c52 0 82 35 82 82
c0 41 -28 77 -95 77h-29v57h25c50 0 83 25 83 64c0 35 -22 62 -68 62c-47 0 -67 -32 -70 -63z" />
    <glyph glyph-name="twothirds" unicode="&#x2154;" horiz-adv-x="986" 
d="M59 250v52l143 152c37 41 68 75 68 117c0 38 -26 64 -69 64c-44 0 -68 -28 -71 -74h-73c4 77 53 136 147 136c89 0 143 -55 143 -123c0 -57 -34 -98 -95 -162l-93 -98h194v-64h-294zM681 682h77l-453 -682h-77zM713 325h-72c4 67 54 122 144 122s141 -47 141 -112
c0 -49 -34 -85 -78 -96v-2c55 -12 93 -52 93 -114c0 -71 -52 -137 -157 -137c-98 0 -148 53 -156 133h73c7 -48 35 -73 84 -73c52 0 82 35 82 82c0 41 -28 77 -95 77h-29v57h25c50 0 83 25 83 64c0 35 -22 62 -68 62c-47 0 -67 -32 -70 -63z" />
    <glyph glyph-name="longs" unicode="&#x17f;" horiz-adv-x="239" 
d="M74 0v565c0 102 52 160 151 160c20 0 41 -3 59 -8v-66c-18 6 -34 8 -54 8c-52 0 -76 -34 -76 -85v-574h-80z" />
    <glyph glyph-name="underscoredbl" unicode="&#x2017;" horiz-adv-x="550" 
d="M0 -235v55h550v-55h-550zM0 -135v55h550v-55h-550z" />
    <glyph glyph-name="quotereversed" unicode="&#x201b;" horiz-adv-x="229" 
d="M165 720v-99h-36c2 -43 10 -85 34 -122h-50c-27 42 -48 100 -48 172v49h100z" />
    <glyph glyph-name="minute" unicode="&#x2032;" horiz-adv-x="230" 
d="M117 698l68 -23l-87 -248l-53 17z" />
    <glyph glyph-name="second" unicode="&#x2033;" horiz-adv-x="420" 
d="M117 698l68 -23l-87 -248l-53 17zM307 698l68 -23l-87 -248l-53 17z" />
    <glyph glyph-name="exclamdbl" unicode="&#x203c;" horiz-adv-x="458" 
d="M71 0v88h88v-88h-88zM71 682h88l-8 -493h-72zM300 0v88h88v-88h-88zM300 682h88l-8 -493h-72z" />
    <glyph glyph-name="franc" unicode="&#x20a3;" horiz-adv-x="562" 
d="M338 128h-142v-128h-82v128h-84v71h84v483h374v-76h-292v-216h281v-76h-281v-115h142v-71z" />
    <glyph glyph-name="lira" unicode="&#x20a4;" horiz-adv-x="562" 
d="M363 253h-139c1 -9 1 -18 1 -26c0 -65 -27 -101 -51 -121c31 0 83 -16 117 -27c36 -12 78 -26 109 -26c46 0 58 46 59 105h78c-2 -92 -34 -180 -129 -180c-49 0 -99 16 -144 31c-38 12 -74 24 -104 24c-36 0 -74 -12 -107 -31v72c62 26 97 87 97 139c0 14 -1 27 -2 40
h-113v67h101l-13 60h-88v67h75c-2 20 -4 43 -4 70c0 101 65 188 196 188c121 0 195 -83 200 -193h-83c-2 73 -54 121 -115 121c-74 0 -115 -52 -115 -124c0 -21 1 -42 3 -62h171v-67h-160l12 -60h148v-67z" />
    <glyph glyph-name="peseta" unicode="&#x20a7;" horiz-adv-x="1205" 
d="M74 0v682h178c143 0 246 -64 250 -203h73v153h79v-153h128v-66h-128v-253c0 -78 24 -99 75 -99c20 0 40 3 58 8v-65c-21 -7 -46 -10 -74 -10c-116 0 -138 78 -138 169v250h-80c-21 -96 -100 -153 -250 -153h-88v-260h-83zM1154 364h-80c-8 37 -39 64 -77 64
c-49 0 -76 -29 -76 -64c0 -30 14 -55 101 -83c106 -34 139 -89 139 -153c0 -88 -64 -145 -162 -145c-106 0 -159 62 -174 145h80c9 -42 38 -77 97 -77c53 0 80 31 80 71c0 41 -18 68 -107 97c-90 29 -132 74 -132 146c0 70 52 130 150 130s145 -60 161 -131zM417 470
c0 80 -47 136 -158 136h-102v-271h99c126 0 161 61 161 135z" />
    <glyph glyph-name="zero.fitted" horiz-adv-x="568" 
d="M39 345c0 262 128 359 247 359c114 0 243 -83 243 -355c0 -302 -148 -371 -244 -371c-114 0 -246 81 -246 367zM444 345c0 192 -59 285 -160 285c-86 0 -159 -77 -159 -282c0 -213 65 -296 162 -296c81 0 157 77 157 293z" />
    <glyph glyph-name="one.fitted" horiz-adv-x="377" 
d="M158 0v606h-101v76h183v-682h-82z" />
    <glyph glyph-name="two.fitted" horiz-adv-x="547" 
d="M80 0v76l219 243c61 68 102 127 102 197c0 63 -40 114 -115 114c-63 0 -115 -45 -115 -120h-87c4 115 92 194 204 194c133 0 199 -87 199 -180c0 -97 -56 -170 -129 -251l-179 -197h320v-76h-419z" />
    <glyph glyph-name="three.fitted" horiz-adv-x="552" 
d="M157 533h-85c8 79 69 171 202 171c118 0 194 -76 194 -174c0 -84 -61 -137 -127 -155v-2c83 -12 152 -75 152 -183c0 -111 -73 -211 -220 -211c-137 0 -210 86 -220 187h88c11 -65 58 -113 137 -113c77 0 130 61 130 135c0 72 -43 140 -157 141h-38v76h33
c79 0 136 44 136 121c0 50 -32 104 -109 104c-79 0 -111 -50 -116 -97z" />
    <glyph glyph-name="four.fitted" horiz-adv-x="556" 
d="M519 164h-87v-164h-82v164h-314v71l318 447h78v-442h87v-76zM301 491l-177 -251h226v247c0 40 0 48 1 76h-3c-12 -22 -18 -31 -47 -72z" />
    <glyph glyph-name="five.fitted" horiz-adv-x="561" 
d="M190 606l-19 -178c29 8 62 11 90 11c143 0 242 -81 242 -223c0 -110 -77 -238 -234 -238c-138 0 -219 87 -229 188h88c10 -59 54 -113 144 -113c79 0 145 60 145 151c0 104 -59 159 -169 159c-45 0 -114 -12 -165 -27l33 346h340v-76h-266z" />
    <glyph glyph-name="six.fitted" horiz-adv-x="586" 
d="M44 223c0 77 30 135 72 193l193 266h92l-168 -227c18 8 49 12 77 12c133 0 231 -109 231 -244s-109 -245 -249 -245c-141 0 -248 103 -248 245zM130 222c0 -97 69 -170 162 -170c94 0 163 73 163 170c0 95 -64 172 -163 172c-97 0 -162 -72 -162 -172z" />
    <glyph glyph-name="seven.fitted" horiz-adv-x="475" 
d="M452 682v-70l-296 -612h-90l299 606h-332v76h419z" />
    <glyph glyph-name="eight.fitted" horiz-adv-x="568" 
d="M166 517c0 -70 57 -118 117 -118c71 0 119 48 119 118c0 68 -50 113 -118 113c-63 0 -118 -45 -118 -113zM145 188c0 -78 57 -135 140 -135c80 0 138 45 138 135c0 81 -57 137 -137 137c-82 0 -141 -57 -141 -137zM508 187c0 -111 -72 -208 -223 -208s-225 97 -225 203
c0 95 48 152 125 182v2c-68 28 -104 83 -104 156c0 98 81 182 204 182c122 0 202 -84 202 -182c0 -78 -42 -135 -101 -156v-2c81 -29 122 -93 122 -177z" />
    <glyph glyph-name="nine.fitted" horiz-adv-x="586" 
d="M541 459c0 -77 -30 -135 -72 -193l-193 -266h-92l168 227c-18 -8 -49 -12 -77 -12c-133 0 -231 109 -231 244s109 245 249 245c141 0 248 -103 248 -245zM455 460c0 97 -69 170 -162 170c-94 0 -163 -73 -163 -170c0 -95 64 -172 163 -172c97 0 162 72 162 172z" />
    <glyph glyph-name="percent.oldstyle" horiz-adv-x="805" 
d="M566 566h77l-407 -566h-77zM40 424c0 97 73 162 162 162c87 0 160 -65 160 -162c0 -98 -73 -163 -160 -163c-89 0 -162 65 -162 163zM114 424c0 -59 39 -98 87 -98c47 0 86 39 86 98s-39 97 -86 97c-48 0 -87 -38 -87 -97zM443 142c0 98 72 163 161 163s161 -65 161 -163
c0 -97 -72 -162 -161 -162s-161 65 -161 162zM518 143c0 -60 38 -98 86 -98s87 38 87 98c0 59 -39 97 -87 97s-86 -38 -86 -97z" />
    <glyph glyph-name="perthousand.oldstyle" horiz-adv-x="1185" 
d="M566 566h77l-407 -566h-77zM40 424c0 97 73 162 162 162c87 0 160 -65 160 -162c0 -98 -73 -163 -160 -163c-89 0 -162 65 -162 163zM114 424c0 -59 39 -98 87 -98c47 0 86 39 86 98s-39 97 -86 97c-48 0 -87 -38 -87 -97zM443 142c0 98 72 163 161 163s161 -65 161 -163
c0 -97 -72 -162 -161 -162s-161 65 -161 162zM518 143c0 -60 38 -98 86 -98s87 38 87 98c0 59 -39 97 -87 97s-86 -38 -86 -97zM823 142c0 98 72 163 161 163s161 -65 161 -163c0 -97 -72 -162 -161 -162s-161 65 -161 162zM898 143c0 -60 38 -98 86 -98s87 38 87 98
c0 59 -39 97 -87 97s-86 -38 -86 -97z" />
    <glyph glyph-name="zero.taboldstyle" horiz-adv-x="562" 
d="M30 256c0 168 108 278 251 278c146 0 251 -110 251 -278c0 -164 -105 -280 -251 -280c-144 0 -251 112 -251 280zM115 255c0 -125 75 -205 166 -205c100 0 166 83 166 205c0 117 -62 205 -166 205c-101 0 -166 -82 -166 -205z" />
    <glyph glyph-name="one.taboldstyle" horiz-adv-x="562" 
d="M264 0v436h-129v76h211v-512h-82z" />
    <glyph glyph-name="two.taboldstyle" horiz-adv-x="562" 
d="M68 0v64l180 125c104 72 132 108 132 169c0 57 -36 102 -104 102c-66 0 -110 -37 -114 -104h-84c8 107 79 178 199 178c121 0 189 -78 189 -167c0 -83 -32 -140 -151 -221l-102 -70h289v-76h-434z" />
    <glyph glyph-name="three.taboldstyle" horiz-adv-x="562" 
d="M170 360h-85c5 101 83 173 188 173c114 0 189 -75 189 -170c0 -63 -37 -113 -91 -134v-3c90 -27 138 -104 138 -200c0 -127 -102 -223 -236 -223c-130 0 -221 86 -233 205h85c10 -79 74 -131 148 -131c84 0 150 61 150 151c0 91 -64 152 -161 152h-41v74h44
c67 0 111 42 111 103c0 56 -40 102 -103 102c-59 0 -99 -42 -103 -99z" />
    <glyph glyph-name="four.taboldstyle" horiz-adv-x="562" 
d="M534 30h-97v-204h-82v204h-323v68l333 414h72v-406h97v-76zM302 335l-183 -229h236v229c0 40 1 46 2 73h-3c-13 -23 -35 -53 -52 -73z" />
    <glyph glyph-name="five.taboldstyle" horiz-adv-x="562" 
d="M263 191c-66 0 -125 -13 -171 -26l37 347h349v-76h-275l-21 -181c17 4 53 12 99 12c154 0 243 -93 243 -232c0 -119 -86 -232 -231 -232c-149 0 -223 101 -233 213h86c7 -76 54 -137 147 -137c78 0 145 59 145 156c0 96 -61 156 -175 156z" />
    <glyph glyph-name="six.taboldstyle" horiz-adv-x="562" 
d="M33 223c0 77 30 135 72 193l192 266h92l-167 -227c18 8 49 12 77 12c133 0 231 -109 231 -244s-109 -245 -249 -245c-141 0 -248 103 -248 245zM119 222c0 -97 69 -170 162 -170c94 0 163 73 163 170c0 95 -64 172 -163 172c-97 0 -162 -72 -162 -172z" />
    <glyph glyph-name="seven.taboldstyle" horiz-adv-x="562" 
d="M501 512v-69l-294 -617h-90l297 610h-339v76h426z" />
    <glyph glyph-name="eight.taboldstyle" horiz-adv-x="562" 
d="M91 529c0 101 80 175 189 175c112 0 191 -74 191 -175c0 -64 -35 -117 -87 -142v-2c79 -28 132 -101 132 -190c0 -126 -96 -219 -236 -219c-138 0 -234 91 -234 219c0 89 54 161 130 190v2c-51 25 -85 77 -85 142zM132 199c0 -92 72 -149 148 -149c84 0 149 60 149 149
c0 82 -61 148 -149 148s-148 -64 -148 -148zM175 525c0 -61 45 -104 105 -104c62 0 107 44 107 104c0 59 -45 105 -107 105c-61 0 -105 -44 -105 -105z" />
    <glyph glyph-name="nine.taboldstyle" horiz-adv-x="562" 
d="M529 289c0 -77 -34 -151 -107 -243l-173 -220h-92l183 231c-18 -8 -49 -12 -77 -12c-133 0 -231 109 -231 244s109 245 249 245c141 0 248 -103 248 -245zM443 290c0 97 -69 170 -162 170c-94 0 -163 -73 -163 -170c0 -95 64 -172 163 -172c97 0 162 72 162 172z" />
    <glyph glyph-name="parenleft.cap" horiz-adv-x="320" 
d="M304 -161h-79c-110 136 -154 320 -154 478c0 161 44 342 154 480h79c-110 -138 -154 -319 -154 -480c0 -158 44 -342 154 -478z" />
    <glyph glyph-name="parenright.cap" horiz-adv-x="320" 
d="M95 -161h-79c110 137 154 318 154 479c0 159 -44 342 -154 479h79c110 -137 154 -320 154 -479c0 -161 -44 -342 -154 -479z" />
    <glyph glyph-name="bracketleft.cap" horiz-adv-x="353" 
d="M281 782v-70h-106v-788h106v-70h-182v928h182z" />
    <glyph glyph-name="bracketright.cap" horiz-adv-x="353" 
d="M72 712v70h182v-928h-182v70h106v788h-106z" />
    <glyph glyph-name="braceleft.cap" horiz-adv-x="380" 
d="M306 795v-58c-48 -2 -63 -34 -63 -83v-208c0 -52 -22 -104 -79 -129v-2c50 -20 79 -71 79 -141v-195c0 -49 15 -81 63 -83v-57c-89 1 -142 57 -142 158v209c0 45 -29 79 -83 85v51c54 6 83 40 83 84v210c0 101 53 157 142 159z" />
    <glyph glyph-name="braceright.cap" horiz-adv-x="380" 
d="M74 737v58c89 -2 142 -58 142 -159v-210c0 -44 29 -78 83 -84v-51c-54 -6 -83 -40 -83 -85v-209c0 -101 -53 -157 -142 -158v57c48 2 63 34 63 83v195c0 70 29 121 79 141v2c-57 25 -79 77 -79 129v208c0 49 -15 81 -63 83z" />
    <glyph glyph-name="exclamdown.cap" horiz-adv-x="229" 
d="M159 682v-88h-88v88h88zM159 0h-88l8 493h72z" />
    <glyph glyph-name="questiondown.cap" horiz-adv-x="435" 
d="M122 360c42 42 58 76 58 133h73c0 -73 -9 -115 -56 -169c-56 -64 -95 -94 -95 -158c0 -63 41 -114 116 -114c62 0 114 45 114 120h87c-3 -115 -91 -194 -204 -194c-133 0 -199 87 -199 180c0 97 61 157 106 202zM261 682v-88h-88v88h88z" />
    <glyph glyph-name="guillemotleft.cap" horiz-adv-x="466" 
d="M232 328l125 203l54 -29l-90 -174l90 -174l-54 -30zM60 328l125 203l54 -29l-90 -174l90 -174l-54 -30z" />
    <glyph glyph-name="guillemotright.cap" horiz-adv-x="466" 
d="M234 327l-125 -203l-54 29l90 174l-90 174l54 30zM406 327l-125 -203l-54 29l90 174l-90 174l54 30z" />
    <glyph glyph-name="guilsinglleft.cap" horiz-adv-x="294" 
d="M60 328l125 203l54 -29l-90 -174l90 -174l-54 -30z" />
    <glyph glyph-name="guilsinglright.cap" horiz-adv-x="294" 
d="M234 327l-125 -203l-54 29l90 174l-90 174l54 30z" />
    <glyph glyph-name="hyphen.cap" horiz-adv-x="471" 
d="M400 324h-322v80h322v-80z" />
    <glyph glyph-name="endash.cap" horiz-adv-x="560" 
d="M482 324h-404v80h404v-80z" />
    <glyph glyph-name="emdash.cap" horiz-adv-x="1110" 
d="M1032 324h-954v80h954v-80z" />
    <glyph glyph-name="periodcentered.cap" horiz-adv-x="229" 
d="M65 300v110h110v-110h-110z" />
    <glyph glyph-name="at.cap" horiz-adv-x="949" 
d="M879 380c0 -156 -84 -266 -190 -266c-65 0 -107 33 -113 87h-5c-29 -52 -91 -87 -141 -87c-95 0 -157 77 -157 189c0 127 81 245 201 245c51 0 96 -28 122 -74h1l11 63h67l-40 -259c-2 -13 -4 -31 -4 -47c0 -35 19 -61 64 -61c65 0 114 87 114 205
c0 183 -114 297 -326 297c-207 0 -344 -165 -344 -360c0 -193 130 -323 338 -323c82 0 158 15 202 36l22 -49c-55 -27 -136 -43 -232 -43c-235 0 -400 148 -400 380c0 230 169 415 418 415c286 0 392 -181 392 -348zM581 365c0 79 -36 127 -101 127
c-92 0 -137 -99 -137 -191c0 -77 36 -131 99 -131c85 0 139 103 139 195z" />
    <glyph glyph-name="sterling.oldstyle" horiz-adv-x="582" 
d="M366 266h-141c4 -19 7 -39 7 -58c0 -53 -19 -89 -43 -108c42 0 63 -7 105 -23c54 -21 72 -24 102 -24c37 0 65 17 67 83h80c-4 -115 -61 -158 -145 -158c-45 0 -87 12 -131 30c-43 18 -82 29 -112 29c-36 0 -75 -16 -108 -41v75c69 30 109 70 109 131c0 22 -4 43 -9 64
h-96v70h76c-6 24 -11 49 -11 75c0 88 59 175 191 175c113 0 182 -67 190 -173h-80c-6 65 -46 101 -110 101c-75 0 -108 -41 -108 -108c0 -24 4 -47 9 -70h158v-70z" />
    <glyph glyph-name="uni203E" unicode="&#x203e;" horiz-adv-x="550" 
d="M0 762v74h550v-74h-550z" />
    <glyph glyph-name="Euro.oldstyle" horiz-adv-x="511" 
d="M383 184h-191c25 -81 85 -134 181 -134c40 0 93 14 118 25v-72c-33 -16 -67 -27 -129 -27c-143 0 -230 84 -259 208h-83l18 64h56c-1 11 -1 22 -1 33c0 15 1 30 2 45h-69l18 64h63c32 116 118 196 259 196c44 0 84 -8 116 -22l-17 -69c-22 11 -59 18 -96 18
c-89 0 -148 -44 -175 -123h242l-16 -64h-239c-2 -14 -2 -29 -2 -44c0 -12 0 -23 1 -34h220z" />
    <glyph glyph-name="florin.oldstyle" horiz-adv-x="467" 
d="M45 -152c47 0 76 24 86 86l56 348h-84v66h94l13 85c18 114 73 153 154 153c21 0 43 -3 59 -7v-65c-14 4 -32 6 -47 6c-48 0 -76 -25 -86 -87l-14 -85h87v-66h-97l-56 -344c-18 -112 -67 -156 -153 -156c-23 0 -43 3 -59 7v65c12 -4 33 -6 47 -6z" />
    <glyph glyph-name="yen.oldstyle" horiz-adv-x="536" 
d="M63 240v64h132l-145 262h89l89 -172c15 -29 29 -57 39 -84h2c11 28 21 52 37 83l91 173h89l-145 -262h132v-64h-164v-72h164v-64h-164v-104h-82v104h-164v64h164v72h-164z" />
    <glyph glyph-name="numbersign.oldstyle" horiz-adv-x="568" 
d="M525 368h-106l-34 -157h107l-12 -54h-106l-34 -157h-56l34 157h-126l-34 -157h-56l34 157h-106l12 54h105l35 157h-107l12 54h107l31 144h56l-31 -144h125l30 144h57l-31 -144h107zM238 368l-34 -157h125l34 157h-125z" />
    <glyph glyph-name="nsuperior" unicode="&#x207f;" horiz-adv-x="435" 
d="M60 328v354h70v-44h1c31 42 70 56 107 56c65 0 142 -40 142 -160v-206h-70v195c0 69 -31 107 -81 107c-61 0 -99 -41 -99 -120v-182h-70z" />
    <glyph glyph-name="fi.alt01" horiz-adv-x="535" 
d="M310 413h-133v-413h-80v413h-69v66h69v34c0 135 70 212 194 212c106 0 171 -72 175 -152h-80c-3 31 -26 86 -100 86c-75 0 -109 -50 -109 -142v-38h133v-66zM387 0v479h79v-479h-79z" />
    <glyph glyph-name="fl.alt01" horiz-adv-x="535" 
d="M310 413h-133v-413h-80v413h-69v66h69v40c0 148 85 206 196 206c57 0 118 -11 173 -25v-700h-79v647c-23 6 -63 12 -90 12c-90 0 -120 -47 -120 -142v-38h133v-66z" />
    <glyph glyph-name="f_f.alt01" horiz-adv-x="589" 
d="M177 413v-413h-80v413h-69v66h69v40c0 148 82 206 188 206c48 0 95 -11 141 -45c23 30 65 45 112 45c20 0 41 -3 59 -8v-66c-18 6 -34 8 -54 8c-52 0 -76 -34 -76 -85v-95h110v-66h-110v-413h-80v413h-210zM387 479v86c0 21 2 40 7 57c-30 24 -75 37 -104 37
c-85 0 -113 -47 -113 -142v-38h210z" />
    <glyph glyph-name="f_f_i.alt01" horiz-adv-x="826" 
d="M387 413h-210v-413h-80v413h-69v66h69v40c0 148 84 206 190 206c54 0 111 -20 151 -54c33 35 82 54 143 54c106 0 171 -72 176 -152h-80c-3 31 -27 86 -100 86c-75 0 -110 -47 -110 -139v-41h133v-66h-133v-413h-80v413zM678 0v479h79v-479h-79zM387 479v36
c0 35 6 72 17 98c-28 26 -79 46 -112 46c-85 0 -115 -47 -115 -142v-38h210z" />
    <glyph glyph-name="f_f_l.alt01" horiz-adv-x="826" 
d="M387 413h-210v-413h-80v413h-69v66h69v40c0 148 84 206 190 206c51 0 102 -15 149 -53c33 35 83 53 142 53s122 -8 179 -21v-704h-79v649c-24 6 -63 10 -91 10c-89 0 -120 -47 -120 -142v-38h124v-66h-124v-413h-80v413zM387 479v44c0 34 5 65 15 90
c-30 27 -78 46 -110 46c-85 0 -115 -47 -115 -142v-38h210z" />
    <glyph glyph-name="afii10051" unicode="&#x402;" horiz-adv-x="665" 
d="M520 -38v296c0 104 -44 149 -132 149s-133 -67 -133 -129l1 -278h-83v606h-159v76h401v-76h-159v-199h3c25 40 82 72 144 72c128 0 200 -73 200 -221v-289c0 -128 -60 -190 -156 -190c-39 0 -66 8 -86 15v66c14 -4 46 -15 79 -15c64 0 80 51 80 117z" />
    <glyph glyph-name="afii10052" unicode="&#x403;" horiz-adv-x="473" 
d="M74 0v682h385v-76h-302v-606h-83zM352 890l38 -71l-182 -83l-29 54z" />
    <glyph glyph-name="afii10100" unicode="&#x453;" horiz-adv-x="410" 
d="M400 479v-71h-252v-408h-79v479h331zM165 600l132 150l58 -55l-146 -137z" />
    <glyph glyph-name="afii10058" unicode="&#x409;" horiz-adv-x="942" 
d="M481 606h-252l-35 -458c-9 -112 -54 -154 -135 -154c-21 0 -38 5 -47 8v72c6 -3 24 -6 39 -6c36 0 56 18 61 80l41 534h411v-291h113c126 0 227 -65 227 -194s-101 -197 -227 -197h-196v606zM818 197c0 75 -53 118 -149 118h-105v-239h119c92 0 135 51 135 121z" />
    <glyph glyph-name="afii10059" unicode="&#x40a;" horiz-adv-x="943" 
d="M565 682v-291h113c126 0 227 -65 227 -194s-101 -197 -227 -197h-196v315h-325v-315h-83v682h83v-291h325v291h83zM819 197c0 75 -53 118 -149 118h-105v-239h119c92 0 135 51 135 121z" />
    <glyph glyph-name="afii10061" unicode="&#x40c;" horiz-adv-x="597" 
d="M495 0l-338 344v-344h-83v682h83v-331l329 331h108l-337 -331l351 -351h-113zM392 890l38 -71l-182 -83l-29 54z" />
    <glyph glyph-name="afii10060" unicode="&#x40b;" horiz-adv-x="665" 
d="M256 606v-199h3c25 40 87 72 149 72c128 0 195 -73 195 -226v-253h-83v258c0 104 -37 149 -132 149c-88 0 -133 -67 -133 -129l1 -278h-83v606h-159v76h401v-76h-159z" />
    <glyph glyph-name="afii10145" unicode="&#x40f;" horiz-adv-x="640" 
d="M74 0v682h83v-606h326v606h83v-682h-205v-175h-83v175h-204z" />
    <glyph glyph-name="afii10099" unicode="&#x452;" horiz-adv-x="548" 
d="M411 -68v343c0 96 -47 149 -122 149c-86 0 -141 -57 -141 -168v-256h-79v574h-69v65h69v81h79v-81h170v-65h-170v-155h2c45 57 99 76 151 76c87 0 189 -53 189 -216v-340c0 -128 -56 -190 -152 -190c-31 0 -53 5 -81 15v64c22 -8 47 -13 74 -13c64 0 80 51 80 117z" />
    <glyph glyph-name="afii10106" unicode="&#x459;" horiz-adv-x="718" 
d="M131 479h299v-196h91c102 0 161 -54 161 -140c0 -85 -57 -143 -158 -143h-173v408h-146l-24 -265c-10 -107 -42 -149 -128 -149c-15 0 -29 2 -42 5v64c7 -2 24 -4 34 -4c38 0 53 26 58 84zM520 217h-90v-151h90c59 0 83 37 83 76c0 48 -27 75 -83 75z" />
    <glyph glyph-name="afii10107" unicode="&#x45a;" horiz-adv-x="706" 
d="M418 283h91c102 0 161 -54 161 -140c0 -85 -57 -143 -158 -143h-173v217h-191v-217h-79v479h79v-196h191v196h79v-196zM508 217h-90v-151h90c59 0 83 37 83 76c0 48 -27 75 -83 75z" />
    <glyph glyph-name="afii10109" unicode="&#x45c;" horiz-adv-x="480" 
d="M69 0v479h79v-219l223 219h97l-228 -224l235 -255h-102l-225 247v-247h-79zM175 600l132 150l58 -55l-146 -137z" />
    <glyph glyph-name="afii10108" unicode="&#x45b;" horiz-adv-x="548" 
d="M318 574h-170v-155h2c45 57 99 76 151 76c87 0 189 -53 189 -216v-279h-79v275c0 96 -47 149 -122 149c-86 0 -141 -57 -141 -168v-256h-79v574h-69v65h69v81h79v-81h170v-65z" />
    <glyph glyph-name="afii10193" unicode="&#x45f;" horiz-adv-x="559" 
d="M490 0h-171v-155h-79v155h-171v479h79v-408h263v408h79v-479z" />
    <glyph glyph-name="afii10062" unicode="&#x40e;" horiz-adv-x="560" 
d="M549 682l-237 -560c-41 -96 -93 -128 -153 -128c-21 0 -34 3 -42 6v70c8 -3 25 -4 34 -4c33 0 58 12 81 65l33 77l-253 474h93l170 -329c8 -16 19 -39 28 -63h2c8 24 19 48 26 65l132 327h86zM388 879h66c-4 -77 -65 -132 -156 -132c-102 0 -153 61 -156 132h66
c2 -39 34 -65 90 -65c59 0 88 30 90 65z" />
    <glyph glyph-name="afii10110" unicode="&#x45e;" horiz-adv-x="432" 
d="M430 479l-264 -714h-76l87 235l-176 479h81l101 -279c9 -23 27 -75 32 -101h2c11 34 21 66 33 101l100 279h80zM308 714h66c-4 -84 -71 -147 -156 -147c-87 0 -152 63 -156 147h66c3 -49 39 -80 90 -80c50 0 87 31 90 80z" />
    <glyph glyph-name="afii10057" unicode="&#x408;" horiz-adv-x="345" 
d="M200 175v507h82v-506c0 -141 -66 -196 -170 -196c-33 0 -75 9 -98 20v74c23 -11 65 -20 90 -20c64 0 96 30 96 121z" />
    <glyph glyph-name="afii10050" unicode="&#x490;" horiz-adv-x="473" 
d="M376 682v158h83v-234h-302v-606h-83v682h302z" />
    <glyph glyph-name="afii10023" unicode="&#x401;" horiz-adv-x="523" 
d="M453 682v-76h-291v-215h280v-76h-280v-239h302v-76h-385v682h374zM133 776v88h92v-88h-92zM307 776v88h92v-88h-92z" />
    <glyph glyph-name="afii10053" unicode="&#x404;" horiz-adv-x="764" 
d="M390 704c188 0 276 -110 313 -197h-94c-33 70 -108 123 -220 123c-124 0 -242 -83 -262 -239h380v-76h-382c11 -150 120 -263 269 -263c112 0 189 55 225 136h94c-59 -125 -156 -210 -323 -210c-210 0 -352 156 -352 365s153 361 352 361z" />
    <glyph glyph-name="afii10056" unicode="&#x407;" horiz-adv-x="231" 
d="M79 0v682h83v-682h-83zM-13 776v88h92v-88h-92zM161 776v88h92v-88h-92z" />
    <glyph glyph-name="afii10055" unicode="&#x406;" horiz-adv-x="231" 
d="M74 0v682h83v-682h-83z" />
    <glyph glyph-name="afii10103" unicode="&#x456;" horiz-adv-x="217" 
d="M69 0v479h79v-479h-79zM60 594v93h98v-93h-98z" />
    <glyph glyph-name="afii10098" unicode="&#x491;" horiz-adv-x="410" 
d="M400 614v-206h-252v-408h-79v479h252v135h79z" />
    <glyph glyph-name="afii10071" unicode="&#x451;" horiz-adv-x="547" 
d="M279 495c174 -1 237 -144 237 -249c0 -9 -1 -24 -2 -29h-391c0 -87 80 -164 170 -164c57 0 92 21 123 58h91c-32 -60 -99 -128 -212 -128c-152 0 -254 114 -254 263c0 132 93 249 238 249zM279 426c-91 0 -148 -70 -155 -143h309c-8 75 -67 143 -154 143zM145 596v88h92
v-88h-92zM319 596v88h92v-88h-92z" />
    <glyph glyph-name="afii61352" unicode="&#x2116;" horiz-adv-x="1092" 
d="M152 551h-2c1 -37 2 -107 2 -143v-408h-78v682h78l222 -328c79 -117 122 -183 144 -224h2c-2 39 -2 109 -2 145v407h78v-682h-78l-222 328c-92 136 -122 182 -144 223zM674 321c0 111 82 185 190 185c115 0 190 -84 190 -185c0 -105 -75 -186 -190 -186
c-109 0 -190 75 -190 186zM747 321c0 -68 48 -119 117 -119c70 0 118 50 118 119c0 67 -48 119 -118 119c-65 0 -117 -41 -117 -119zM1039 0h-350v65h350v-65z" />
    <glyph glyph-name="afii10101" unicode="&#x454;" horiz-adv-x="543" 
d="M288 495c137 0 200 -84 216 -139h-88c-19 40 -61 70 -128 70c-80 0 -151 -48 -167 -143h238v-66h-240c9 -96 80 -164 174 -164c75 0 111 39 130 79h88c-25 -71 -89 -149 -219 -149c-148 0 -256 106 -256 258c0 140 98 254 252 254z" />
    <glyph glyph-name="afii10105" unicode="&#x458;" horiz-adv-x="217" 
d="M148 479v-540c0 -131 -61 -190 -157 -190c-39 0 -66 8 -86 15v66c14 -5 46 -15 79 -15c54 0 85 34 85 117v547h79zM60 594v93h98v-93h-98z" />
    <glyph glyph-name="afii10054" unicode="&#x405;" horiz-adv-x="545" 
d="M471 542h-89c-10 52 -50 90 -113 90c-70 0 -113 -44 -113 -103c0 -64 49 -97 129 -121c154 -46 203 -119 203 -224c0 -100 -73 -206 -214 -206c-114 0 -202 59 -231 186h91c18 -69 65 -114 141 -114c86 0 129 67 129 129c0 77 -48 121 -146 151c-125 38 -186 98 -186 199
c0 97 81 175 197 175c112 0 188 -72 202 -162z" />
    <glyph glyph-name="afii10102" unicode="&#x455;" horiz-adv-x="425" 
d="M374 364h-80c-8 37 -39 64 -77 64c-49 0 -76 -29 -76 -64c0 -30 14 -55 101 -83c106 -34 139 -89 139 -153c0 -88 -64 -145 -162 -145c-106 0 -159 62 -174 145h80c9 -42 38 -77 97 -77c53 0 80 31 80 71c0 41 -18 68 -107 97c-90 29 -132 74 -132 146
c0 70 52 130 150 130s145 -60 161 -131z" />
    <glyph glyph-name="afii10104" unicode="&#x457;" horiz-adv-x="217" 
d="M74 0v479h79v-479h-79zM-20 596v88h92v-88h-92zM154 596v88h92v-88h-92z" />
    <glyph glyph-name="afii10017" unicode="&#x410;" horiz-adv-x="636" 
d="M7 0l278 682h74l270 -682h-91l-70 184h-302l-71 -184h-88zM268 449l-74 -191h246l-72 192c-14 37 -35 98 -47 138h-4c-13 -42 -34 -100 -49 -139z" />
    <glyph glyph-name="afii10018" unicode="&#x411;" horiz-adv-x="535" 
d="M411 197c0 75 -53 118 -149 118h-105v-239h119c92 0 135 51 135 121zM74 682h374v-76h-291v-215h113c126 0 227 -65 227 -194s-101 -197 -227 -197h-196v682z" />
    <glyph glyph-name="afii10019" unicode="&#x412;" horiz-adv-x="540" 
d="M74 0v682h151c141 0 223 -68 223 -174c0 -79 -52 -124 -111 -145v-2c107 -11 160 -86 160 -173c0 -129 -101 -188 -227 -188h-196zM411 194c0 75 -53 121 -149 121h-105v-239h119c92 0 135 48 135 118zM363 501c0 74 -60 105 -138 105h-68v-215h74c82 0 132 45 132 110z
" />
    <glyph glyph-name="afii10020" unicode="&#x413;" horiz-adv-x="473" 
d="M74 0v682h385v-76h-302v-606h-83z" />
    <glyph glyph-name="afii10021" unicode="&#x414;" horiz-adv-x="743" 
d="M20 -175v251h17c52 0 121 43 133 214l28 392h432v-606h83v-251h-83v175h-527v-175h-83zM547 76v530h-272l-22 -316c-7 -103 -30 -171 -73 -214h367z" />
    <glyph glyph-name="afii10022" unicode="&#x415;" horiz-adv-x="523" 
d="M448 682v-76h-291v-215h280v-76h-280v-239h302v-76h-385v682h374z" />
    <glyph glyph-name="afii10024" unicode="&#x416;" horiz-adv-x="825" 
d="M371 350l-275 -350h-104l288 357l-275 325h100l266 -323v323h83v-323l266 323h100l-275 -325l288 -357h-104l-275 350v-350h-83v350z" />
    <glyph glyph-name="afii10025" unicode="&#x417;" horiz-adv-x="532" 
d="M38 166h88c9 -68 63 -111 136 -111c75 0 130 55 130 135c0 72 -49 137 -142 137h-72v76h73c74 0 117 53 117 115c0 61 -45 110 -110 110c-56 0 -96 -29 -104 -85h-87c8 99 90 161 194 161c113 0 191 -79 191 -186c0 -65 -37 -119 -102 -147v-3c78 -26 128 -96 128 -178
c0 -120 -92 -211 -217 -211c-124 0 -213 78 -223 187z" />
    <glyph glyph-name="afii10026" unicode="&#x418;" horiz-adv-x="670" 
d="M74 682h83v-407c0 -36 0 -106 -2 -145h2c22 41 66 106 144 224l217 328h78v-682h-83v408c0 36 1 106 2 143h-2c-22 -41 -53 -86 -144 -223l-217 -328h-78v682z" />
    <glyph glyph-name="afii10027" unicode="&#x419;" horiz-adv-x="670" 
d="M74 682h83v-407c0 -36 0 -106 -2 -145h2c22 41 66 106 144 224l217 328h78v-682h-83v408c0 36 1 106 2 143h-2c-22 -41 -53 -86 -144 -223l-217 -328h-78v682zM424 879h66c-4 -77 -65 -132 -156 -132c-102 0 -153 61 -156 132h66c2 -39 34 -65 90 -65c59 0 88 30 90 65z
" />
    <glyph glyph-name="afii10028" unicode="&#x41a;" horiz-adv-x="597" 
d="M495 0l-338 344v-344h-83v682h83v-331l329 331h108l-337 -331l351 -351h-113z" />
    <glyph glyph-name="afii10029" unicode="&#x41b;" horiz-adv-x="658" 
d="M229 606l-35 -458c-9 -112 -54 -154 -135 -154c-21 0 -38 5 -47 8v72c6 -3 24 -6 39 -6c36 0 56 18 61 80l41 534h431v-682h-83v606h-272z" />
    <glyph glyph-name="afii10030" unicode="&#x41c;" horiz-adv-x="815" 
d="M698 682l75 -682h-81l-39 398c-5 54 -12 133 -16 181h-3c-16 -53 -40 -127 -58 -182l-133 -397h-72l-133 408c-17 52 -41 118 -55 171h-4c-4 -55 -9 -116 -15 -170l-42 -409h-80l79 682h101l148 -439c12 -35 28 -88 37 -125h4c9 37 26 90 38 125l149 439h100z" />
    <glyph glyph-name="afii10031" unicode="&#x41d;" horiz-adv-x="689" 
d="M532 0v315h-375v-315h-83v682h83v-291h375v291h83v-682h-83z" />
    <glyph glyph-name="afii10032" unicode="&#x41e;" horiz-adv-x="799" 
d="M124 341c0 -166 120 -289 275 -289c156 0 276 123 276 289c0 163 -112 289 -276 289c-155 0 -275 -122 -275 -289zM38 341c0 195 152 363 362 363c224 0 361 -172 361 -363c0 -200 -155 -363 -361 -363c-249 0 -362 194 -362 363z" />
    <glyph glyph-name="afii10033" unicode="&#x41f;" horiz-adv-x="640" 
d="M483 0v606h-326v-606h-83v682h492v-682h-83z" />
    <glyph glyph-name="afii10034" unicode="&#x420;" horiz-adv-x="540" 
d="M437 470c0 80 -47 136 -158 136h-122v-271h119c126 0 161 61 161 135zM74 0v682h198c146 0 250 -66 250 -210c0 -131 -78 -212 -257 -212h-108v-260h-83z" />
    <glyph glyph-name="afii10035" unicode="&#x421;" horiz-adv-x="764" 
d="M390 704c188 0 276 -110 313 -197h-94c-33 70 -108 123 -220 123c-136 0 -265 -100 -265 -288c0 -163 112 -290 270 -290c112 0 189 55 225 136h94c-59 -125 -156 -210 -323 -210c-210 0 -352 156 -352 365s153 361 352 361z" />
    <glyph glyph-name="afii10036" unicode="&#x422;" horiz-adv-x="469" 
d="M193 0v606h-179v76h441v-76h-179v-606h-83z" />
    <glyph glyph-name="afii10037" unicode="&#x423;" horiz-adv-x="560" 
d="M549 682l-237 -560c-41 -96 -93 -128 -153 -128c-21 0 -34 3 -42 6v70c8 -3 25 -4 34 -4c33 0 58 12 81 65l33 77l-253 474h93l170 -329c8 -16 19 -39 28 -63h2c8 24 19 48 26 65l132 327h86z" />
    <glyph glyph-name="afii10038" unicode="&#x424;" horiz-adv-x="731" 
d="M324 142v405c-120 0 -202 -84 -202 -202c0 -120 94 -203 202 -203zM407 547v-405c108 0 202 83 202 203c0 118 -82 202 -202 202zM407 -10h-83v78c-166 0 -288 121 -288 277c0 159 123 274 288 274v72h83v-72c165 0 288 -115 288 -274c0 -156 -122 -277 -288 -277v-78z
" />
    <glyph glyph-name="afii10039" unicode="&#x425;" horiz-adv-x="564" 
d="M115 682l121 -187c19 -29 33 -52 48 -78h3c16 29 30 52 48 80l119 185h91l-218 -326l228 -356h-97l-122 196c-19 30 -37 61 -56 91h-2l-57 -93l-120 -194h-92l227 352l-219 330h98z" />
    <glyph glyph-name="afii10040" unicode="&#x426;" horiz-adv-x="679" 
d="M566 0h-492v682h83v-606h326v606h83v-606h83v-251h-83v175z" />
    <glyph glyph-name="afii10041" unicode="&#x427;" horiz-adv-x="601" 
d="M527 0h-83v315h-3c-33 -46 -103 -72 -164 -72c-138 0 -217 70 -217 231v208h83v-213c0 -113 56 -154 147 -154c92 0 154 53 154 155v212h83v-682z" />
    <glyph glyph-name="afii10042" unicode="&#x428;" horiz-adv-x="889" 
d="M74 0v682h83v-606h246v606h83v-606h246v606h83v-682h-741z" />
    <glyph glyph-name="afii10043" unicode="&#x429;" horiz-adv-x="928" 
d="M815 0h-741v682h83v-606h246v606h83v-606h246v606h83v-606h83v-251h-83v175z" />
    <glyph glyph-name="afii10044" unicode="&#x42a;" horiz-adv-x="654" 
d="M530 197c0 75 -53 118 -149 118h-105v-239h119c92 0 135 51 135 121zM193 606h-179v76h262v-291h113c126 0 227 -65 227 -194s-101 -197 -227 -197h-196v606z" />
    <glyph glyph-name="afii10045" unicode="&#x42b;" horiz-adv-x="748" 
d="M411 197c0 75 -53 118 -149 118h-105v-239h119c92 0 135 51 135 121zM74 0v682h83v-291h113c126 0 227 -65 227 -194s-101 -197 -227 -197h-196zM591 0v682h83v-682h-83z" />
    <glyph glyph-name="afii10046" unicode="&#x42c;" horiz-adv-x="535" 
d="M411 197c0 75 -53 118 -149 118h-105v-239h119c92 0 135 51 135 121zM74 0v682h83v-291h113c126 0 227 -65 227 -194s-101 -197 -227 -197h-196z" />
    <glyph glyph-name="afii10047" unicode="&#x42d;" horiz-adv-x="764" 
d="M374 704c199 0 352 -152 352 -361s-142 -365 -352 -365c-167 0 -264 85 -323 210h94c36 -81 113 -136 225 -136c149 0 258 113 269 263h-382v76h380c-20 156 -138 239 -262 239c-112 0 -187 -53 -220 -123h-94c37 87 125 197 313 197z" />
    <glyph glyph-name="afii10048" unicode="&#x42e;" horiz-adv-x="1009" 
d="M610 -22c-237 0 -347 174 -358 337h-95v-315h-83v682h83v-291h97c24 173 164 313 356 313c224 0 361 -172 361 -363c0 -200 -155 -363 -361 -363zM334 341c0 -166 120 -289 275 -289c156 0 276 123 276 289c0 163 -112 289 -276 289c-155 0 -275 -122 -275 -289z" />
    <glyph glyph-name="afii10049" unicode="&#x42f;" horiz-adv-x="565" 
d="M6 0l215 293c-86 17 -158 92 -158 189c0 94 61 200 231 200h197v-682h-83v285h-91l-206 -285h-105zM149 482c0 -66 45 -121 135 -121h124v245h-123c-88 0 -136 -44 -136 -124z" />
    <glyph glyph-name="afii10065" unicode="&#x430;" horiz-adv-x="607" 
d="M538 479v-479h-79v64h-2c-35 -42 -94 -81 -175 -81c-130 0 -246 101 -246 257c0 148 108 255 251 255c87 0 138 -46 171 -85h1v69h79zM118 240c0 -92 57 -187 175 -187c90 0 173 76 173 184c0 114 -77 189 -171 189c-120 0 -177 -94 -177 -186z" />
    <glyph glyph-name="afii10066" unicode="&#x431;" horiz-adv-x="587" 
d="M121 240c0 -108 82 -185 174 -185c101 0 174 80 174 185c0 101 -66 184 -171 184c-102 0 -177 -78 -177 -184zM336 604c-119 -21 -194 -83 -213 -196h3c34 49 108 87 177 87c149 0 248 -110 248 -255c0 -141 -108 -257 -256 -257c-141 0 -253 98 -253 297
c0 291 133 372 294 400c33 6 91 25 124 47l34 -67c-63 -36 -105 -47 -158 -56z" />
    <glyph glyph-name="afii10067" unicode="&#x432;" horiz-adv-x="488" 
d="M69 0v479h181c97 0 158 -42 158 -121c0 -39 -21 -80 -76 -97c83 -16 114 -66 114 -118c0 -85 -64 -143 -175 -143h-202zM264 217h-119v-151h131c63 0 91 37 91 76c0 48 -31 75 -103 75zM245 413h-100v-130h89c64 0 96 24 96 67s-33 63 -85 63z" />
    <glyph glyph-name="afii10068" unicode="&#x433;" horiz-adv-x="410" 
d="M400 479v-71h-252v-408h-79v479h331z" />
    <glyph glyph-name="afii10069" unicode="&#x434;" horiz-adv-x="583" 
d="M15 -155v226h12c52 0 101 44 117 214l18 194h332v-408h74v-226h-79v155h-395v-155h-79zM415 71v337h-184l-10 -115c-11 -121 -29 -180 -66 -222h260z" />
    <glyph glyph-name="afii10070" unicode="&#x435;" horiz-adv-x="547" 
d="M274 495c174 -1 237 -144 237 -249c0 -9 -1 -24 -2 -29h-391c0 -87 80 -164 170 -164c57 0 92 21 123 58h91c-32 -60 -99 -128 -212 -128c-152 0 -254 114 -254 263c0 132 93 249 238 249zM274 426c-91 0 -148 -70 -155 -143h309c-8 75 -67 143 -154 143z" />
    <glyph glyph-name="afii10072" unicode="&#x436;" horiz-adv-x="637" 
d="M279 0v247l-190 -247h-97l203 255l-194 224h90l188 -219v219h79v-219l188 219h90l-194 -224l203 -255h-97l-190 247v-247h-79z" />
    <glyph glyph-name="afii10073" unicode="&#x437;" horiz-adv-x="452" 
d="M28 119h84c11 -39 45 -68 104 -68c76 0 113 37 113 84c0 54 -51 82 -97 82h-69v66h69c50 0 85 29 85 74c0 36 -33 70 -94 70c-47 0 -86 -23 -97 -63h-82c16 83 90 131 178 131c102 0 173 -54 173 -131c0 -59 -24 -94 -82 -112c59 -17 95 -62 95 -117
c0 -87 -64 -153 -193 -153c-95 0 -171 48 -187 137z" />
    <glyph glyph-name="afii10074" unicode="&#x438;" horiz-adv-x="559" 
d="M69 0v479h79v-217c0 -36 -1 -108 -3 -147h2c13 24 36 55 67 95l205 269h71v-479h-79v217c0 36 1 108 3 147h-2c-13 -24 -36 -55 -67 -95l-205 -269h-71z" />
    <glyph glyph-name="afii10075" unicode="&#x439;" horiz-adv-x="559" 
d="M69 0v479h79v-217c0 -36 -1 -108 -3 -147h2c13 24 36 55 67 95l205 269h71v-479h-79v217c0 36 1 108 3 147h-2c-13 -24 -36 -55 -67 -95l-205 -269h-71zM374 714h66c-4 -84 -71 -147 -156 -147c-87 0 -152 63 -156 147h66c3 -49 39 -80 90 -80c50 0 87 31 90 80z" />
    <glyph glyph-name="afii10076" unicode="&#x43a;" horiz-adv-x="480" 
d="M69 0v479h79v-219l223 219h97l-228 -224l235 -255h-102l-225 247v-247h-79z" />
    <glyph glyph-name="afii10077" unicode="&#x43b;" horiz-adv-x="561" 
d="M103 143l28 336h361v-479h-79v408h-208l-24 -265c-10 -107 -42 -149 -128 -149c-15 0 -29 2 -42 5v64c7 -2 24 -4 34 -4c38 0 53 26 58 84z" />
    <glyph glyph-name="afii10078" unicode="&#x43c;" horiz-adv-x="685" 
d="M570 479l86 -479h-74l-45 269c-6 35 -13 78 -17 111h-3c-8 -36 -19 -75 -34 -111l-110 -269h-62l-110 275c-14 35 -27 72 -35 105h-3c-4 -32 -8 -67 -14 -104l-47 -276h-73l88 479h77l122 -303c10 -24 19 -54 25 -78h3c7 25 16 54 26 78l125 303h75z" />
    <glyph glyph-name="afii10079" unicode="&#x43d;" horiz-adv-x="559" 
d="M490 479v-479h-79v217h-263v-217h-79v479h79v-196h263v196h79z" />
    <glyph glyph-name="afii10080" unicode="&#x43e;" horiz-adv-x="584" 
d="M36 240c0 148 112 255 256 255c149 0 256 -110 256 -255c0 -141 -108 -257 -256 -257c-145 0 -256 112 -256 257zM118 240c0 -108 82 -185 174 -185c101 0 174 80 174 185c0 101 -69 184 -174 184c-102 0 -174 -78 -174 -184z" />
    <glyph glyph-name="afii10081" unicode="&#x43f;" horiz-adv-x="559" 
d="M490 479v-479h-79v408h-263v-408h-79v479h421z" />
    <glyph glyph-name="afii10082" unicode="&#x440;" horiz-adv-x="607" 
d="M69 -235v714h79v-68h2c32 38 83 84 180 84c153 0 241 -125 241 -255c0 -145 -104 -257 -244 -257c-82 0 -142 39 -177 81h-2v-299h-79zM489 240c0 93 -58 186 -176 186c-96 0 -172 -75 -172 -189c0 -109 82 -184 174 -184c116 0 174 95 174 187z" />
    <glyph glyph-name="afii10083" unicode="&#x441;" horiz-adv-x="543" 
d="M288 495c137 0 200 -84 216 -139h-88c-19 40 -61 70 -128 70c-91 0 -170 -62 -170 -186c0 -108 74 -187 175 -187c75 0 111 39 130 79h88c-25 -71 -89 -149 -219 -149c-148 0 -256 106 -256 258c0 140 98 254 252 254z" />
    <glyph glyph-name="afii10084" unicode="&#x442;" horiz-adv-x="371" 
d="M361 479v-71h-135v-408h-79v408h-137v71h351z" />
    <glyph glyph-name="afii10085" unicode="&#x443;" horiz-adv-x="432" 
d="M430 479l-264 -714h-76l87 235l-176 479h81l101 -279c9 -23 27 -75 32 -101h2c11 34 21 66 33 101l100 279h80z" />
    <glyph glyph-name="afii10086" unicode="&#x444;" horiz-adv-x="795" 
d="M357 432h1v288h79v-288h1c23 33 69 63 127 63c117 0 194 -102 194 -255c0 -146 -72 -257 -196 -257c-56 0 -102 29 -125 63h-1v-281h-79v282h-1c-24 -30 -68 -64 -123 -64c-127 0 -198 111 -198 257c0 144 75 255 201 255c52 0 96 -30 120 -63zM118 240
c0 -113 49 -187 126 -187c60 0 119 59 119 184c0 126 -50 188 -120 188c-78 0 -125 -80 -125 -185zM677 240c0 90 -33 185 -123 185c-68 0 -122 -54 -122 -188c0 -110 48 -184 123 -184c76 0 122 78 122 187z" />
    <glyph glyph-name="afii10087" unicode="&#x445;" horiz-adv-x="485" 
d="M23 0l177 246l-166 233h92l85 -120c15 -22 23 -37 32 -50h2c11 16 22 31 33 47l83 123h91l-167 -231l178 -248h-93l-93 133c-12 17 -23 33 -35 50h-3l-36 -51l-90 -132h-90z" />
    <glyph glyph-name="afii10088" unicode="&#x446;" horiz-adv-x="579" 
d="M490 71h74v-226h-79v155h-416v479h79v-408h263v408h79v-408z" />
    <glyph glyph-name="afii10089" unicode="&#x447;" horiz-adv-x="515" 
d="M446 479v-479h-79v239h-2c-39 -57 -89 -76 -136 -76c-79 0 -171 52 -171 209v107h79v-101c0 -92 42 -143 107 -143c75 0 123 54 123 160v84h79z" />
    <glyph glyph-name="afii10090" unicode="&#x448;" horiz-adv-x="825" 
d="M756 0h-687v479h79v-408h225v408h79v-408h225v408h79v-479z" />
    <glyph glyph-name="afii10091" unicode="&#x449;" horiz-adv-x="845" 
d="M751 0h-682v479h79v-408h225v408h79v-408h225v408h79v-408h74v-226h-79v155z" />
    <glyph glyph-name="afii10092" unicode="&#x44a;" horiz-adv-x="514" 
d="M316 217h-90v-151h90c59 0 83 37 83 76c0 48 -27 75 -83 75zM226 479v-196h91c102 0 161 -54 161 -140c0 -85 -57 -143 -158 -143h-173v408h-137v71h216z" />
    <glyph glyph-name="afii10093" unicode="&#x44b;" horiz-adv-x="636" 
d="M238 217h-90v-151h90c59 0 83 37 83 76c0 48 -27 75 -83 75zM148 283h91c102 0 161 -54 161 -140c0 -85 -57 -143 -158 -143h-173v479h79v-196zM488 0v479h79v-479h-79z" />
    <glyph glyph-name="afii10094" unicode="&#x44c;" horiz-adv-x="436" 
d="M238 217h-90v-151h90c59 0 83 37 83 76c0 48 -27 75 -83 75zM148 283h91c102 0 161 -54 161 -140c0 -85 -57 -143 -158 -143h-173v479h79v-196z" />
    <glyph glyph-name="afii10095" unicode="&#x44d;" horiz-adv-x="543" 
d="M255 495c154 0 252 -114 252 -254c0 -152 -108 -258 -256 -258c-130 0 -194 78 -219 149h88c19 -40 55 -79 130 -79c94 0 165 68 174 164h-240v66h238c-16 95 -87 143 -167 143c-67 0 -109 -30 -128 -70h-88c16 55 79 139 216 139z" />
    <glyph glyph-name="afii10096" unicode="&#x44e;" horiz-adv-x="764" 
d="M148 479v-196h74c19 125 120 212 250 212c149 0 256 -110 256 -255c0 -141 -108 -257 -256 -257c-137 0 -241 100 -252 234h-72v-217h-79v479h79zM298 240c0 -108 82 -185 174 -185c101 0 174 80 174 185c0 101 -69 184 -174 184c-102 0 -174 -78 -174 -184z" />
    <glyph glyph-name="afii10097" unicode="&#x44f;" horiz-adv-x="436" 
d="M288 197h-55l-134 -197h-85l140 203c-68 16 -108 65 -108 135c0 83 56 141 155 141h166v-479h-79v197zM205 263h83v150h-83c-57 0 -80 -37 -80 -74c0 -49 26 -76 80 -76z" />
    <glyph glyph-name="uni0400" unicode="&#x400;" horiz-adv-x="523" 
d="M453 682v-76h-291v-215h280v-76h-280v-239h302v-76h-385v682h374zM140 819l38 71l173 -100l-29 -54z" />
    <glyph glyph-name="uni0450" unicode="&#x450;" horiz-adv-x="547" 
d="M279 495c174 -1 237 -144 237 -249c0 -9 -1 -24 -2 -29h-391c0 -87 80 -164 170 -164c57 0 92 21 123 58h91c-32 -60 -99 -128 -212 -128c-152 0 -254 114 -254 263c0 132 93 249 238 249zM279 426c-91 0 -148 -70 -155 -143h309c-8 75 -67 143 -154 143zM157 695l58 55
l132 -150l-44 -42z" />
    <glyph glyph-name="uni040D" unicode="&#x40d;" horiz-adv-x="670" 
d="M74 682h83v-407c0 -36 0 -106 -2 -145h2c22 41 66 106 144 224l217 328h78v-682h-83v408c0 36 1 106 2 143h-2c-22 -41 -53 -86 -144 -223l-217 -328h-78v682zM209 819l38 71l173 -100l-29 -54z" />
    <glyph glyph-name="uni045D" unicode="&#x45d;" horiz-adv-x="559" 
d="M69 0v479h79v-217c0 -36 -1 -108 -3 -147h2c13 24 36 55 67 95l205 269h71v-479h-79v217c0 36 1 108 3 147h-2c-13 -24 -36 -55 -67 -95l-205 -269h-71zM178 695l58 55l132 -150l-44 -42z" />
    <glyph glyph-name="uni2010" unicode="&#x2010;" horiz-adv-x="471" 
d="M400 224h-322v80h322v-80z" />
    <glyph glyph-name="Delta" unicode="&#x2206;" horiz-adv-x="636" 
d="M7 0l278 682h74l270 -682h-622zM268 449l-144 -375h386l-142 376c-14 37 -35 98 -47 138h-4c-13 -42 -34 -100 -49 -139z" />
    <glyph glyph-name="Omega" unicode="&#x2126;" horiz-adv-x="753" 
d="M713 373c0 -111 -60 -233 -190 -285v-14h189v-74h-263v125c106 30 178 126 178 248c0 145 -102 257 -251 257c-141 0 -250 -109 -250 -257c0 -122 72 -218 178 -248v-125h-263v74h189v14c-130 52 -190 174 -190 285c0 178 141 331 337 331c209 0 336 -157 336 -331z" />
    <glyph glyph-name="mu" unicode="&#xb5;" horiz-adv-x="550" 
d="M63 -213v692h79v-274c0 -94 40 -150 117 -150c85 0 132 62 132 168v256h80v-369c0 -35 6 -50 36 -50c7 0 17 2 21 3v-70c-10 -3 -25 -5 -38 -5c-59 0 -84 24 -92 80h-2c-42 -63 -97 -85 -152 -85c-38 0 -78 11 -110 36l-3 -2c9 -36 11 -81 11 -122v-108h-79z" />
    <glyph glyph-name="pi" unicode="&#x3c0;" horiz-adv-x="635" 
d="M569 72v-70c-19 -5 -39 -8 -57 -8c-89 0 -115 47 -115 142v277h-168v-278c0 -58 -7 -101 -17 -135h-80c12 38 18 91 18 141v272c-43 0 -96 -10 -125 -27v67c26 15 89 26 145 26h430v-66h-125v-267c0 -58 8 -80 56 -80c11 0 28 2 38 6z" />
    <glyph glyph-name="uni03A9" unicode="&#x3a9;" horiz-adv-x="753" 
d="M713 373c0 -111 -60 -233 -190 -285v-14h189v-74h-263v125c106 30 178 126 178 248c0 145 -102 257 -251 257c-141 0 -250 -109 -250 -257c0 -122 72 -218 178 -248v-125h-263v74h189v14c-130 52 -190 174 -190 285c0 178 141 331 337 331c209 0 336 -157 336 -331z" />
    <glyph glyph-name="uni03BC" unicode="&#x3bc;" horiz-adv-x="550" 
d="M63 -213v692h79v-274c0 -94 40 -150 117 -150c85 0 132 62 132 168v256h80v-369c0 -35 6 -50 36 -50c7 0 17 2 21 3v-70c-10 -3 -25 -5 -38 -5c-59 0 -84 24 -92 80h-2c-42 -63 -97 -85 -152 -85c-38 0 -78 11 -110 36l-3 -2c9 -36 11 -81 11 -122v-108h-79z" />
    <glyph glyph-name="uni0394" unicode="&#x394;" horiz-adv-x="636" 
d="M7 0l278 682h74l270 -682h-622zM268 449l-144 -375h386l-142 376c-14 37 -35 98 -47 138h-4c-13 -42 -34 -100 -49 -139z" />
    <glyph glyph-name="f_i" unicode="&#xf001;" horiz-adv-x="526" 
d="M28 413v66h69v86c0 102 52 160 151 160c20 0 41 -3 59 -8v-66c-18 6 -34 8 -54 8c-52 0 -76 -34 -76 -85v-95h110v-66h-110v-413h-80v413h-69zM378 0v479h79v-479h-79zM369 594v93h98v-93h-98z" />
    <glyph glyph-name="f_l" unicode="&#xf002;" horiz-adv-x="531" 
d="M28 413v66h69v86c0 102 52 160 151 160c20 0 41 -3 59 -8v-66c-18 6 -34 8 -54 8c-52 0 -76 -34 -76 -85v-95h110v-66h-110v-413h-80v413h-69zM383 0v720h79v-720h-79z" />
    </font>
</defs>
</svg>
