<?xml version="1.0" encoding="UTF-8"?>
<svg width="256px" height="256px" viewBox="0 0 256 256" version="1.1" xmlns="http://www.w3.org/2000/svg" xmlns:xlink="http://www.w3.org/1999/xlink">
    <!-- Generator: Sketch 55.2 (78181) - https://sketchapp.com -->
    <title>favicon</title>
    <desc>Created with Sketch.</desc>
    <defs>
        <path d="M128,0 C198.692448,-1.2985992e-14 256,57.307552 256,128 C256,198.692448 198.692448,256 128,256 C57.307552,256 8.65732801e-15,198.692448 0,128 C-8.65732801e-15,57.307552 57.307552,1.2985992e-14 128,0 Z M90.8992671,137.642799 C65.9633385,142.091119 49,150.857021 49,160.943589 C49,175.529571 84.4728236,187.353846 128.230769,187.353846 C171.988714,187.353846 207.461538,175.529571 207.461538,160.943589 C207.461538,150.857021 190.498199,142.091119 165.562271,137.642799 C154.72508,140.359236 141.932597,141.928205 128.230769,141.928205 C114.528941,141.928205 101.736458,140.359236 90.8992671,137.642799 Z M100.52376,94.3970653 C79.4019741,97.8243316 64.8461538,105.048114 64.8461538,113.405128 C64.8461538,125.073913 93.2244127,134.533333 128.230769,134.533333 C163.237125,134.533333 191.615384,125.073913 191.615384,113.405128 C191.615384,105.048114 177.059564,97.8243316 155.937778,94.3970653 C147.822568,96.4057922 138.34925,97.5589742 128.230769,97.5589742 C118.112288,97.5589742 108.63897,96.4057922 100.52376,94.3970653 Z M128.230769,90.6923076 C154.485536,90.6923076 175.76923,83.5977429 175.76923,74.8461538 C175.76923,66.0945647 154.485536,59 128.230769,59 C101.976002,59 80.6923076,66.0945647 80.6923076,74.8461538 C80.6923076,83.5977429 101.976002,90.6923076 128.230769,90.6923076 Z" id="path-1"></path>
    </defs>
    <g id="favicon" stroke="none" stroke-width="1" fill="none" fill-rule="evenodd">
        <mask id="mask-2" fill="white">
            <use xlink:href="#path-1"></use>
        </mask>
        <use id="balancer" fill="#384AFF" xlink:href="#path-1"></use>
    </g>
</svg>