<?xml version="1.0" encoding="UTF-8"?>
<svg width="256px" height="256px" viewBox="0 0 256 256" version="1.1" xmlns="http://www.w3.org/2000/svg" xmlns:xlink="http://www.w3.org/1999/xlink">
    <!-- Generator: Sketch 55.2 (78181) - https://sketchapp.com -->
    <title>logo</title>
    <desc>Created with Sketch.</desc>
    <defs>
        <path d="M46.5664771,193.086673 C60.606931,203.668069 77.4170238,210.824991 95.7427981,213.292413 L95.7427981,144.070387 L46.5664771,193.086673 Z M26.5627485,173.306139 L72.2751118,127.742538 L6.49854899,127.742538 C9.42428006,144.665378 16.4629175,160.206911 26.5627485,173.306139 Z M173.433523,26.9133265 C159.393069,16.3319313 142.582976,9.17500855 124.257202,6.7075868 L124.257202,75.929613 L173.433523,26.9133265 L173.433523,26.9133265 Z M193.437252,46.6938606 L140.731458,99.2281339 L214.463477,99.2281339 C212.43161,79.6023006 204.909135,61.5726071 193.437252,46.6938606 Z M173.433523,193.086673 L124.257202,144.070387 L124.257202,213.292413 C142.582976,210.824991 159.393069,203.668069 173.433523,193.086673 Z M193.437252,173.306139 C203.537083,160.206911 210.57572,144.665378 213.501451,127.742538 L147.724888,127.742538 L193.437252,173.306139 Z M46.5664771,26.9133265 L95.7427981,75.929613 L95.7427981,6.7075868 C77.4170238,9.17500855 60.606931,16.3319313 46.5664771,26.9133265 L46.5664771,26.9133265 Z M26.5627485,46.6938606 L79.2685422,99.2281339 L5.53652292,99.2281339 C7.56838968,79.6023006 15.0908649,61.5726071 26.5627485,46.6938606 Z" id="path-1"></path>
    </defs>
    <g id="logo" stroke="none" stroke-width="1" fill="none" fill-rule="evenodd">
        <g id="Group" transform="translate(18.000000, 18.000000)">
            <mask id="mask-2" fill="white">
                <use xlink:href="#path-1"></use>
            </mask>
            <use id="Shape" fill="#FFFFFF" fill-rule="nonzero" xlink:href="#path-1"></use>
            <circle id="Oval" fill="#384AFF" mask="url(#mask-2)" cx="110" cy="110" r="117.586207"></circle>
        </g>
    </g>
</svg>